M48
;DRILL file {KiCad 4.0.6} date 2018 February 20, Tuesday 14:46:22
;FORMAT={-:-/ absolute / inch / decimal}
FMAT,2
INCH,TZ
T1C0.016
T2C0.063
T3C0.083
T4C0.126
%
G90
G05
M72
T1
X-0.0709Y-3.5591
X-0.0709Y-3.5827
X-0.0709Y-3.6063
X-0.0669Y-0.5669
X-0.0669Y-0.5906
X-0.0669Y-0.6142
X-0.0669Y-4.626
X-0.0669Y-4.6496
X-0.0669Y-4.6732
X-0.0157Y-3.5591
X-0.0157Y-3.5827
X-0.0157Y-3.6063
X-0.0118Y-0.5669
X-0.0118Y-0.5906
X-0.0118Y-0.6142
X-0.0118Y-4.626
X-0.0118Y-4.6496
X-0.0118Y-4.6732
X0.3701Y-4.2638
X0.3701Y-4.3189
X0.3937Y-4.2638
X0.3937Y-4.3189
X0.4173Y-4.2638
X0.4173Y-4.3189
X0.8425Y-4.2638
X0.8425Y-4.3189
X0.8661Y-4.2638
X0.8661Y-4.3189
X0.8898Y-4.2638
X0.8898Y-4.3189
X1.1929Y-0.5669
X1.1929Y-0.5906
X1.1929Y-0.6142
X1.1929Y-2.9291
X1.1929Y-2.9528
X1.1929Y-2.9764
X1.1929Y-3.9134
X1.1929Y-3.937
X1.1929Y-3.9606
X1.248Y-0.5669
X1.248Y-0.5906
X1.248Y-0.6142
X1.248Y-2.9291
X1.248Y-2.9528
X1.248Y-2.9764
X1.248Y-3.9134
X1.248Y-3.937
X1.248Y-3.9606
X1.5118Y-3.3898
X1.5118Y-3.4449
X1.5354Y-3.3898
X1.5354Y-3.4449
X1.5591Y-3.3898
X1.5591Y-3.4449
X2.0236Y-3.122
X2.0236Y-3.1772
X2.0472Y-3.122
X2.0472Y-3.1772
X2.0709Y-3.122
X2.0709Y-3.1772
T3
X1.8504Y-1.7205
T2
X1.8504Y-1.8858G85X1.8504Y-1.9094
G05
T4
X-1.0039Y-0.1181G85X-0.9331Y-0.1181
G05
X-1.0039Y-4.9488G85X-0.9331Y-4.9488
G05
T0
M30
