M48
;DRILL file {KiCad 4.0.6} date 2018 February 20, Tuesday 14:46:22
;FORMAT={-:-/ absolute / inch / decimal}
FMAT,2
INCH,TZ
T1C0.016
T2C0.020
T3C0.024
T4C0.026
T5C0.035
T6C0.039
T7C0.040
T8C0.047
T9C0.110
T10C0.177
T11C0.256
T12C0.276
%
G90
G05
M72
T1
X0.0236Y-0.4724
X0.0531Y-3.6299
X0.0709Y-0.3386
X0.0827Y-3.7047
X0.0965Y-4.0039
X0.1516Y-3.8327
X0.1575Y-4.1142
X0.2323Y-0.4606
X0.2421Y-4.0079
X0.2441Y-0.0276
X0.248Y-4.0787
X0.313Y-4.0236
X0.3701Y-4.1496
X0.372Y-2.8307
X0.3799Y-2.4075
X0.3819Y-0.0906
X0.3819Y-3.4272
X0.3819Y-3.9232
X0.4246Y-2.961
X0.4331Y-2.3524
X0.4882Y-2.5276
X0.5Y-2.0925
X0.5089Y-1.3543
X0.5157Y-2.7402
X0.5177Y-2.4646
X0.5276Y-2.6772
X0.5354Y-1.2402
X0.5945Y-1.874
X0.5965Y-0.502
X0.6043Y-2.2244
X0.6063Y-1.3268
X0.6122Y-4.1102
X0.6123Y-1.2667
X0.6142Y-1.5512
X0.622Y-1.5866
X0.622Y-1.622
X0.622Y-3.7835
X0.6299Y-1.8504
X0.6476Y-2.2224
X0.6575Y-0.8819
X0.6713Y-1.5669
X0.6739Y-3.828
X0.6831Y-3.6693
X0.6969Y-1.2333
X0.6969Y-1.5374
X0.7037Y-1.5036
X0.7165Y-1.3465
X0.7244Y-2.4823
X0.7277Y-3.3366
X0.7323Y-0.1535
X0.752Y-1.1929
X0.752Y-3.2028
X0.7559Y-3.3169
X0.7835Y-3.3996
X0.7943Y-2.6018
X0.8024Y-1.3969
X0.8504Y-3.8504
X0.8602Y-2.5571
X0.8799Y-3.9803
X0.8815Y-3.7789
X0.8969Y-2.4335
X0.8976Y-2.6289
X0.8996Y-3.2638
X0.9016Y-1.5827
X0.9098Y-1.5004
X0.9705Y-3.8543
X1.0394Y-4.1063
X1.0591Y-4.0276
X1.2953Y-0.4685
X1.2953Y-0.689
X1.3504Y-0.6644
X1.3583Y-0.501
X1.4318Y-0.4379
X1.4411Y-0.5076
X1.4476Y-0.6644
X1.4685Y-0.4528
X1.5197Y-0.7136
X1.5279Y-0.4656
X1.5786Y-0.4833
X1.5984Y-0.689
X1.6122Y-2.8055
X1.6299Y-0.8346
X1.6314Y-0.5257
X1.647Y-0.6398
X1.6654Y-1.2677
X1.6693Y-0.8071
X1.6828Y-0.4182
X1.7003Y-0.5285
X1.74Y-0.4469
X1.75Y-0.6644
X1.752Y-2.248
X1.7638Y-1.0236
X1.7717Y-0.8199
X1.7796Y-0.4866
X1.7835Y-2.5039
X1.7954Y-0.5413
X1.8022Y-0.5106
X1.8126Y-0.8077
X1.8583Y-0.689
X1.8724Y-0.5839
X1.8843Y-2.8331
X1.8898Y-0.8346
X1.9036Y-0.5884
X1.9055Y-0.6654
X1.9124Y-2.2473
X1.9231Y-0.7918
X1.9252Y-2.8307
X1.9321Y-0.6033
X1.936Y-0.6811
X1.9439Y-0.8154
X1.9488Y-1.6811
X1.962Y-0.4229
X1.9686Y-0.3111
X1.9793Y-0.9388
X1.9803Y-2.8346
X1.9931Y-0.8053
X1.9948Y-0.3285
X1.997Y-0.862
X2.0276Y-0.3071
X2.0311Y-0.4844
X2.0667Y-0.4238
X2.0787Y-1.0551
X2.0827Y-0.6378
X2.1024Y-0.8425
X2.1102Y-0.4291
X2.1187Y-0.5697
X2.1378Y-0.689
X2.1457Y-1.4488
X2.1681Y-0.8399
X2.1688Y-0.5948
X2.1929Y-0.4409
X2.1994Y-0.8435
X2.2087Y-1.0039
X2.2138Y-0.8154
X2.2352Y-0.4656
X2.2362Y-0.689
X2.2402Y-1.0276
X2.2638Y-0.8425
X2.2677Y-1.
X2.2953Y-0.7953
X2.3055Y-0.4912
X2.3176Y-1.0056
X2.3228Y-0.6582
X2.3236Y-0.8484
X2.3303Y-0.6106
X2.3346Y-0.4449
X2.3346Y-1.0472
X2.377Y-0.9999
X2.3937Y-0.8425
X2.4016Y-0.4567
T3
X0.1594Y-3.6339
X0.2894Y-3.4961
X0.3622Y-2.2756
X0.4104Y-0.937
X0.7689Y-1.4854
X0.811Y-1.6693
X0.8504Y-1.0787
X0.878Y-0.9173
X1.6772Y-2.7087
X2.0748Y-2.5433
X2.2126Y-1.2795
X2.2126Y-1.6614
X2.2126Y-2.063
X2.2126Y-2.4685
T4
X0.0969Y-3.2624
X0.0969Y-3.3124
X0.1469Y-3.2624
X0.1469Y-3.3124
X0.1969Y-3.2624
X0.1969Y-3.3124
X0.2469Y-3.2624
X0.2469Y-3.3124
X0.2969Y-3.2624
X0.2969Y-3.3124
X0.9986Y-0.122
X0.9986Y-0.172
X0.9986Y-0.222
X0.9986Y-0.272
X0.9986Y-0.322
X1.0486Y-0.122
X1.0486Y-0.172
X1.0486Y-0.222
X1.0486Y-0.272
X1.0486Y-0.322
X1.3567Y-3.223
X1.3567Y-3.273
X1.4067Y-3.223
X1.4067Y-3.273
X1.4567Y-3.223
X1.4567Y-3.273
X1.5067Y-3.223
X1.5067Y-3.273
X1.5567Y-3.223
X1.5567Y-3.273
X2.2585Y-0.0839
X2.2585Y-0.1339
X2.2585Y-0.1839
X2.2585Y-0.2339
X2.2585Y-0.2839
X2.3085Y-0.0839
X2.3085Y-0.1339
X2.3085Y-0.1839
X2.3085Y-0.2339
X2.3085Y-0.2839
T5
X0.4413Y-4.185
X0.5413Y-4.185
X0.6398Y-4.185
X0.7398Y-4.185
T6
X0.4945Y-3.3299
X0.4945Y-3.4299
X0.4945Y-3.5299
X0.4945Y-3.6299
X0.4945Y-3.7299
X0.5945Y-3.3299
X0.5945Y-3.4299
X0.5945Y-3.5299
X0.5945Y-3.6299
X0.5945Y-3.7299
X1.3071Y-3.1496
T7
X0.9933Y-0.9043
X0.9933Y-1.0043
X0.9933Y-1.1043
X0.9933Y-1.2043
X0.9933Y-1.3043
X0.9933Y-1.4043
X0.9933Y-1.5043
X0.9933Y-1.6043
X0.9933Y-1.7043
X0.9933Y-1.8043
X0.9933Y-1.9043
X0.9933Y-2.0043
X0.9933Y-2.1043
X0.9933Y-2.2043
X0.9933Y-2.3043
X0.9933Y-2.4043
X0.9933Y-2.5043
X0.9933Y-2.6043
X0.9933Y-2.7043
X0.9933Y-2.8043
X1.0933Y-0.9043
X1.0933Y-1.0043
X1.0933Y-1.1043
X1.0933Y-1.2043
X1.0933Y-1.3043
X1.0933Y-1.4043
X1.0933Y-1.5043
X1.0933Y-1.6043
X1.0933Y-1.7043
X1.0933Y-1.8043
X1.0933Y-1.9043
X1.0933Y-2.0043
X1.0933Y-2.1043
X1.0933Y-2.2043
X1.0933Y-2.3043
X1.0933Y-2.4043
X1.0933Y-2.5043
X1.0933Y-2.6043
X1.0933Y-2.7043
X1.0933Y-2.8043
T8
X0.0476Y-3.1657
T9
X0.1378Y-0.7126
X0.1378Y-2.9961
X1.0433Y-0.7126
X1.0433Y-2.9961
X1.3976Y-2.9528
X2.3031Y-2.9528
T10
X-0.6713Y-2.9823
T11
X-1.0256Y-0.5846
X-1.0256Y-4.4823
X-0.3169Y-4.4823
T12
X-0.6713Y-2.1673
T2
X0.0425Y-0.1969G85X0.0425Y-0.1575
G05
X0.0425Y-4.0945G85X0.0425Y-4.0551
G05
X1.1386Y-4.0551G85X1.1386Y-4.0945
G05
T3
X0.3693Y-0.1949G85X0.3693Y-0.1594
G05
X0.3693Y-4.0925G85X0.3693Y-4.0571
G05
X0.4646Y-0.0925G85X0.4646Y-0.065
G05
X0.4646Y-4.0886G85X0.4646Y-4.061
G05
X0.7165Y-4.061G85X0.7165Y-4.0886
G05
X0.8118Y-4.0571G85X0.8118Y-4.0925
G05
T0
M30
