G04 #@! TF.FileFunction,Soldermask,Top*
%FSLAX46Y46*%
G04 Gerber Fmt 4.6, Leading zero omitted, Abs format (unit mm)*
G04 Created by KiCad (PCBNEW 4.0.6) date 2018 February 20, Tuesday 14:46:14*
%MOMM*%
%LPD*%
G01*
G04 APERTURE LIST*
%ADD10C,0.100000*%
%ADD11C,0.110000*%
%ADD12C,2.000000*%
%ADD13C,2.800000*%
%ADD14C,0.141111*%
%ADD15C,0.402000*%
%ADD16O,5.002000X3.202000*%
%ADD17R,2.100000X2.100000*%
%ADD18O,2.100000X2.100000*%
%ADD19R,3.400000X2.000000*%
%ADD20R,2.400000X1.600000*%
%ADD21R,1.400000X1.400000*%
%ADD22C,1.400000*%
%ADD23R,2.127200X2.127200*%
%ADD24O,2.127200X2.127200*%
%ADD25C,5.900000*%
%ADD26R,1.300000X1.700000*%
%ADD27R,2.200000X2.200000*%
%ADD28C,2.200000*%
%ADD29O,1.900000X2.900000*%
%ADD30O,2.000000X2.900000*%
%ADD31O,2.000000X2.800000*%
%ADD32R,1.500000X1.900000*%
%ADD33R,1.700000X2.800000*%
%ADD34R,4.400000X4.400000*%
%ADD35C,2.120000*%
%ADD36O,1.620000X2.220000*%
%ADD37R,2.900000X3.600000*%
%ADD38R,2.400000X1.900000*%
%ADD39R,1.700000X1.300000*%
%ADD40R,1.598880X1.598880*%
%ADD41C,2.000000*%
%ADD42C,0.254000*%
G04 APERTURE END LIST*
D10*
D11*
X-21414286Y-60661906D02*
X-20414286Y-60661906D01*
X-21366667Y-60661906D02*
X-21414286Y-60566668D01*
X-21414286Y-60376191D01*
X-21366667Y-60280953D01*
X-21319048Y-60233334D01*
X-21223810Y-60185715D01*
X-20938095Y-60185715D01*
X-20842857Y-60233334D01*
X-20795238Y-60280953D01*
X-20747619Y-60376191D01*
X-20747619Y-60566668D01*
X-20795238Y-60661906D01*
X-21414286Y-59328572D02*
X-20747619Y-59328572D01*
X-21414286Y-59757144D02*
X-20890476Y-59757144D01*
X-20795238Y-59709525D01*
X-20747619Y-59614287D01*
X-20747619Y-59471429D01*
X-20795238Y-59376191D01*
X-20842857Y-59328572D01*
X-20795238Y-58900001D02*
X-20747619Y-58804763D01*
X-20747619Y-58614287D01*
X-20795238Y-58519048D01*
X-20890476Y-58471429D01*
X-20938095Y-58471429D01*
X-21033333Y-58519048D01*
X-21080952Y-58614287D01*
X-21080952Y-58757144D01*
X-21128571Y-58852382D01*
X-21223810Y-58900001D01*
X-21271429Y-58900001D01*
X-21366667Y-58852382D01*
X-21414286Y-58757144D01*
X-21414286Y-58614287D01*
X-21366667Y-58519048D01*
X-20747619Y-58042858D02*
X-21747619Y-58042858D01*
X-20747619Y-57614286D02*
X-21271429Y-57614286D01*
X-21366667Y-57661905D01*
X-21414286Y-57757143D01*
X-21414286Y-57900001D01*
X-21366667Y-57995239D01*
X-21319048Y-58042858D01*
X-21414286Y-56519048D02*
X-21414286Y-56138096D01*
X-20747619Y-56376191D02*
X-21604762Y-56376191D01*
X-21700000Y-56328572D01*
X-21747619Y-56233334D01*
X-21747619Y-56138096D01*
X-20747619Y-55661905D02*
X-20795238Y-55757143D01*
X-20842857Y-55804762D01*
X-20938095Y-55852381D01*
X-21223810Y-55852381D01*
X-21319048Y-55804762D01*
X-21366667Y-55757143D01*
X-21414286Y-55661905D01*
X-21414286Y-55519047D01*
X-21366667Y-55423809D01*
X-21319048Y-55376190D01*
X-21223810Y-55328571D01*
X-20938095Y-55328571D01*
X-20842857Y-55376190D01*
X-20795238Y-55423809D01*
X-20747619Y-55519047D01*
X-20747619Y-55661905D01*
X-20747619Y-54900000D02*
X-21414286Y-54900000D01*
X-21223810Y-54900000D02*
X-21319048Y-54852381D01*
X-21366667Y-54804762D01*
X-21414286Y-54709524D01*
X-21414286Y-54614285D01*
X-21033333Y-53566666D02*
X-21033333Y-53090475D01*
X-20747619Y-53661904D02*
X-21747619Y-53328571D01*
X-20747619Y-52995237D01*
X-20747619Y-52661904D02*
X-21747619Y-52661904D01*
X-21747619Y-52280951D01*
X-21700000Y-52185713D01*
X-21652381Y-52138094D01*
X-21557143Y-52090475D01*
X-21414286Y-52090475D01*
X-21319048Y-52138094D01*
X-21271429Y-52185713D01*
X-21223810Y-52280951D01*
X-21223810Y-52661904D01*
X-20747619Y-51661904D02*
X-21414286Y-51661904D01*
X-21319048Y-51661904D02*
X-21366667Y-51614285D01*
X-21414286Y-51519047D01*
X-21414286Y-51376189D01*
X-21366667Y-51280951D01*
X-21271429Y-51233332D01*
X-20747619Y-51233332D01*
X-21271429Y-51233332D02*
X-21366667Y-51185713D01*
X-21414286Y-51090475D01*
X-21414286Y-50947618D01*
X-21366667Y-50852380D01*
X-21271429Y-50804761D01*
X-20747619Y-50804761D01*
X-20747619Y-50185714D02*
X-20795238Y-50280952D01*
X-20842857Y-50328571D01*
X-20938095Y-50376190D01*
X-21223810Y-50376190D01*
X-21319048Y-50328571D01*
X-21366667Y-50280952D01*
X-21414286Y-50185714D01*
X-21414286Y-50042856D01*
X-21366667Y-49947618D01*
X-21319048Y-49899999D01*
X-21223810Y-49852380D01*
X-20938095Y-49852380D01*
X-20842857Y-49899999D01*
X-20795238Y-49947618D01*
X-20747619Y-50042856D01*
X-20747619Y-50185714D01*
X-20747619Y-48995237D02*
X-21747619Y-48995237D01*
X-20795238Y-48995237D02*
X-20747619Y-49090475D01*
X-20747619Y-49280952D01*
X-20795238Y-49376190D01*
X-20842857Y-49423809D01*
X-20938095Y-49471428D01*
X-21223810Y-49471428D01*
X-21319048Y-49423809D01*
X-21366667Y-49376190D01*
X-21414286Y-49280952D01*
X-21414286Y-49090475D01*
X-21366667Y-48995237D01*
X-20795238Y-48138094D02*
X-20747619Y-48233332D01*
X-20747619Y-48423809D01*
X-20795238Y-48519047D01*
X-20890476Y-48566666D01*
X-21271429Y-48566666D01*
X-21366667Y-48519047D01*
X-21414286Y-48423809D01*
X-21414286Y-48233332D01*
X-21366667Y-48138094D01*
X-21271429Y-48090475D01*
X-21176190Y-48090475D01*
X-21080952Y-48566666D01*
X-19195239Y-80347381D02*
X-19195239Y-79680714D01*
X-19195239Y-79871190D02*
X-19147620Y-79775952D01*
X-19100001Y-79728333D01*
X-19004763Y-79680714D01*
X-18909524Y-79680714D01*
X-18147619Y-79680714D02*
X-18147619Y-80347381D01*
X-18576191Y-79680714D02*
X-18576191Y-80204524D01*
X-18528572Y-80299762D01*
X-18433334Y-80347381D01*
X-18290476Y-80347381D01*
X-18195238Y-80299762D01*
X-18147619Y-80252143D01*
X-17671429Y-79680714D02*
X-17671429Y-80347381D01*
X-17671429Y-79775952D02*
X-17623810Y-79728333D01*
X-17528572Y-79680714D01*
X-17385714Y-79680714D01*
X-17290476Y-79728333D01*
X-17242857Y-79823571D01*
X-17242857Y-80347381D01*
X-16052381Y-79299762D02*
X-16909524Y-80585476D01*
X-15766667Y-80299762D02*
X-15671429Y-80347381D01*
X-15480953Y-80347381D01*
X-15385714Y-80299762D01*
X-15338095Y-80204524D01*
X-15338095Y-80156905D01*
X-15385714Y-80061667D01*
X-15480953Y-80014048D01*
X-15623810Y-80014048D01*
X-15719048Y-79966429D01*
X-15766667Y-79871190D01*
X-15766667Y-79823571D01*
X-15719048Y-79728333D01*
X-15623810Y-79680714D01*
X-15480953Y-79680714D01*
X-15385714Y-79728333D01*
X-15052381Y-79680714D02*
X-14671429Y-79680714D01*
X-14909524Y-79347381D02*
X-14909524Y-80204524D01*
X-14861905Y-80299762D01*
X-14766667Y-80347381D01*
X-14671429Y-80347381D01*
X-14195238Y-80347381D02*
X-14290476Y-80299762D01*
X-14338095Y-80252143D01*
X-14385714Y-80156905D01*
X-14385714Y-79871190D01*
X-14338095Y-79775952D01*
X-14290476Y-79728333D01*
X-14195238Y-79680714D01*
X-14052380Y-79680714D01*
X-13957142Y-79728333D01*
X-13909523Y-79775952D01*
X-13861904Y-79871190D01*
X-13861904Y-80156905D01*
X-13909523Y-80252143D01*
X-13957142Y-80299762D01*
X-14052380Y-80347381D01*
X-14195238Y-80347381D01*
X-13433333Y-79680714D02*
X-13433333Y-80680714D01*
X-13433333Y-79728333D02*
X-13338095Y-79680714D01*
X-13147618Y-79680714D01*
X-13052380Y-79728333D01*
X-13004761Y-79775952D01*
X-12957142Y-79871190D01*
X-12957142Y-80156905D01*
X-13004761Y-80252143D01*
X-13052380Y-80299762D01*
X-13147618Y-80347381D01*
X-13338095Y-80347381D01*
X-13433333Y-80299762D01*
X-19909524Y-81909762D02*
X-20004762Y-81957381D01*
X-20195239Y-81957381D01*
X-20290477Y-81909762D01*
X-20338096Y-81862143D01*
X-20385715Y-81766905D01*
X-20385715Y-81481190D01*
X-20338096Y-81385952D01*
X-20290477Y-81338333D01*
X-20195239Y-81290714D01*
X-20004762Y-81290714D01*
X-19909524Y-81338333D01*
X-19338096Y-81957381D02*
X-19433334Y-81909762D01*
X-19480953Y-81814524D01*
X-19480953Y-80957381D01*
X-18957143Y-81957381D02*
X-18957143Y-81290714D01*
X-18957143Y-80957381D02*
X-19004762Y-81005000D01*
X-18957143Y-81052619D01*
X-18909524Y-81005000D01*
X-18957143Y-80957381D01*
X-18957143Y-81052619D01*
X-18100000Y-81909762D02*
X-18195238Y-81957381D01*
X-18385715Y-81957381D01*
X-18480953Y-81909762D01*
X-18528572Y-81814524D01*
X-18528572Y-81433571D01*
X-18480953Y-81338333D01*
X-18385715Y-81290714D01*
X-18195238Y-81290714D01*
X-18100000Y-81338333D01*
X-18052381Y-81433571D01*
X-18052381Y-81528810D01*
X-18528572Y-81624048D01*
X-17623810Y-81290714D02*
X-17623810Y-81957381D01*
X-17623810Y-81385952D02*
X-17576191Y-81338333D01*
X-17480953Y-81290714D01*
X-17338095Y-81290714D01*
X-17242857Y-81338333D01*
X-17195238Y-81433571D01*
X-17195238Y-81957381D01*
X-16861905Y-81290714D02*
X-16480953Y-81290714D01*
X-16719048Y-80957381D02*
X-16719048Y-81814524D01*
X-16671429Y-81909762D01*
X-16576191Y-81957381D01*
X-16480953Y-81957381D01*
X-15385714Y-81957381D02*
X-15385714Y-81290714D01*
X-15385714Y-81385952D02*
X-15338095Y-81338333D01*
X-15242857Y-81290714D01*
X-15099999Y-81290714D01*
X-15004761Y-81338333D01*
X-14957142Y-81433571D01*
X-14957142Y-81957381D01*
X-14957142Y-81433571D02*
X-14909523Y-81338333D01*
X-14814285Y-81290714D01*
X-14671428Y-81290714D01*
X-14576190Y-81338333D01*
X-14528571Y-81433571D01*
X-14528571Y-81957381D01*
X-13909524Y-81957381D02*
X-14004762Y-81909762D01*
X-14052381Y-81862143D01*
X-14100000Y-81766905D01*
X-14100000Y-81481190D01*
X-14052381Y-81385952D01*
X-14004762Y-81338333D01*
X-13909524Y-81290714D01*
X-13766666Y-81290714D01*
X-13671428Y-81338333D01*
X-13623809Y-81385952D01*
X-13576190Y-81481190D01*
X-13576190Y-81766905D01*
X-13623809Y-81862143D01*
X-13671428Y-81909762D01*
X-13766666Y-81957381D01*
X-13909524Y-81957381D01*
X-12719047Y-81957381D02*
X-12719047Y-80957381D01*
X-12719047Y-81909762D02*
X-12814285Y-81957381D01*
X-13004762Y-81957381D01*
X-13100000Y-81909762D01*
X-13147619Y-81862143D01*
X-13195238Y-81766905D01*
X-13195238Y-81481190D01*
X-13147619Y-81385952D01*
X-13100000Y-81338333D01*
X-13004762Y-81290714D01*
X-12814285Y-81290714D01*
X-12719047Y-81338333D01*
X-11861904Y-81909762D02*
X-11957142Y-81957381D01*
X-12147619Y-81957381D01*
X-12242857Y-81909762D01*
X-12290476Y-81814524D01*
X-12290476Y-81433571D01*
X-12242857Y-81338333D01*
X-12147619Y-81290714D01*
X-11957142Y-81290714D01*
X-11861904Y-81338333D01*
X-11814285Y-81433571D01*
X-11814285Y-81528810D01*
X-12290476Y-81624048D01*
D12*
X-13600000Y-117000000D02*
G75*
G03X-13600000Y-117000000I-1000000J0D01*
G01*
X-18400000Y-117000000D02*
G75*
G03X-18400000Y-117000000I-1000000J0D01*
G01*
D13*
X-3305786Y-40045787D02*
G75*
G03X-3305786Y-40045787I-1414214J0D01*
G01*
X-3325786Y-60064213D02*
G75*
G03X-3325786Y-60064213I-1414214J0D01*
G01*
X-3309999Y-70050000D02*
G75*
G03X-3309999Y-70050000I-1414214J0D01*
G01*
X-3301573Y-50060000D02*
G75*
G03X-3301573Y-50060000I-1414214J0D01*
G01*
D14*
X-16022826Y-127392859D02*
X-16005064Y-127392664D01*
X-16005064Y-127392664D02*
X-15987300Y-127392226D01*
X-15987300Y-127392226D02*
X-15969540Y-127391538D01*
X-15969540Y-127391538D02*
X-15951790Y-127390592D01*
X-15951790Y-127390592D02*
X-15934056Y-127389380D01*
X-15934056Y-127389380D02*
X-15916343Y-127387895D01*
X-15916343Y-127387895D02*
X-15898657Y-127386129D01*
X-15898657Y-127386129D02*
X-15881003Y-127384074D01*
X-15881003Y-127384074D02*
X-15863387Y-127381723D01*
X-15863387Y-127381723D02*
X-15845815Y-127379068D01*
X-15845815Y-127379068D02*
X-15828292Y-127376101D01*
X-15828292Y-127376101D02*
X-15810359Y-127372723D01*
X-15810359Y-127372723D02*
X-15792495Y-127369001D01*
X-15792495Y-127369001D02*
X-15774707Y-127364928D01*
X-15774707Y-127364928D02*
X-15757007Y-127360497D01*
X-15757007Y-127360497D02*
X-15739403Y-127355700D01*
X-15739403Y-127355700D02*
X-15722426Y-127350692D01*
X-15722426Y-127350692D02*
X-15705554Y-127345340D01*
X-15705554Y-127345340D02*
X-15688791Y-127339651D01*
X-15688791Y-127339651D02*
X-15672143Y-127333630D01*
X-15672143Y-127333630D02*
X-15655614Y-127327285D01*
X-15655614Y-127327285D02*
X-15639593Y-127320779D01*
X-15639593Y-127320779D02*
X-15623701Y-127313963D01*
X-15623701Y-127313963D02*
X-15607951Y-127306830D01*
X-15607951Y-127306830D02*
X-15592356Y-127299373D01*
X-15592356Y-127299373D02*
X-15576926Y-127291584D01*
X-15576926Y-127291584D02*
X-15562340Y-127283825D01*
X-15562340Y-127283825D02*
X-15547912Y-127275775D01*
X-15547912Y-127275775D02*
X-15533636Y-127267452D01*
X-15533636Y-127267452D02*
X-15519508Y-127258872D01*
X-15519508Y-127258872D02*
X-15505524Y-127250054D01*
X-15505524Y-127250054D02*
X-15492039Y-127241245D01*
X-15492039Y-127241245D02*
X-15478713Y-127232203D01*
X-15478713Y-127232203D02*
X-15465571Y-127222902D01*
X-15465571Y-127222902D02*
X-15452641Y-127213317D01*
X-15452641Y-127213317D02*
X-15439950Y-127203424D01*
X-15439950Y-127203424D02*
X-15427674Y-127193336D01*
X-15427674Y-127193336D02*
X-15415645Y-127182949D01*
X-15415645Y-127182949D02*
X-15403853Y-127172286D01*
X-15403853Y-127172286D02*
X-15392286Y-127161374D01*
X-15392286Y-127161374D02*
X-15380934Y-127150236D01*
X-15380934Y-127150236D02*
X-15370007Y-127139120D01*
X-15370007Y-127139120D02*
X-15359286Y-127127809D01*
X-15359286Y-127127809D02*
X-15348783Y-127116300D01*
X-15348783Y-127116300D02*
X-15338509Y-127104591D01*
X-15338509Y-127104591D02*
X-15328475Y-127092677D01*
X-15328475Y-127092677D02*
X-15316492Y-127077772D01*
X-15316492Y-127077772D02*
X-15304864Y-127062584D01*
X-15304864Y-127062584D02*
X-15293566Y-127047142D01*
X-15293566Y-127047142D02*
X-15282574Y-127031475D01*
X-15282574Y-127031475D02*
X-15271999Y-127015791D01*
X-15271999Y-127015791D02*
X-15261757Y-126999891D01*
X-15261757Y-126999891D02*
X-15251905Y-126983755D01*
X-15251905Y-126983755D02*
X-15242501Y-126967359D01*
X-15242501Y-126967359D02*
X-15233626Y-126950763D01*
X-15233626Y-126950763D02*
X-15225223Y-126933918D01*
X-15225223Y-126933918D02*
X-15217262Y-126916853D01*
X-15217262Y-126916853D02*
X-15209714Y-126899600D01*
X-15209714Y-126899600D02*
X-15202547Y-126882158D01*
X-15202547Y-126882158D02*
X-15195778Y-126864563D01*
X-15195778Y-126864563D02*
X-15189419Y-126846817D01*
X-15189419Y-126846817D02*
X-15183485Y-126828926D01*
X-15183485Y-126828926D02*
X-15178093Y-126811256D01*
X-15178093Y-126811256D02*
X-15173132Y-126793460D01*
X-15173132Y-126793460D02*
X-15168611Y-126775546D01*
X-15168611Y-126775546D02*
X-15164541Y-126757524D01*
X-15164541Y-126757524D02*
X-15160889Y-126739170D01*
X-15160889Y-126739170D02*
X-15157718Y-126720727D01*
X-15157718Y-126720727D02*
X-15155036Y-126702207D01*
X-15155036Y-126702207D02*
X-15152851Y-126683623D01*
X-15152851Y-126683623D02*
X-15151171Y-126664987D01*
X-15151171Y-126664987D02*
X-15150004Y-126646311D01*
X-15150004Y-126646311D02*
X-15149358Y-126627608D01*
X-15149358Y-126627608D02*
X-15149241Y-126608890D01*
X-15149241Y-126608890D02*
X-16022826Y-127392859D01*
X-15149241Y-126608890D02*
X-15149552Y-126590123D01*
X-15149552Y-126590123D02*
X-15150246Y-126571350D01*
X-15150246Y-126571350D02*
X-15151349Y-126552588D01*
X-15151349Y-126552588D02*
X-15152883Y-126533854D01*
X-15152883Y-126533854D02*
X-15154873Y-126515163D01*
X-15154873Y-126515163D02*
X-15157341Y-126496535D01*
X-15157341Y-126496535D02*
X-15160314Y-126477984D01*
X-15160314Y-126477984D02*
X-15163813Y-126459528D01*
X-15163813Y-126459528D02*
X-15167821Y-126441316D01*
X-15167821Y-126441316D02*
X-15172338Y-126423219D01*
X-15172338Y-126423219D02*
X-15177328Y-126405245D01*
X-15177328Y-126405245D02*
X-15182756Y-126387397D01*
X-15182756Y-126387397D02*
X-15188712Y-126369330D01*
X-15188712Y-126369330D02*
X-15195077Y-126351404D01*
X-15195077Y-126351404D02*
X-15201839Y-126333625D01*
X-15201839Y-126333625D02*
X-15208986Y-126315995D01*
X-15208986Y-126315995D02*
X-15216565Y-126298402D01*
X-15216565Y-126298402D02*
X-15224543Y-126280987D01*
X-15224543Y-126280987D02*
X-15232939Y-126263772D01*
X-15232939Y-126263772D02*
X-15241772Y-126246778D01*
X-15241772Y-126246778D02*
X-15250965Y-126230187D01*
X-15250965Y-126230187D02*
X-15260595Y-126213844D01*
X-15260595Y-126213844D02*
X-15270649Y-126197756D01*
X-15270649Y-126197756D02*
X-15281117Y-126181933D01*
X-15281117Y-126181933D02*
X-15291998Y-126166369D01*
X-15291998Y-126166369D02*
X-15303278Y-126151092D01*
X-15303278Y-126151092D02*
X-15314953Y-126136118D01*
X-15314953Y-126136118D02*
X-15327018Y-126121460D01*
X-15327018Y-126121460D02*
X-15337064Y-126109836D01*
X-15337064Y-126109836D02*
X-15347348Y-126098421D01*
X-15347348Y-126098421D02*
X-15357856Y-126087208D01*
X-15357856Y-126087208D02*
X-15368570Y-126076190D01*
X-15368570Y-126076190D02*
X-15379477Y-126065358D01*
X-15379477Y-126065358D02*
X-15390729Y-126054556D01*
X-15390729Y-126054556D02*
X-15402173Y-126043960D01*
X-15402173Y-126043960D02*
X-15413820Y-126033593D01*
X-15413820Y-126033593D02*
X-15425680Y-126023475D01*
X-15425680Y-126023475D02*
X-15437764Y-126013628D01*
X-15437764Y-126013628D02*
X-15450319Y-126003885D01*
X-15450319Y-126003885D02*
X-15463100Y-125994436D01*
X-15463100Y-125994436D02*
X-15476087Y-125985267D01*
X-15476087Y-125985267D02*
X-15489263Y-125976368D01*
X-15489263Y-125976368D02*
X-15502609Y-125967726D01*
X-15502609Y-125967726D02*
X-15516588Y-125959042D01*
X-15516588Y-125959042D02*
X-15530724Y-125950621D01*
X-15530724Y-125950621D02*
X-15545011Y-125942462D01*
X-15545011Y-125942462D02*
X-15559442Y-125934564D01*
X-15559442Y-125934564D02*
X-15574012Y-125926925D01*
X-15574012Y-125926925D02*
X-15589343Y-125919236D01*
X-15589343Y-125919236D02*
X-15604812Y-125911825D01*
X-15604812Y-125911825D02*
X-15620410Y-125904688D01*
X-15620410Y-125904688D02*
X-15636132Y-125897822D01*
X-15636132Y-125897822D02*
X-15651972Y-125891224D01*
X-15651972Y-125891224D02*
X-15668348Y-125884730D01*
X-15668348Y-125884730D02*
X-15684841Y-125878541D01*
X-15684841Y-125878541D02*
X-15701452Y-125872685D01*
X-15701452Y-125872685D02*
X-15718182Y-125867189D01*
X-15718182Y-125867189D02*
X-15735031Y-125862080D01*
X-15735031Y-125862080D02*
X-15752613Y-125857215D01*
X-15752613Y-125857215D02*
X-15770308Y-125852768D01*
X-15770308Y-125852768D02*
X-15788101Y-125848714D01*
X-15788101Y-125848714D02*
X-15805977Y-125845026D01*
X-15805977Y-125845026D02*
X-15823920Y-125841679D01*
X-15823920Y-125841679D02*
X-15841319Y-125838746D01*
X-15841319Y-125838746D02*
X-15858761Y-125836104D01*
X-15858761Y-125836104D02*
X-15876244Y-125833749D01*
X-15876244Y-125833749D02*
X-15893761Y-125831680D01*
X-15893761Y-125831680D02*
X-15911309Y-125829892D01*
X-15911309Y-125829892D02*
X-15928883Y-125828384D01*
X-15928883Y-125828384D02*
X-15946480Y-125827152D01*
X-15946480Y-125827152D02*
X-15964094Y-125826192D01*
X-15964094Y-125826192D02*
X-15981721Y-125825503D01*
X-15981721Y-125825503D02*
X-15999357Y-125825080D01*
X-15999357Y-125825080D02*
X-16016998Y-125824922D01*
X-16016998Y-125824922D02*
X-15149241Y-126608890D01*
X-18038849Y-125824922D02*
X-18057719Y-125824652D01*
X-18057719Y-125824652D02*
X-18076618Y-125824140D01*
X-18076618Y-125824140D02*
X-18095530Y-125823358D01*
X-18095530Y-125823358D02*
X-18114441Y-125822277D01*
X-18114441Y-125822277D02*
X-18133338Y-125820867D01*
X-18133338Y-125820867D02*
X-18152205Y-125819102D01*
X-18152205Y-125819102D02*
X-18171028Y-125816951D01*
X-18171028Y-125816951D02*
X-18189793Y-125814386D01*
X-18189793Y-125814386D02*
X-18208486Y-125811380D01*
X-18208486Y-125811380D02*
X-18227092Y-125807902D01*
X-18227092Y-125807902D02*
X-18245596Y-125803926D01*
X-18245596Y-125803926D02*
X-18263985Y-125799421D01*
X-18263985Y-125799421D02*
X-18282042Y-125794415D01*
X-18282042Y-125794415D02*
X-18299929Y-125788822D01*
X-18299929Y-125788822D02*
X-18317603Y-125782599D01*
X-18317603Y-125782599D02*
X-18335023Y-125775703D01*
X-18335023Y-125775703D02*
X-18352145Y-125768091D01*
X-18352145Y-125768091D02*
X-18367466Y-125760492D01*
X-18367466Y-125760492D02*
X-18382459Y-125752256D01*
X-18382459Y-125752256D02*
X-18397077Y-125743374D01*
X-18397077Y-125743374D02*
X-18411274Y-125733840D01*
X-18411274Y-125733840D02*
X-18425005Y-125723647D01*
X-18425005Y-125723647D02*
X-18437233Y-125713644D01*
X-18437233Y-125713644D02*
X-18448992Y-125703090D01*
X-18448992Y-125703090D02*
X-18460246Y-125691999D01*
X-18460246Y-125691999D02*
X-18470962Y-125680388D01*
X-18470962Y-125680388D02*
X-18481107Y-125668274D01*
X-18481107Y-125668274D02*
X-18492562Y-125652985D01*
X-18492562Y-125652985D02*
X-18503089Y-125637042D01*
X-18503089Y-125637042D02*
X-18512643Y-125620504D01*
X-18512643Y-125620504D02*
X-18521179Y-125603429D01*
X-18521179Y-125603429D02*
X-18528261Y-125586904D01*
X-18528261Y-125586904D02*
X-18534419Y-125570009D01*
X-18534419Y-125570009D02*
X-18539672Y-125552800D01*
X-18539672Y-125552800D02*
X-18544039Y-125535333D01*
X-18544039Y-125535333D02*
X-18547539Y-125517662D01*
X-18547539Y-125517662D02*
X-18550190Y-125499843D01*
X-18550190Y-125499843D02*
X-18552011Y-125481932D01*
X-18552011Y-125481932D02*
X-18553021Y-125463983D01*
X-18553021Y-125463983D02*
X-18553238Y-125446052D01*
X-18553238Y-125446052D02*
X-18552872Y-125428018D01*
X-18552872Y-125428018D02*
X-18551794Y-125409933D01*
X-18551794Y-125409933D02*
X-18549968Y-125391859D01*
X-18549968Y-125391859D02*
X-18547355Y-125373860D01*
X-18547355Y-125373860D02*
X-18543918Y-125356001D01*
X-18543918Y-125356001D02*
X-18539619Y-125338343D01*
X-18539619Y-125338343D02*
X-18534422Y-125320951D01*
X-18534422Y-125320951D02*
X-18528288Y-125303889D01*
X-18528288Y-125303889D02*
X-18521179Y-125287218D01*
X-18521179Y-125287218D02*
X-18514329Y-125273354D01*
X-18514329Y-125273354D02*
X-18506783Y-125259842D01*
X-18506783Y-125259842D02*
X-18498582Y-125246706D01*
X-18498582Y-125246706D02*
X-18489767Y-125233966D01*
X-18489767Y-125233966D02*
X-18480378Y-125221645D01*
X-18480378Y-125221645D02*
X-18470176Y-125209443D01*
X-18470176Y-125209443D02*
X-18459438Y-125197719D01*
X-18459438Y-125197719D02*
X-18448191Y-125186485D01*
X-18448191Y-125186485D02*
X-18436462Y-125175755D01*
X-18436462Y-125175755D02*
X-18424276Y-125165543D01*
X-18424276Y-125165543D02*
X-18410566Y-125155059D01*
X-18410566Y-125155059D02*
X-18396388Y-125145214D01*
X-18396388Y-125145214D02*
X-18381779Y-125136020D01*
X-18381779Y-125136020D02*
X-18366776Y-125127492D01*
X-18366776Y-125127492D02*
X-18351417Y-125119641D01*
X-18351417Y-125119641D02*
X-18334197Y-125111810D01*
X-18334197Y-125111810D02*
X-18316646Y-125104750D01*
X-18316646Y-125104750D02*
X-18298816Y-125098400D01*
X-18298816Y-125098400D02*
X-18280759Y-125092698D01*
X-18280759Y-125092698D02*
X-18262528Y-125087583D01*
X-18262528Y-125087583D02*
X-18244023Y-125082966D01*
X-18244023Y-125082966D02*
X-18225406Y-125078862D01*
X-18225406Y-125078862D02*
X-18206692Y-125075249D01*
X-18206692Y-125075249D02*
X-18187892Y-125072106D01*
X-18187892Y-125072106D02*
X-18169019Y-125069412D01*
X-18169019Y-125069412D02*
X-18150086Y-125067147D01*
X-18150086Y-125067147D02*
X-18131106Y-125065288D01*
X-18131106Y-125065288D02*
X-18112091Y-125063814D01*
X-18112091Y-125063814D02*
X-18093053Y-125062706D01*
X-18093053Y-125062706D02*
X-18074007Y-125061940D01*
X-18074007Y-125061940D02*
X-18054963Y-125061496D01*
X-18054963Y-125061496D02*
X-18035935Y-125061354D01*
X-18035935Y-124781573D02*
X-18053841Y-124781751D01*
X-18053841Y-124781751D02*
X-18071757Y-124782053D01*
X-18071757Y-124782053D02*
X-18089679Y-124782496D01*
X-18089679Y-124782496D02*
X-18107602Y-124783098D01*
X-18107602Y-124783098D02*
X-18125521Y-124783876D01*
X-18125521Y-124783876D02*
X-18143430Y-124784848D01*
X-18143430Y-124784848D02*
X-18161324Y-124786032D01*
X-18161324Y-124786032D02*
X-18179199Y-124787444D01*
X-18179199Y-124787444D02*
X-18197049Y-124789103D01*
X-18197049Y-124789103D02*
X-18214870Y-124791026D01*
X-18214870Y-124791026D02*
X-18232656Y-124793231D01*
X-18232656Y-124793231D02*
X-18250659Y-124795766D01*
X-18250659Y-124795766D02*
X-18268622Y-124798586D01*
X-18268622Y-124798586D02*
X-18286545Y-124801669D01*
X-18286545Y-124801669D02*
X-18304428Y-124804992D01*
X-18304428Y-124804992D02*
X-18322273Y-124808531D01*
X-18322273Y-124808531D02*
X-18339300Y-124812108D01*
X-18339300Y-124812108D02*
X-18356279Y-124815899D01*
X-18356279Y-124815899D02*
X-18373196Y-124819943D01*
X-18373196Y-124819943D02*
X-18390038Y-124824274D01*
X-18390038Y-124824274D02*
X-18406790Y-124828932D01*
X-18406790Y-124828932D02*
X-18422723Y-124833719D01*
X-18422723Y-124833719D02*
X-18438560Y-124838823D01*
X-18438560Y-124838823D02*
X-18454299Y-124844229D01*
X-18454299Y-124844229D02*
X-18469939Y-124849923D01*
X-18469939Y-124849923D02*
X-18485478Y-124855890D01*
X-18485478Y-124855890D02*
X-18500429Y-124861919D01*
X-18500429Y-124861919D02*
X-18515273Y-124868202D01*
X-18515273Y-124868202D02*
X-18530001Y-124874748D01*
X-18530001Y-124874748D02*
X-18544602Y-124881570D01*
X-18544602Y-124881570D02*
X-18559066Y-124888677D01*
X-18559066Y-124888677D02*
X-18572930Y-124895838D01*
X-18572930Y-124895838D02*
X-18586647Y-124903279D01*
X-18586647Y-124903279D02*
X-18600208Y-124911001D01*
X-18600208Y-124911001D02*
X-18613604Y-124919005D01*
X-18613604Y-124919005D02*
X-18626826Y-124927292D01*
X-18626826Y-124927292D02*
X-18642731Y-124937802D01*
X-18642731Y-124937802D02*
X-18658357Y-124948723D01*
X-18658357Y-124948723D02*
X-18673700Y-124960039D01*
X-18673700Y-124960039D02*
X-18688756Y-124971737D01*
X-18688756Y-124971737D02*
X-18703057Y-124983417D01*
X-18703057Y-124983417D02*
X-18717065Y-124995444D01*
X-18717065Y-124995444D02*
X-18730762Y-125007821D01*
X-18730762Y-125007821D02*
X-18744130Y-125020552D01*
X-18744130Y-125020552D02*
X-18756867Y-125033348D01*
X-18756867Y-125033348D02*
X-18769257Y-125046481D01*
X-18769257Y-125046481D02*
X-18781288Y-125059946D01*
X-18781288Y-125059946D02*
X-18792945Y-125073740D01*
X-18792945Y-125073740D02*
X-18803779Y-125087301D01*
X-18803779Y-125087301D02*
X-18814216Y-125101168D01*
X-18814216Y-125101168D02*
X-18824218Y-125115346D01*
X-18824218Y-125115346D02*
X-18833747Y-125129842D01*
X-18833747Y-125129842D02*
X-18842619Y-125144391D01*
X-18842619Y-125144391D02*
X-18851023Y-125159221D01*
X-18851023Y-125159221D02*
X-18858985Y-125174297D01*
X-18858985Y-125174297D02*
X-18866534Y-125189587D01*
X-18866534Y-125189587D02*
X-18873733Y-125205166D01*
X-18873733Y-125205166D02*
X-18880519Y-125220925D01*
X-18880519Y-125220925D02*
X-18886869Y-125236862D01*
X-18886869Y-125236862D02*
X-18892763Y-125252974D01*
X-18892763Y-125252974D02*
X-18898260Y-125269508D01*
X-18898260Y-125269508D02*
X-18903256Y-125286202D01*
X-18903256Y-125286202D02*
X-18907741Y-125303040D01*
X-18907741Y-125303040D02*
X-18911707Y-125320005D01*
X-18911707Y-125320005D02*
X-18915283Y-125337806D01*
X-18915283Y-125337806D02*
X-18918311Y-125355708D01*
X-18918311Y-125355708D02*
X-18920812Y-125373696D01*
X-18920812Y-125373696D02*
X-18922813Y-125391749D01*
X-18922813Y-125391749D02*
X-18924335Y-125409851D01*
X-18924335Y-125409851D02*
X-18925405Y-125427984D01*
X-18925405Y-125427984D02*
X-18926044Y-125446128D01*
X-18926044Y-125446128D02*
X-18926278Y-125464267D01*
X-18926278Y-125464267D02*
X-18035935Y-124781573D01*
X-18926278Y-125464267D02*
X-18926181Y-125482439D01*
X-18926181Y-125482439D02*
X-18925563Y-125500589D01*
X-18925563Y-125500589D02*
X-18924439Y-125518708D01*
X-18924439Y-125518708D02*
X-18922823Y-125536787D01*
X-18922823Y-125536787D02*
X-18920727Y-125554818D01*
X-18920727Y-125554818D02*
X-18918167Y-125572791D01*
X-18918167Y-125572791D02*
X-18915156Y-125590698D01*
X-18915156Y-125590698D02*
X-18911707Y-125608529D01*
X-18911707Y-125608529D02*
X-18908012Y-125625462D01*
X-18908012Y-125625462D02*
X-18903892Y-125642294D01*
X-18903892Y-125642294D02*
X-18899308Y-125659001D01*
X-18899308Y-125659001D02*
X-18894220Y-125675560D01*
X-18894220Y-125675560D02*
X-18888760Y-125691501D01*
X-18888760Y-125691501D02*
X-18882802Y-125707266D01*
X-18882802Y-125707266D02*
X-18876359Y-125722843D01*
X-18876359Y-125722843D02*
X-18869448Y-125738219D01*
X-18869448Y-125738219D02*
X-18862105Y-125753332D01*
X-18862105Y-125753332D02*
X-18854312Y-125768217D01*
X-18854312Y-125768217D02*
X-18846073Y-125782856D01*
X-18846073Y-125782856D02*
X-18837390Y-125797235D01*
X-18837390Y-125797235D02*
X-18828162Y-125811498D01*
X-18828162Y-125811498D02*
X-18818510Y-125825480D01*
X-18818510Y-125825480D02*
X-18808462Y-125839183D01*
X-18808462Y-125839183D02*
X-18798046Y-125852608D01*
X-18798046Y-125852608D02*
X-18787087Y-125865993D01*
X-18787087Y-125865993D02*
X-18775781Y-125879084D01*
X-18775781Y-125879084D02*
X-18764132Y-125891869D01*
X-18764132Y-125891869D02*
X-18752144Y-125904339D01*
X-18752144Y-125904339D02*
X-18739363Y-125916922D01*
X-18739363Y-125916922D02*
X-18726232Y-125929141D01*
X-18726232Y-125929141D02*
X-18712761Y-125940981D01*
X-18712761Y-125940981D02*
X-18698957Y-125952426D01*
X-18698957Y-125952426D02*
X-18684455Y-125963756D01*
X-18684455Y-125963756D02*
X-18669643Y-125974680D01*
X-18669643Y-125974680D02*
X-18654552Y-125985224D01*
X-18654552Y-125985224D02*
X-18639212Y-125995413D01*
X-18639212Y-125995413D02*
X-18623193Y-126005539D01*
X-18623193Y-126005539D02*
X-18606932Y-126015263D01*
X-18606932Y-126015263D02*
X-18590418Y-126024534D01*
X-18590418Y-126024534D02*
X-18573638Y-126033300D01*
X-18573638Y-126033300D02*
X-18559495Y-126040172D01*
X-18559495Y-126040172D02*
X-18545185Y-126046699D01*
X-18545185Y-126046699D02*
X-18530734Y-126052924D01*
X-18530734Y-126052924D02*
X-18516167Y-126058887D01*
X-18516167Y-126058887D02*
X-18501507Y-126064629D01*
X-18501507Y-126064629D02*
X-18486227Y-126070383D01*
X-18486227Y-126070383D02*
X-18470870Y-126075913D01*
X-18470870Y-126075913D02*
X-18455429Y-126081189D01*
X-18455429Y-126081189D02*
X-18439900Y-126086181D01*
X-18439900Y-126086181D02*
X-18424276Y-126090859D01*
X-18424276Y-126090859D02*
X-18407823Y-126095398D01*
X-18407823Y-126095398D02*
X-18391275Y-126099597D01*
X-18391275Y-126099597D02*
X-18374648Y-126103494D01*
X-18374648Y-126103494D02*
X-18357957Y-126107126D01*
X-18357957Y-126107126D02*
X-18341216Y-126110531D01*
X-18341216Y-126110531D02*
X-18323512Y-126113909D01*
X-18323512Y-126113909D02*
X-18305770Y-126117065D01*
X-18305770Y-126117065D02*
X-18287991Y-126119990D01*
X-18287991Y-126119990D02*
X-18270177Y-126122672D01*
X-18270177Y-126122672D02*
X-18252328Y-126125103D01*
X-18252328Y-126125103D02*
X-18234667Y-126127250D01*
X-18234667Y-126127250D02*
X-18216976Y-126129150D01*
X-18216976Y-126129150D02*
X-18199259Y-126130815D01*
X-18199259Y-126130815D02*
X-18181520Y-126132252D01*
X-18181520Y-126132252D02*
X-18163763Y-126133472D01*
X-18163763Y-126133472D02*
X-18145993Y-126134485D01*
X-18145993Y-126134485D02*
X-18128212Y-126135299D01*
X-18128212Y-126135299D02*
X-18110425Y-126135924D01*
X-18110425Y-126135924D02*
X-18092635Y-126136369D01*
X-18092635Y-126136369D02*
X-18074847Y-126136645D01*
X-18074847Y-126136645D02*
X-18057064Y-126136760D01*
X-18057064Y-126136760D02*
X-18926278Y-125464267D01*
X-16031570Y-126136760D02*
X-16014515Y-126137046D01*
X-16014515Y-126137046D02*
X-15997468Y-126137728D01*
X-15997468Y-126137728D02*
X-15980441Y-126138823D01*
X-15980441Y-126138823D02*
X-15963449Y-126140350D01*
X-15963449Y-126140350D02*
X-15946504Y-126142325D01*
X-15946504Y-126142325D02*
X-15929619Y-126144765D01*
X-15929619Y-126144765D02*
X-15912809Y-126147689D01*
X-15912809Y-126147689D02*
X-15894912Y-126151385D01*
X-15894912Y-126151385D02*
X-15877167Y-126155731D01*
X-15877167Y-126155731D02*
X-15859621Y-126160804D01*
X-15859621Y-126160804D02*
X-15842864Y-126166459D01*
X-15842864Y-126166459D02*
X-15826348Y-126172796D01*
X-15826348Y-126172796D02*
X-15810077Y-126179748D01*
X-15810077Y-126179748D02*
X-15794525Y-126187023D01*
X-15794525Y-126187023D02*
X-15779220Y-126194798D01*
X-15779220Y-126194798D02*
X-15764175Y-126203063D01*
X-15764175Y-126203063D02*
X-15749791Y-126211573D01*
X-15749791Y-126211573D02*
X-15735695Y-126220553D01*
X-15735695Y-126220553D02*
X-15721917Y-126230021D01*
X-15721917Y-126230021D02*
X-15709140Y-126239495D01*
X-15709140Y-126239495D02*
X-15696735Y-126249446D01*
X-15696735Y-126249446D02*
X-15684758Y-126259893D01*
X-15684758Y-126259893D02*
X-15673188Y-126270896D01*
X-15673188Y-126270896D02*
X-15662038Y-126282339D01*
X-15662038Y-126282339D02*
X-15651243Y-126294137D01*
X-15651243Y-126294137D02*
X-15638967Y-126308346D01*
X-15638967Y-126308346D02*
X-15627152Y-126322943D01*
X-15627152Y-126322943D02*
X-15615865Y-126337941D01*
X-15615865Y-126337941D02*
X-15605173Y-126353350D01*
X-15605173Y-126353350D02*
X-15595141Y-126369182D01*
X-15595141Y-126369182D02*
X-15585835Y-126385412D01*
X-15585835Y-126385412D02*
X-15577213Y-126402027D01*
X-15577213Y-126402027D02*
X-15569238Y-126418979D01*
X-15569238Y-126418979D02*
X-15561870Y-126436220D01*
X-15561870Y-126436220D02*
X-15555068Y-126453699D01*
X-15555068Y-126453699D02*
X-15549100Y-126470509D01*
X-15549100Y-126470509D02*
X-15543642Y-126487482D01*
X-15543642Y-126487482D02*
X-15538727Y-126504605D01*
X-15538727Y-126504605D02*
X-15534388Y-126521870D01*
X-15534388Y-126521870D02*
X-15530657Y-126539266D01*
X-15530657Y-126539266D02*
X-15527568Y-126556781D01*
X-15527568Y-126556781D02*
X-15525153Y-126574406D01*
X-15525153Y-126574406D02*
X-15523445Y-126592130D01*
X-15523445Y-126592130D02*
X-15522477Y-126609943D01*
X-15522477Y-126609943D02*
X-15522282Y-126627834D01*
X-15522282Y-126627834D02*
X-15522441Y-126645815D01*
X-15522441Y-126645815D02*
X-15523402Y-126663719D01*
X-15523402Y-126663719D02*
X-15525131Y-126681533D01*
X-15525131Y-126681533D02*
X-15527591Y-126699245D01*
X-15527591Y-126699245D02*
X-15530750Y-126716843D01*
X-15530750Y-126716843D02*
X-15534572Y-126734314D01*
X-15534572Y-126734314D02*
X-15539022Y-126751648D01*
X-15539022Y-126751648D02*
X-15544066Y-126768831D01*
X-15544066Y-126768831D02*
X-15549669Y-126785851D01*
X-15549669Y-126785851D02*
X-15555797Y-126802696D01*
X-15555797Y-126802696D02*
X-15562641Y-126819869D01*
X-15562641Y-126819869D02*
X-15570038Y-126836801D01*
X-15570038Y-126836801D02*
X-15578020Y-126853454D01*
X-15578020Y-126853454D02*
X-15586620Y-126869786D01*
X-15586620Y-126869786D02*
X-15595870Y-126885756D01*
X-15595870Y-126885756D02*
X-15605826Y-126901379D01*
X-15605826Y-126901379D02*
X-15616441Y-126916574D01*
X-15616441Y-126916574D02*
X-15627689Y-126931315D01*
X-15627689Y-126931315D02*
X-15639541Y-126945580D01*
X-15639541Y-126945580D02*
X-15651972Y-126959344D01*
X-15651972Y-126959344D02*
X-15665089Y-126972719D01*
X-15665089Y-126972719D02*
X-15678743Y-126985543D01*
X-15678743Y-126985543D02*
X-15692904Y-126997799D01*
X-15692904Y-126997799D02*
X-15707547Y-127009472D01*
X-15707547Y-127009472D02*
X-15722645Y-127020546D01*
X-15722645Y-127020546D02*
X-15736621Y-127030005D01*
X-15736621Y-127030005D02*
X-15750918Y-127038972D01*
X-15750918Y-127038972D02*
X-15765511Y-127047456D01*
X-15765511Y-127047456D02*
X-15780374Y-127055465D01*
X-15780374Y-127055465D02*
X-15795481Y-127063007D01*
X-15795481Y-127063007D02*
X-15810805Y-127070091D01*
X-15810805Y-127070091D02*
X-15827094Y-127077021D01*
X-15827094Y-127077021D02*
X-15843605Y-127083366D01*
X-15843605Y-127083366D02*
X-15860350Y-127089034D01*
X-15860350Y-127089034D02*
X-15877890Y-127094114D01*
X-15877890Y-127094114D02*
X-15895638Y-127098458D01*
X-15895638Y-127098458D02*
X-15913537Y-127102149D01*
X-15913537Y-127102149D02*
X-15930350Y-127105071D01*
X-15930350Y-127105071D02*
X-15947234Y-127107512D01*
X-15947234Y-127107512D02*
X-15964178Y-127109488D01*
X-15964178Y-127109488D02*
X-15981169Y-127111016D01*
X-15981169Y-127111016D02*
X-15998195Y-127112112D01*
X-15998195Y-127112112D02*
X-16015242Y-127112794D01*
X-16015242Y-127112794D02*
X-16032298Y-127113078D01*
X-20596399Y-125873910D02*
X-20614661Y-125873941D01*
X-20614661Y-125873941D02*
X-20632893Y-125874636D01*
X-20632893Y-125874636D02*
X-20651084Y-125875955D01*
X-20651084Y-125875955D02*
X-20669226Y-125877854D01*
X-20669226Y-125877854D02*
X-20687307Y-125880295D01*
X-20687307Y-125880295D02*
X-20705319Y-125883234D01*
X-20705319Y-125883234D02*
X-20722671Y-125886532D01*
X-20722671Y-125886532D02*
X-20739916Y-125890325D01*
X-20739916Y-125890325D02*
X-20757024Y-125894677D01*
X-20757024Y-125894677D02*
X-20773579Y-125899514D01*
X-20773579Y-125899514D02*
X-20789968Y-125904899D01*
X-20789968Y-125904899D02*
X-20806187Y-125910782D01*
X-20806187Y-125910782D02*
X-20821910Y-125916990D01*
X-20821910Y-125916990D02*
X-20837454Y-125923630D01*
X-20837454Y-125923630D02*
X-20852806Y-125930701D01*
X-20852806Y-125930701D02*
X-20867594Y-125938025D01*
X-20867594Y-125938025D02*
X-20882155Y-125945787D01*
X-20882155Y-125945787D02*
X-20896459Y-125954011D01*
X-20896459Y-125954011D02*
X-20910313Y-125962609D01*
X-20910313Y-125962609D02*
X-20923877Y-125971659D01*
X-20923877Y-125971659D02*
X-20937145Y-125981135D01*
X-20937145Y-125981135D02*
X-20950014Y-125990935D01*
X-20950014Y-125990935D02*
X-20962587Y-126001112D01*
X-20962587Y-126001112D02*
X-20974865Y-126011650D01*
X-20974865Y-126011650D02*
X-20986698Y-126022414D01*
X-20986698Y-126022414D02*
X-20998167Y-126033559D01*
X-20998167Y-126033559D02*
X-21009194Y-126045131D01*
X-21009194Y-126045131D02*
X-21019647Y-126057062D01*
X-21019647Y-126057062D02*
X-21029655Y-126069379D01*
X-21029655Y-126069379D02*
X-21039284Y-126082003D01*
X-21039284Y-126082003D02*
X-21048584Y-126094876D01*
X-21048584Y-126094876D02*
X-21057506Y-126108004D01*
X-21057506Y-126108004D02*
X-21065985Y-126121418D01*
X-21065985Y-126121418D02*
X-21074119Y-126135405D01*
X-21074119Y-126135405D02*
X-21081742Y-126149684D01*
X-21081742Y-126149684D02*
X-21088871Y-126164223D01*
X-21088871Y-126164223D02*
X-21095502Y-126178974D01*
X-21095502Y-126178974D02*
X-21101597Y-126193949D01*
X-21101597Y-126193949D02*
X-21107095Y-126209147D01*
X-21107095Y-126209147D02*
X-21111899Y-126224379D01*
X-21111899Y-126224379D02*
X-21116118Y-126239791D01*
X-21116118Y-126239791D02*
X-21119809Y-126255343D01*
X-21119809Y-126255343D02*
X-21123061Y-126271255D01*
X-21123061Y-126271255D02*
X-21125781Y-126287261D01*
X-21125781Y-126287261D02*
X-21127923Y-126303348D01*
X-21127923Y-126303348D02*
X-21129439Y-126319503D01*
X-21129439Y-126319503D02*
X-21130282Y-126335716D01*
X-21130282Y-126335716D02*
X-21130404Y-126351972D01*
X-21130404Y-126351972D02*
X-20596399Y-125873910D01*
X-21130404Y-126905897D02*
X-21130276Y-126922572D01*
X-21130276Y-126922572D02*
X-21129434Y-126939206D01*
X-21129434Y-126939206D02*
X-21127922Y-126955785D01*
X-21127922Y-126955785D02*
X-21125785Y-126972296D01*
X-21125785Y-126972296D02*
X-21123066Y-126988729D01*
X-21123066Y-126988729D02*
X-21119809Y-127005069D01*
X-21119809Y-127005069D02*
X-21116137Y-127020906D01*
X-21116137Y-127020906D02*
X-21111923Y-127036601D01*
X-21111923Y-127036601D02*
X-21107095Y-127052112D01*
X-21107095Y-127052112D02*
X-21101630Y-127067325D01*
X-21101630Y-127067325D02*
X-21095538Y-127082303D01*
X-21095538Y-127082303D02*
X-21088871Y-127097037D01*
X-21088871Y-127097037D02*
X-21081724Y-127111423D01*
X-21081724Y-127111423D02*
X-21074087Y-127125552D01*
X-21074087Y-127125552D02*
X-21065985Y-127139418D01*
X-21065985Y-127139418D02*
X-21057481Y-127152958D01*
X-21057481Y-127152958D02*
X-21048571Y-127166235D01*
X-21048571Y-127166235D02*
X-21039284Y-127179256D01*
X-21039284Y-127179256D02*
X-21029649Y-127192007D01*
X-21029649Y-127192007D02*
X-21019630Y-127204456D01*
X-21019630Y-127204456D02*
X-21009194Y-127216552D01*
X-21009194Y-127216552D02*
X-20998168Y-127228405D01*
X-20998168Y-127228405D02*
X-20986713Y-127239847D01*
X-20986713Y-127239847D02*
X-20974865Y-127250881D01*
X-20974865Y-127250881D02*
X-20962601Y-127261565D01*
X-20962601Y-127261565D02*
X-20950015Y-127271868D01*
X-20950015Y-127271868D02*
X-20937145Y-127281819D01*
X-20937145Y-127281819D02*
X-20923860Y-127291548D01*
X-20923860Y-127291548D02*
X-20910304Y-127300890D01*
X-20910304Y-127300890D02*
X-20896459Y-127309791D01*
X-20896459Y-127309791D02*
X-20882167Y-127318297D01*
X-20882167Y-127318297D02*
X-20867602Y-127326336D01*
X-20867602Y-127326336D02*
X-20852806Y-127333948D01*
X-20852806Y-127333948D02*
X-20837467Y-127341322D01*
X-20837467Y-127341322D02*
X-20821928Y-127348255D01*
X-20821928Y-127348255D02*
X-20806187Y-127354715D01*
X-20806187Y-127354715D02*
X-20789985Y-127360764D01*
X-20789985Y-127360764D02*
X-20773591Y-127366277D01*
X-20773591Y-127366277D02*
X-20757024Y-127371244D01*
X-20757024Y-127371244D02*
X-20739920Y-127375754D01*
X-20739920Y-127375754D02*
X-20722677Y-127379702D01*
X-20722677Y-127379702D02*
X-20705319Y-127383111D01*
X-20705319Y-127383111D02*
X-20687313Y-127386082D01*
X-20687313Y-127386082D02*
X-20669227Y-127388507D01*
X-20669227Y-127388507D02*
X-20651075Y-127390391D01*
X-20651075Y-127390391D02*
X-20632876Y-127391741D01*
X-20632876Y-127391741D02*
X-20614645Y-127392562D01*
X-20614645Y-127392562D02*
X-20596399Y-127392859D01*
X-20596399Y-127392859D02*
X-21130404Y-126905897D01*
X-19247400Y-127392859D02*
X-19231975Y-127391214D01*
X-19231975Y-127391214D02*
X-19217046Y-127386523D01*
X-19217046Y-127386523D02*
X-19203747Y-127378449D01*
X-19203747Y-127378449D02*
X-19193882Y-127367802D01*
X-19193882Y-127367802D02*
X-19187563Y-127354800D01*
X-19187563Y-127354800D02*
X-19185947Y-127340306D01*
X-19185947Y-127340306D02*
X-19247400Y-127392859D01*
X-19185947Y-127177137D02*
X-19187595Y-127162245D01*
X-19187595Y-127162245D02*
X-19193947Y-127148943D01*
X-19193947Y-127148943D02*
X-19203747Y-127137723D01*
X-19203747Y-127137723D02*
X-19216747Y-127128591D01*
X-19216747Y-127128591D02*
X-19231536Y-127123015D01*
X-19231536Y-127123015D02*
X-19247400Y-127121618D01*
X-19247400Y-127121618D02*
X-19185947Y-127177137D01*
X-20596399Y-127121618D02*
X-20615071Y-127121012D01*
X-20615071Y-127121012D02*
X-20633752Y-127119306D01*
X-20633752Y-127119306D02*
X-20652293Y-127116377D01*
X-20652293Y-127116377D02*
X-20670547Y-127112103D01*
X-20670547Y-127112103D02*
X-20688367Y-127106361D01*
X-20688367Y-127106361D02*
X-20702046Y-127100732D01*
X-20702046Y-127100732D02*
X-20715334Y-127094202D01*
X-20715334Y-127094202D02*
X-20728205Y-127086865D01*
X-20728205Y-127086865D02*
X-20740759Y-127078703D01*
X-20740759Y-127078703D02*
X-20752790Y-127069805D01*
X-20752790Y-127069805D02*
X-20764229Y-127060165D01*
X-20764229Y-127060165D02*
X-20774837Y-127049962D01*
X-20774837Y-127049962D02*
X-20784745Y-127039072D01*
X-20784745Y-127039072D02*
X-20793896Y-127027531D01*
X-20793896Y-127027531D02*
X-20801809Y-127016027D01*
X-20801809Y-127016027D02*
X-20808902Y-127004007D01*
X-20808902Y-127004007D02*
X-20815087Y-126991507D01*
X-20815087Y-126991507D02*
X-20821353Y-126975541D01*
X-20821353Y-126975541D02*
X-20826148Y-126959055D01*
X-20826148Y-126959055D02*
X-20829504Y-126942204D01*
X-20829504Y-126942204D02*
X-20831457Y-126925139D01*
X-20831457Y-126925139D02*
X-20832040Y-126908016D01*
X-20832040Y-126355786D02*
X-20831542Y-126339017D01*
X-20831542Y-126339017D02*
X-20829524Y-126322359D01*
X-20829524Y-126322359D02*
X-20826017Y-126305949D01*
X-20826017Y-126305949D02*
X-20821053Y-126289922D01*
X-20821053Y-126289922D02*
X-20814663Y-126274414D01*
X-20814663Y-126274414D02*
X-20808318Y-126262044D01*
X-20808318Y-126262044D02*
X-20801088Y-126250164D01*
X-20801088Y-126250164D02*
X-20793049Y-126238814D01*
X-20793049Y-126238814D02*
X-20783738Y-126227418D01*
X-20783738Y-126227418D02*
X-20773682Y-126216677D01*
X-20773682Y-126216677D02*
X-20762958Y-126206604D01*
X-20762958Y-126206604D02*
X-20751351Y-126196986D01*
X-20751351Y-126196986D02*
X-20739182Y-126188087D01*
X-20739182Y-126188087D02*
X-20726510Y-126179904D01*
X-20726510Y-126179904D02*
X-20713631Y-126172584D01*
X-20713631Y-126172584D02*
X-20700344Y-126166053D01*
X-20700344Y-126166053D02*
X-20686671Y-126160408D01*
X-20686671Y-126160408D02*
X-20669184Y-126154727D01*
X-20669184Y-126154727D02*
X-20651273Y-126150464D01*
X-20651273Y-126150464D02*
X-20633079Y-126147516D01*
X-20633079Y-126147516D02*
X-20614741Y-126145780D01*
X-20614741Y-126145780D02*
X-20596399Y-126145151D01*
X-19241043Y-126145151D02*
X-19225520Y-126143568D01*
X-19225520Y-126143568D02*
X-19210607Y-126138666D01*
X-19210607Y-126138666D02*
X-19197390Y-126130318D01*
X-19197390Y-126130318D02*
X-19187502Y-126119353D01*
X-19187502Y-126119353D02*
X-19181196Y-126106072D01*
X-19181196Y-126106072D02*
X-19179590Y-126091327D01*
X-19179590Y-126091327D02*
X-19241043Y-126145151D01*
X-19179590Y-125927735D02*
X-19181021Y-125912894D01*
X-19181021Y-125912894D02*
X-19187385Y-125899650D01*
X-19187385Y-125899650D02*
X-19197390Y-125888744D01*
X-19197390Y-125888744D02*
X-19210622Y-125880407D01*
X-19210622Y-125880407D02*
X-19225502Y-125875480D01*
X-19225502Y-125875480D02*
X-19241043Y-125873910D01*
X-19241043Y-125873910D02*
X-19179590Y-125927735D01*
X-14920410Y-125001057D02*
X-14918804Y-125015802D01*
X-14918804Y-125015802D02*
X-14912498Y-125029083D01*
X-14912498Y-125029083D02*
X-14902610Y-125040048D01*
X-14902610Y-125040048D02*
X-14889393Y-125048396D01*
X-14889393Y-125048396D02*
X-14874480Y-125053298D01*
X-14874480Y-125053298D02*
X-14858957Y-125054881D01*
X-14858957Y-125054881D02*
X-14920410Y-125001057D01*
X-13503601Y-125054881D02*
X-13485259Y-125055510D01*
X-13485259Y-125055510D02*
X-13466921Y-125057246D01*
X-13466921Y-125057246D02*
X-13448727Y-125060194D01*
X-13448727Y-125060194D02*
X-13430816Y-125064457D01*
X-13430816Y-125064457D02*
X-13413329Y-125070138D01*
X-13413329Y-125070138D02*
X-13399656Y-125075783D01*
X-13399656Y-125075783D02*
X-13386369Y-125082314D01*
X-13386369Y-125082314D02*
X-13373490Y-125089634D01*
X-13373490Y-125089634D02*
X-13360818Y-125097817D01*
X-13360818Y-125097817D02*
X-13348649Y-125106717D01*
X-13348649Y-125106717D02*
X-13337042Y-125116334D01*
X-13337042Y-125116334D02*
X-13326318Y-125126407D01*
X-13326318Y-125126407D02*
X-13316262Y-125137149D01*
X-13316262Y-125137149D02*
X-13306951Y-125148544D01*
X-13306951Y-125148544D02*
X-13298912Y-125159894D01*
X-13298912Y-125159894D02*
X-13291682Y-125171774D01*
X-13291682Y-125171774D02*
X-13285337Y-125184144D01*
X-13285337Y-125184144D02*
X-13278947Y-125199652D01*
X-13278947Y-125199652D02*
X-13273983Y-125215679D01*
X-13273983Y-125215679D02*
X-13270476Y-125232089D01*
X-13270476Y-125232089D02*
X-13268458Y-125248747D01*
X-13268458Y-125248747D02*
X-13267960Y-125265517D01*
X-13267960Y-125817746D02*
X-13268543Y-125834870D01*
X-13268543Y-125834870D02*
X-13270496Y-125851934D01*
X-13270496Y-125851934D02*
X-13273852Y-125868785D01*
X-13273852Y-125868785D02*
X-13278647Y-125885271D01*
X-13278647Y-125885271D02*
X-13284913Y-125901237D01*
X-13284913Y-125901237D02*
X-13291098Y-125913738D01*
X-13291098Y-125913738D02*
X-13298191Y-125925758D01*
X-13298191Y-125925758D02*
X-13306104Y-125937261D01*
X-13306104Y-125937261D02*
X-13315255Y-125948802D01*
X-13315255Y-125948802D02*
X-13325163Y-125959692D01*
X-13325163Y-125959692D02*
X-13335771Y-125969895D01*
X-13335771Y-125969895D02*
X-13347210Y-125979535D01*
X-13347210Y-125979535D02*
X-13359241Y-125988433D01*
X-13359241Y-125988433D02*
X-13371795Y-125996595D01*
X-13371795Y-125996595D02*
X-13384666Y-126003932D01*
X-13384666Y-126003932D02*
X-13397954Y-126010462D01*
X-13397954Y-126010462D02*
X-13411633Y-126016091D01*
X-13411633Y-126016091D02*
X-13429453Y-126021833D01*
X-13429453Y-126021833D02*
X-13447707Y-126026107D01*
X-13447707Y-126026107D02*
X-13466248Y-126029036D01*
X-13466248Y-126029036D02*
X-13484929Y-126030742D01*
X-13484929Y-126030742D02*
X-13503601Y-126031348D01*
X-14852600Y-126031348D02*
X-14868464Y-126032745D01*
X-14868464Y-126032745D02*
X-14883253Y-126038321D01*
X-14883253Y-126038321D02*
X-14896253Y-126047453D01*
X-14896253Y-126047453D02*
X-14906053Y-126058673D01*
X-14906053Y-126058673D02*
X-14912405Y-126071975D01*
X-14912405Y-126071975D02*
X-14914053Y-126086867D01*
X-14914053Y-126086867D02*
X-14852600Y-126031348D01*
X-14914053Y-126250036D02*
X-14912437Y-126264530D01*
X-14912437Y-126264530D02*
X-14906118Y-126277532D01*
X-14906118Y-126277532D02*
X-14896253Y-126288179D01*
X-14896253Y-126288179D02*
X-14882954Y-126296253D01*
X-14882954Y-126296253D02*
X-14868025Y-126300944D01*
X-14868025Y-126300944D02*
X-14852600Y-126302589D01*
X-14852600Y-126302589D02*
X-14914053Y-126250036D01*
X-13503601Y-126302589D02*
X-13485355Y-126302292D01*
X-13485355Y-126302292D02*
X-13467124Y-126301471D01*
X-13467124Y-126301471D02*
X-13448925Y-126300121D01*
X-13448925Y-126300121D02*
X-13430773Y-126298237D01*
X-13430773Y-126298237D02*
X-13412687Y-126295812D01*
X-13412687Y-126295812D02*
X-13394681Y-126292841D01*
X-13394681Y-126292841D02*
X-13377323Y-126289432D01*
X-13377323Y-126289432D02*
X-13360080Y-126285484D01*
X-13360080Y-126285484D02*
X-13342976Y-126280974D01*
X-13342976Y-126280974D02*
X-13326409Y-126276007D01*
X-13326409Y-126276007D02*
X-13310015Y-126270494D01*
X-13310015Y-126270494D02*
X-13293813Y-126264445D01*
X-13293813Y-126264445D02*
X-13278072Y-126257986D01*
X-13278072Y-126257986D02*
X-13262533Y-126251052D01*
X-13262533Y-126251052D02*
X-13247194Y-126243679D01*
X-13247194Y-126243679D02*
X-13232398Y-126236067D01*
X-13232398Y-126236067D02*
X-13217833Y-126228027D01*
X-13217833Y-126228027D02*
X-13203541Y-126219521D01*
X-13203541Y-126219521D02*
X-13189696Y-126210620D01*
X-13189696Y-126210620D02*
X-13176140Y-126201278D01*
X-13176140Y-126201278D02*
X-13162855Y-126191549D01*
X-13162855Y-126191549D02*
X-13149985Y-126181598D01*
X-13149985Y-126181598D02*
X-13137399Y-126171295D01*
X-13137399Y-126171295D02*
X-13125135Y-126160611D01*
X-13125135Y-126160611D02*
X-13113287Y-126149577D01*
X-13113287Y-126149577D02*
X-13101832Y-126138135D01*
X-13101832Y-126138135D02*
X-13090806Y-126126282D01*
X-13090806Y-126126282D02*
X-13080370Y-126114186D01*
X-13080370Y-126114186D02*
X-13070351Y-126101737D01*
X-13070351Y-126101737D02*
X-13060716Y-126088987D01*
X-13060716Y-126088987D02*
X-13051429Y-126075966D01*
X-13051429Y-126075966D02*
X-13042519Y-126062688D01*
X-13042519Y-126062688D02*
X-13034015Y-126049148D01*
X-13034015Y-126049148D02*
X-13025913Y-126035283D01*
X-13025913Y-126035283D02*
X-13018276Y-126021153D01*
X-13018276Y-126021153D02*
X-13011129Y-126006767D01*
X-13011129Y-126006767D02*
X-13004462Y-125992033D01*
X-13004462Y-125992033D02*
X-12998370Y-125977055D01*
X-12998370Y-125977055D02*
X-12992905Y-125961842D01*
X-12992905Y-125961842D02*
X-12988077Y-125946331D01*
X-12988077Y-125946331D02*
X-12983863Y-125930636D01*
X-12983863Y-125930636D02*
X-12980191Y-125914799D01*
X-12980191Y-125914799D02*
X-12976934Y-125898459D01*
X-12976934Y-125898459D02*
X-12974215Y-125882026D01*
X-12974215Y-125882026D02*
X-12972078Y-125865515D01*
X-12972078Y-125865515D02*
X-12970566Y-125848936D01*
X-12970566Y-125848936D02*
X-12969724Y-125832302D01*
X-12969724Y-125832302D02*
X-12969596Y-125815627D01*
X-12969596Y-125815627D02*
X-13503601Y-126302589D01*
X-12969596Y-125261702D02*
X-12969718Y-125245446D01*
X-12969718Y-125245446D02*
X-12970561Y-125229234D01*
X-12970561Y-125229234D02*
X-12972077Y-125213078D01*
X-12972077Y-125213078D02*
X-12974219Y-125196991D01*
X-12974219Y-125196991D02*
X-12976939Y-125180985D01*
X-12976939Y-125180985D02*
X-12980191Y-125165073D01*
X-12980191Y-125165073D02*
X-12983882Y-125149521D01*
X-12983882Y-125149521D02*
X-12988101Y-125134110D01*
X-12988101Y-125134110D02*
X-12992905Y-125118877D01*
X-12992905Y-125118877D02*
X-12998403Y-125103679D01*
X-12998403Y-125103679D02*
X-13004498Y-125088704D01*
X-13004498Y-125088704D02*
X-13011129Y-125073953D01*
X-13011129Y-125073953D02*
X-13018258Y-125059415D01*
X-13018258Y-125059415D02*
X-13025881Y-125045135D01*
X-13025881Y-125045135D02*
X-13034015Y-125031148D01*
X-13034015Y-125031148D02*
X-13042494Y-125017735D01*
X-13042494Y-125017735D02*
X-13051416Y-125004606D01*
X-13051416Y-125004606D02*
X-13060716Y-124991733D01*
X-13060716Y-124991733D02*
X-13070345Y-124979109D01*
X-13070345Y-124979109D02*
X-13080353Y-124966792D01*
X-13080353Y-124966792D02*
X-13090806Y-124954861D01*
X-13090806Y-124954861D02*
X-13101833Y-124943289D01*
X-13101833Y-124943289D02*
X-13113302Y-124932144D01*
X-13113302Y-124932144D02*
X-13125135Y-124921380D01*
X-13125135Y-124921380D02*
X-13137413Y-124910842D01*
X-13137413Y-124910842D02*
X-13149986Y-124900665D01*
X-13149986Y-124900665D02*
X-13162855Y-124890865D01*
X-13162855Y-124890865D02*
X-13176123Y-124881389D01*
X-13176123Y-124881389D02*
X-13189687Y-124872339D01*
X-13189687Y-124872339D02*
X-13203541Y-124863741D01*
X-13203541Y-124863741D02*
X-13217845Y-124855517D01*
X-13217845Y-124855517D02*
X-13232406Y-124847755D01*
X-13232406Y-124847755D02*
X-13247194Y-124840431D01*
X-13247194Y-124840431D02*
X-13262546Y-124833360D01*
X-13262546Y-124833360D02*
X-13278090Y-124826721D01*
X-13278090Y-124826721D02*
X-13293813Y-124820512D01*
X-13293813Y-124820512D02*
X-13310032Y-124814629D01*
X-13310032Y-124814629D02*
X-13326421Y-124809245D01*
X-13326421Y-124809245D02*
X-13342976Y-124804407D01*
X-13342976Y-124804407D02*
X-13360084Y-124800055D01*
X-13360084Y-124800055D02*
X-13377329Y-124796262D01*
X-13377329Y-124796262D02*
X-13394681Y-124792964D01*
X-13394681Y-124792964D02*
X-13412693Y-124790025D01*
X-13412693Y-124790025D02*
X-13430774Y-124787585D01*
X-13430774Y-124787585D02*
X-13448916Y-124785685D01*
X-13448916Y-124785685D02*
X-13467107Y-124784366D01*
X-13467107Y-124784366D02*
X-13485339Y-124783671D01*
X-13485339Y-124783671D02*
X-13503601Y-124783640D01*
X-13503601Y-124783640D02*
X-12969596Y-125261702D01*
X-14858957Y-124783640D02*
X-14874498Y-124785210D01*
X-14874498Y-124785210D02*
X-14889378Y-124790137D01*
X-14889378Y-124790137D02*
X-14902610Y-124798474D01*
X-14902610Y-124798474D02*
X-14912615Y-124809380D01*
X-14912615Y-124809380D02*
X-14918979Y-124822624D01*
X-14918979Y-124822624D02*
X-14920410Y-124837465D01*
X-14920410Y-124837465D02*
X-14858957Y-124783640D01*
X-18926278Y-127392859D02*
X-16022826Y-127392859D01*
X-16022826Y-127392859D02*
X-18926278Y-127392859D01*
X-16016998Y-125824922D02*
X-18038849Y-125824922D01*
X-18038849Y-125824922D02*
X-16016998Y-125824922D01*
X-18035935Y-125061354D02*
X-15190771Y-125061354D01*
X-15190771Y-125061354D02*
X-18035935Y-125061354D01*
X-15190771Y-125061354D02*
X-15190771Y-124781573D01*
X-15190771Y-124781573D02*
X-15190771Y-125061354D01*
X-15190771Y-124781573D02*
X-18035935Y-124781573D01*
X-18035935Y-124781573D02*
X-15190771Y-124781573D01*
X-18057064Y-126136760D02*
X-16031570Y-126136760D01*
X-16031570Y-126136760D02*
X-18057064Y-126136760D01*
X-16032298Y-127113078D02*
X-18926278Y-127113078D01*
X-18926278Y-127113078D02*
X-16032298Y-127113078D01*
X-18926278Y-127113078D02*
X-18926278Y-127392859D01*
X-18926278Y-127392859D02*
X-18926278Y-127113078D01*
X-19241043Y-125873910D02*
X-20596399Y-125873910D01*
X-20596399Y-125873910D02*
X-19241043Y-125873910D01*
X-21130404Y-126351972D02*
X-21130404Y-126905897D01*
X-21130404Y-126905897D02*
X-21130404Y-126351972D01*
X-20596399Y-127392859D02*
X-19247400Y-127392859D01*
X-19247400Y-127392859D02*
X-20596399Y-127392859D01*
X-19185947Y-127340306D02*
X-19185947Y-127177137D01*
X-19185947Y-127177137D02*
X-19185947Y-127340306D01*
X-19247400Y-127121618D02*
X-20596399Y-127121618D01*
X-20596399Y-127121618D02*
X-19247400Y-127121618D01*
X-20832040Y-126908016D02*
X-20832040Y-126355786D01*
X-20832040Y-126355786D02*
X-20832040Y-126908016D01*
X-20596399Y-126145151D02*
X-19241043Y-126145151D01*
X-19241043Y-126145151D02*
X-20596399Y-126145151D01*
X-19179590Y-126091327D02*
X-19179590Y-125927735D01*
X-19179590Y-125927735D02*
X-19179590Y-126091327D01*
X-14920410Y-124837465D02*
X-14920410Y-125001057D01*
X-14920410Y-125001057D02*
X-14920410Y-124837465D01*
X-14858957Y-125054881D02*
X-13503601Y-125054881D01*
X-13503601Y-125054881D02*
X-14858957Y-125054881D01*
X-13267960Y-125265517D02*
X-13267960Y-125817746D01*
X-13267960Y-125817746D02*
X-13267960Y-125265517D01*
X-13503601Y-126031348D02*
X-14852600Y-126031348D01*
X-14852600Y-126031348D02*
X-13503601Y-126031348D01*
X-14914053Y-126086867D02*
X-14914053Y-126250036D01*
X-14914053Y-126250036D02*
X-14914053Y-126086867D01*
X-14852600Y-126302589D02*
X-13503601Y-126302589D01*
X-13503601Y-126302589D02*
X-14852600Y-126302589D01*
X-12969596Y-125815627D02*
X-12969596Y-125261702D01*
X-12969596Y-125261702D02*
X-12969596Y-125815627D01*
X-13503601Y-124783640D02*
X-14858957Y-124783640D01*
X-14858957Y-124783640D02*
X-13503601Y-124783640D01*
D10*
G36*
X-20692365Y-127364656D02*
X-20710677Y-127361249D01*
X-20728885Y-127357127D01*
X-20746962Y-127352311D01*
X-20764883Y-127346821D01*
X-20782622Y-127340677D01*
X-20800151Y-127333900D01*
X-20817444Y-127326510D01*
X-20834476Y-127318528D01*
X-20851219Y-127309973D01*
X-20867648Y-127300867D01*
X-20883736Y-127291229D01*
X-20899456Y-127281080D01*
X-20914782Y-127270440D01*
X-20929689Y-127259330D01*
X-20944149Y-127247769D01*
X-20958136Y-127235779D01*
X-20971624Y-127223379D01*
X-20984586Y-127210590D01*
X-20996997Y-127197433D01*
X-21008829Y-127183927D01*
X-21020057Y-127170093D01*
X-21030654Y-127155951D01*
X-21040593Y-127141522D01*
X-21049849Y-127126826D01*
X-21058395Y-127111883D01*
X-21066204Y-127096714D01*
X-21073251Y-127081339D01*
X-21079508Y-127065779D01*
X-21082741Y-127056960D01*
X-21085715Y-127048381D01*
X-21088443Y-127039875D01*
X-21090934Y-127031279D01*
X-21093199Y-127022425D01*
X-21095249Y-127013151D01*
X-21097094Y-127003290D01*
X-21098746Y-126992677D01*
X-21100213Y-126981148D01*
X-21101508Y-126968538D01*
X-21102641Y-126954681D01*
X-21103623Y-126939412D01*
X-21104463Y-126922567D01*
X-21105173Y-126903980D01*
X-21105763Y-126883486D01*
X-21106244Y-126860920D01*
X-21106627Y-126836118D01*
X-21106921Y-126808913D01*
X-21107138Y-126779142D01*
X-21107289Y-126746639D01*
X-21107383Y-126711238D01*
X-21107432Y-126672775D01*
X-21107446Y-126631086D01*
X-21107430Y-126590148D01*
X-21107377Y-126552296D01*
X-21107276Y-126517377D01*
X-21107120Y-126485239D01*
X-21106897Y-126455729D01*
X-21106599Y-126428695D01*
X-21106217Y-126403985D01*
X-21105741Y-126381446D01*
X-21105162Y-126360926D01*
X-21104470Y-126342273D01*
X-21103657Y-126325335D01*
X-21102712Y-126309959D01*
X-21101626Y-126295992D01*
X-21100391Y-126283283D01*
X-21098996Y-126271680D01*
X-21097432Y-126261029D01*
X-21095690Y-126251179D01*
X-21093761Y-126241977D01*
X-21091635Y-126233272D01*
X-21089302Y-126224910D01*
X-21086754Y-126216739D01*
X-21083982Y-126208608D01*
X-21080975Y-126200363D01*
X-21074545Y-126184149D01*
X-21067543Y-126168318D01*
X-21059972Y-126152874D01*
X-21051834Y-126137818D01*
X-21043134Y-126123155D01*
X-21033875Y-126108887D01*
X-21024060Y-126095017D01*
X-21013693Y-126081549D01*
X-21002777Y-126068485D01*
X-20991315Y-126055830D01*
X-20979312Y-126043585D01*
X-20966769Y-126031754D01*
X-20953692Y-126020339D01*
X-20940082Y-126009345D01*
X-20925944Y-125998775D01*
X-20911282Y-125988630D01*
X-20896097Y-125978915D01*
X-20880394Y-125969632D01*
X-20864177Y-125960785D01*
X-20847448Y-125952376D01*
X-20830211Y-125944409D01*
X-20812469Y-125936887D01*
X-20794226Y-125929813D01*
X-20775486Y-125923189D01*
X-20770110Y-125921392D01*
X-20764854Y-125919675D01*
X-20759666Y-125918036D01*
X-20754492Y-125916474D01*
X-20749278Y-125914987D01*
X-20743972Y-125913573D01*
X-20738520Y-125912231D01*
X-20732870Y-125910960D01*
X-20726966Y-125909758D01*
X-20720758Y-125908622D01*
X-20714190Y-125907553D01*
X-20707211Y-125906547D01*
X-20699766Y-125905605D01*
X-20691803Y-125904723D01*
X-20683267Y-125903901D01*
X-20674107Y-125903136D01*
X-20664268Y-125902428D01*
X-20653698Y-125901775D01*
X-20642343Y-125901175D01*
X-20630149Y-125900627D01*
X-20617064Y-125900128D01*
X-20603035Y-125899678D01*
X-20588007Y-125899276D01*
X-20571928Y-125898918D01*
X-20554745Y-125898605D01*
X-20536404Y-125898333D01*
X-20516852Y-125898103D01*
X-20496036Y-125897911D01*
X-20473902Y-125897757D01*
X-20450397Y-125897639D01*
X-20425469Y-125897556D01*
X-20399063Y-125897505D01*
X-20371126Y-125897486D01*
X-20341606Y-125897496D01*
X-20310449Y-125897535D01*
X-20277601Y-125897601D01*
X-20243009Y-125897691D01*
X-20206621Y-125897805D01*
X-20168383Y-125897941D01*
X-20128241Y-125898097D01*
X-20086142Y-125898272D01*
X-20042034Y-125898465D01*
X-19995862Y-125898673D01*
X-19947574Y-125898895D01*
X-19202037Y-125902349D01*
X-19202037Y-126009320D01*
X-19202037Y-126116290D01*
X-19937458Y-126122976D01*
X-19985213Y-126123407D01*
X-20030949Y-126123818D01*
X-20074712Y-126124212D01*
X-20116550Y-126124595D01*
X-20156512Y-126124970D01*
X-20194646Y-126125343D01*
X-20230999Y-126125718D01*
X-20265619Y-126126099D01*
X-20298554Y-126126492D01*
X-20329853Y-126126900D01*
X-20359562Y-126127329D01*
X-20387731Y-126127783D01*
X-20414406Y-126128266D01*
X-20439637Y-126128783D01*
X-20463470Y-126129339D01*
X-20485954Y-126129938D01*
X-20507136Y-126130585D01*
X-20527066Y-126131285D01*
X-20545789Y-126132041D01*
X-20563355Y-126132859D01*
X-20579812Y-126133744D01*
X-20595206Y-126134698D01*
X-20609587Y-126135729D01*
X-20623002Y-126136839D01*
X-20635499Y-126138034D01*
X-20647126Y-126139317D01*
X-20657931Y-126140695D01*
X-20667962Y-126142170D01*
X-20677267Y-126143749D01*
X-20685893Y-126145434D01*
X-20693889Y-126147232D01*
X-20701303Y-126149146D01*
X-20708182Y-126151182D01*
X-20714575Y-126153343D01*
X-20720529Y-126155635D01*
X-20726092Y-126158061D01*
X-20731312Y-126160627D01*
X-20736238Y-126163337D01*
X-20740916Y-126166195D01*
X-20745396Y-126169207D01*
X-20749724Y-126172376D01*
X-20753950Y-126175708D01*
X-20758120Y-126179207D01*
X-20762283Y-126182877D01*
X-20766486Y-126186724D01*
X-20770778Y-126190751D01*
X-20775207Y-126194963D01*
X-20779820Y-126199365D01*
X-20784665Y-126203962D01*
X-20792197Y-126211255D01*
X-20799164Y-126218467D01*
X-20805586Y-126225734D01*
X-20811485Y-126233190D01*
X-20816884Y-126240971D01*
X-20821805Y-126249214D01*
X-20826268Y-126258054D01*
X-20830296Y-126267626D01*
X-20833911Y-126278066D01*
X-20837135Y-126289511D01*
X-20839989Y-126302094D01*
X-20842496Y-126315953D01*
X-20844676Y-126331222D01*
X-20846552Y-126348037D01*
X-20848146Y-126366535D01*
X-20849480Y-126386850D01*
X-20850575Y-126409119D01*
X-20851453Y-126433476D01*
X-20852136Y-126460058D01*
X-20852646Y-126489001D01*
X-20853005Y-126520439D01*
X-20853234Y-126554508D01*
X-20853355Y-126591345D01*
X-20853391Y-126631085D01*
X-20853352Y-126669934D01*
X-20853221Y-126706043D01*
X-20852981Y-126739540D01*
X-20852611Y-126770551D01*
X-20852095Y-126799201D01*
X-20851412Y-126825618D01*
X-20850545Y-126849927D01*
X-20849474Y-126872256D01*
X-20848181Y-126892729D01*
X-20846647Y-126911475D01*
X-20844854Y-126928618D01*
X-20842782Y-126944285D01*
X-20840413Y-126958604D01*
X-20837728Y-126971699D01*
X-20834709Y-126983698D01*
X-20831337Y-126994726D01*
X-20827593Y-127004911D01*
X-20823458Y-127014378D01*
X-20818914Y-127023254D01*
X-20813942Y-127031665D01*
X-20808523Y-127039737D01*
X-20802639Y-127047598D01*
X-20796271Y-127055372D01*
X-20789399Y-127063187D01*
X-20785445Y-127067568D01*
X-20781651Y-127071760D01*
X-20777968Y-127075767D01*
X-20774343Y-127079594D01*
X-20770727Y-127083245D01*
X-20767067Y-127086725D01*
X-20763314Y-127090038D01*
X-20759416Y-127093190D01*
X-20755322Y-127096185D01*
X-20750981Y-127099027D01*
X-20746342Y-127101721D01*
X-20741354Y-127104272D01*
X-20735967Y-127106684D01*
X-20730128Y-127108963D01*
X-20723788Y-127111111D01*
X-20716895Y-127113135D01*
X-20709398Y-127115039D01*
X-20701247Y-127116828D01*
X-20692389Y-127118505D01*
X-20682775Y-127120076D01*
X-20672353Y-127121545D01*
X-20661073Y-127122918D01*
X-20648883Y-127124198D01*
X-20635731Y-127125390D01*
X-20621569Y-127126498D01*
X-20606343Y-127127529D01*
X-20590004Y-127128485D01*
X-20572500Y-127129372D01*
X-20553781Y-127130194D01*
X-20533795Y-127130956D01*
X-20512491Y-127131663D01*
X-20489819Y-127132318D01*
X-20465727Y-127132928D01*
X-20440165Y-127133496D01*
X-20413080Y-127134027D01*
X-20384424Y-127134525D01*
X-20354144Y-127134996D01*
X-20322189Y-127135443D01*
X-20288509Y-127135872D01*
X-20253052Y-127136288D01*
X-20215768Y-127136694D01*
X-20176605Y-127137095D01*
X-20135512Y-127137496D01*
X-20092440Y-127137902D01*
X-20047335Y-127138317D01*
X-20000149Y-127138746D01*
X-19950829Y-127139193D01*
X-19215408Y-127145881D01*
X-19211464Y-127251687D01*
X-19210667Y-127281554D01*
X-19210717Y-127306537D01*
X-19211647Y-127326930D01*
X-19213490Y-127343027D01*
X-19216280Y-127355122D01*
X-19220051Y-127363509D01*
X-19224836Y-127368484D01*
X-19226418Y-127369055D01*
X-19229310Y-127369608D01*
X-19233480Y-127370142D01*
X-19238892Y-127370658D01*
X-19245512Y-127371156D01*
X-19253308Y-127371635D01*
X-19262244Y-127372096D01*
X-19272286Y-127372539D01*
X-19283401Y-127372965D01*
X-19295554Y-127373372D01*
X-19308712Y-127373762D01*
X-19322840Y-127374134D01*
X-19337904Y-127374488D01*
X-19353871Y-127374825D01*
X-19370706Y-127375144D01*
X-19388376Y-127375446D01*
X-19406845Y-127375731D01*
X-19426081Y-127375999D01*
X-19446049Y-127376250D01*
X-19466715Y-127376483D01*
X-19488045Y-127376700D01*
X-19510006Y-127376900D01*
X-19532562Y-127377084D01*
X-19555681Y-127377250D01*
X-19579327Y-127377401D01*
X-19603467Y-127377535D01*
X-19628068Y-127377652D01*
X-19653094Y-127377753D01*
X-19678512Y-127377838D01*
X-19704287Y-127377907D01*
X-19730387Y-127377960D01*
X-19756776Y-127377997D01*
X-19783421Y-127378018D01*
X-19810288Y-127378024D01*
X-19837343Y-127378014D01*
X-19864551Y-127377988D01*
X-19891878Y-127377947D01*
X-19919292Y-127377890D01*
X-19946756Y-127377819D01*
X-19974239Y-127377732D01*
X-20001704Y-127377630D01*
X-20029119Y-127377513D01*
X-20056450Y-127377381D01*
X-20083662Y-127377234D01*
X-20110721Y-127377072D01*
X-20137594Y-127376896D01*
X-20164246Y-127376705D01*
X-20190643Y-127376500D01*
X-20216751Y-127376280D01*
X-20242537Y-127376046D01*
X-20267965Y-127375798D01*
X-20293003Y-127375535D01*
X-20317616Y-127375259D01*
X-20341770Y-127374969D01*
X-20365431Y-127374665D01*
X-20388565Y-127374347D01*
X-20411137Y-127374015D01*
X-20433115Y-127373670D01*
X-20454464Y-127373311D01*
X-20475149Y-127372939D01*
X-20495138Y-127372553D01*
X-20514395Y-127372155D01*
X-20532887Y-127371743D01*
X-20550580Y-127371318D01*
X-20567439Y-127370880D01*
X-20583431Y-127370429D01*
X-20598522Y-127369966D01*
X-20612677Y-127369489D01*
X-20625863Y-127369000D01*
X-20638045Y-127368499D01*
X-20649190Y-127367985D01*
X-20659263Y-127367459D01*
X-20668231Y-127366921D01*
X-20676059Y-127366370D01*
X-20682714Y-127365807D01*
X-20688161Y-127365232D01*
X-20692366Y-127364646D01*
X-20692365Y-127364656D01*
X-20692365Y-127364656D01*
G37*
G36*
X-18914554Y-127253655D02*
X-18914554Y-127126269D01*
X-17393282Y-127122719D01*
X-15872009Y-127119168D01*
X-15782912Y-127075302D01*
X-15766760Y-127066973D01*
X-15750922Y-127058053D01*
X-15735420Y-127048564D01*
X-15720274Y-127038528D01*
X-15705503Y-127027966D01*
X-15691129Y-127016899D01*
X-15677172Y-127005349D01*
X-15663651Y-126993337D01*
X-15650587Y-126980886D01*
X-15638001Y-126968016D01*
X-15625912Y-126954748D01*
X-15614341Y-126941105D01*
X-15603308Y-126927108D01*
X-15592834Y-126912778D01*
X-15582938Y-126898136D01*
X-15573641Y-126883205D01*
X-15564964Y-126868005D01*
X-15556925Y-126852559D01*
X-15549547Y-126836887D01*
X-15542848Y-126821011D01*
X-15536847Y-126805223D01*
X-15531623Y-126789879D01*
X-15527132Y-126774692D01*
X-15523329Y-126759375D01*
X-15520169Y-126743642D01*
X-15517607Y-126727204D01*
X-15515599Y-126709777D01*
X-15514100Y-126691072D01*
X-15513066Y-126670804D01*
X-15512452Y-126648685D01*
X-15512212Y-126624429D01*
X-15512255Y-126599217D01*
X-15512594Y-126577069D01*
X-15513329Y-126557486D01*
X-15514559Y-126539970D01*
X-15516385Y-126524023D01*
X-15518904Y-126509147D01*
X-15522217Y-126494844D01*
X-15526424Y-126480616D01*
X-15531623Y-126465965D01*
X-15537915Y-126450392D01*
X-15545398Y-126433400D01*
X-15554174Y-126414490D01*
X-15562607Y-126397362D01*
X-15571539Y-126380660D01*
X-15580963Y-126364391D01*
X-15590872Y-126348562D01*
X-15601260Y-126333180D01*
X-15612120Y-126318252D01*
X-15623445Y-126303785D01*
X-15635229Y-126289785D01*
X-15647464Y-126276259D01*
X-15660145Y-126263215D01*
X-15673264Y-126250659D01*
X-15686814Y-126238599D01*
X-15700790Y-126227040D01*
X-15715183Y-126215991D01*
X-15729988Y-126205457D01*
X-15745198Y-126195447D01*
X-15760806Y-126185966D01*
X-15776805Y-126177021D01*
X-15793189Y-126168621D01*
X-15872585Y-126129691D01*
X-17062630Y-126121681D01*
X-17100007Y-126121426D01*
X-17136770Y-126121170D01*
X-17172920Y-126120910D01*
X-17208461Y-126120649D01*
X-17243394Y-126120385D01*
X-17277723Y-126120119D01*
X-17311448Y-126119851D01*
X-17344574Y-126119580D01*
X-17377101Y-126119306D01*
X-17409033Y-126119030D01*
X-17440372Y-126118752D01*
X-17471120Y-126118470D01*
X-17501279Y-126118186D01*
X-17530852Y-126117900D01*
X-17559841Y-126117611D01*
X-17588249Y-126117318D01*
X-17616078Y-126117023D01*
X-17643331Y-126116725D01*
X-17670008Y-126116425D01*
X-17696114Y-126116121D01*
X-17721651Y-126115814D01*
X-17746620Y-126115504D01*
X-17771024Y-126115191D01*
X-17794866Y-126114875D01*
X-17818147Y-126114555D01*
X-17840871Y-126114233D01*
X-17863039Y-126113907D01*
X-17884654Y-126113577D01*
X-17905719Y-126113245D01*
X-17926235Y-126112909D01*
X-17946205Y-126112569D01*
X-17965631Y-126112226D01*
X-17984517Y-126111879D01*
X-18002863Y-126111529D01*
X-18020673Y-126111175D01*
X-18037948Y-126110818D01*
X-18054692Y-126110456D01*
X-18070906Y-126110091D01*
X-18086594Y-126109723D01*
X-18101756Y-126109350D01*
X-18116396Y-126108973D01*
X-18130516Y-126108592D01*
X-18144119Y-126108208D01*
X-18157206Y-126107819D01*
X-18169780Y-126107426D01*
X-18181843Y-126107030D01*
X-18193399Y-126106628D01*
X-18204448Y-126106223D01*
X-18214994Y-126105814D01*
X-18225039Y-126105400D01*
X-18234585Y-126104982D01*
X-18243635Y-126104559D01*
X-18252191Y-126104132D01*
X-18260255Y-126103700D01*
X-18267830Y-126103264D01*
X-18274917Y-126102824D01*
X-18281520Y-126102379D01*
X-18287641Y-126101929D01*
X-18293282Y-126101474D01*
X-18298446Y-126101015D01*
X-18303134Y-126100550D01*
X-18307350Y-126100081D01*
X-18311095Y-126099608D01*
X-18314372Y-126099129D01*
X-18317183Y-126098645D01*
X-18319532Y-126098156D01*
X-18340500Y-126093121D01*
X-18361091Y-126087836D01*
X-18381303Y-126082301D01*
X-18401137Y-126076516D01*
X-18420591Y-126070482D01*
X-18439667Y-126064199D01*
X-18458363Y-126057668D01*
X-18476679Y-126050889D01*
X-18494615Y-126043862D01*
X-18512171Y-126036588D01*
X-18529346Y-126029067D01*
X-18546140Y-126021299D01*
X-18562553Y-126013285D01*
X-18578584Y-126005026D01*
X-18594233Y-125996520D01*
X-18609500Y-125987770D01*
X-18624385Y-125978775D01*
X-18638886Y-125969536D01*
X-18653005Y-125960052D01*
X-18666740Y-125950325D01*
X-18680092Y-125940355D01*
X-18693060Y-125930141D01*
X-18705643Y-125919685D01*
X-18717842Y-125908987D01*
X-18729656Y-125898047D01*
X-18741084Y-125886866D01*
X-18752127Y-125875443D01*
X-18762785Y-125863780D01*
X-18773056Y-125851877D01*
X-18782941Y-125839733D01*
X-18792440Y-125827350D01*
X-18801551Y-125814728D01*
X-18810275Y-125801866D01*
X-18818612Y-125788766D01*
X-18826561Y-125775428D01*
X-18834121Y-125761853D01*
X-18841293Y-125748039D01*
X-18848077Y-125733989D01*
X-18854471Y-125719702D01*
X-18860476Y-125705179D01*
X-18866092Y-125690419D01*
X-18871317Y-125675425D01*
X-18876152Y-125660194D01*
X-18880597Y-125644729D01*
X-18884651Y-125629030D01*
X-18888313Y-125613096D01*
X-18891584Y-125596929D01*
X-18894464Y-125580528D01*
X-18896951Y-125563894D01*
X-18899047Y-125547028D01*
X-18900749Y-125529929D01*
X-18902059Y-125512599D01*
X-18902975Y-125495036D01*
X-18903498Y-125477243D01*
X-18903627Y-125459218D01*
X-18903362Y-125440964D01*
X-18902702Y-125422479D01*
X-18901648Y-125403764D01*
X-18900199Y-125384820D01*
X-18898439Y-125368051D01*
X-18896064Y-125351315D01*
X-18893086Y-125334624D01*
X-18889512Y-125317991D01*
X-18885354Y-125301429D01*
X-18880619Y-125284950D01*
X-18875320Y-125268568D01*
X-18869463Y-125252296D01*
X-18863061Y-125236145D01*
X-18856121Y-125220130D01*
X-18848655Y-125204262D01*
X-18840670Y-125188555D01*
X-18832178Y-125173022D01*
X-18823187Y-125157675D01*
X-18813708Y-125142526D01*
X-18803750Y-125127590D01*
X-18793322Y-125112879D01*
X-18782434Y-125098405D01*
X-18771097Y-125084182D01*
X-18759319Y-125070221D01*
X-18747110Y-125056537D01*
X-18734480Y-125043142D01*
X-18721439Y-125030048D01*
X-18707996Y-125017269D01*
X-18694161Y-125004817D01*
X-18679943Y-124992706D01*
X-18665352Y-124980947D01*
X-18650398Y-124969555D01*
X-18635090Y-124958541D01*
X-18619438Y-124947918D01*
X-18603452Y-124937700D01*
X-18587142Y-124927898D01*
X-18570516Y-124918527D01*
X-18553585Y-124909598D01*
X-18536358Y-124901126D01*
X-18530536Y-124898353D01*
X-18524867Y-124895636D01*
X-18519342Y-124892973D01*
X-18513950Y-124890364D01*
X-18508680Y-124887809D01*
X-18503521Y-124885307D01*
X-18498463Y-124882856D01*
X-18493496Y-124880458D01*
X-18488608Y-124878110D01*
X-18483790Y-124875814D01*
X-18479030Y-124873567D01*
X-18474318Y-124871369D01*
X-18469643Y-124869220D01*
X-18464996Y-124867120D01*
X-18460364Y-124865067D01*
X-18455738Y-124863061D01*
X-18451107Y-124861102D01*
X-18446460Y-124859189D01*
X-18441787Y-124857321D01*
X-18437077Y-124855497D01*
X-18432320Y-124853718D01*
X-18427505Y-124851983D01*
X-18422622Y-124850290D01*
X-18417659Y-124848640D01*
X-18412606Y-124847032D01*
X-18407453Y-124845465D01*
X-18402189Y-124843939D01*
X-18396804Y-124842453D01*
X-18391286Y-124841007D01*
X-18385625Y-124839599D01*
X-18379812Y-124838230D01*
X-18373834Y-124836899D01*
X-18367682Y-124835605D01*
X-18361344Y-124834348D01*
X-18354811Y-124833127D01*
X-18348072Y-124831941D01*
X-18341115Y-124830791D01*
X-18333931Y-124829674D01*
X-18326509Y-124828592D01*
X-18318839Y-124827543D01*
X-18310909Y-124826526D01*
X-18302709Y-124825541D01*
X-18294228Y-124824588D01*
X-18285457Y-124823666D01*
X-18276384Y-124822774D01*
X-18266998Y-124821912D01*
X-18257290Y-124821079D01*
X-18247248Y-124820275D01*
X-18236862Y-124819498D01*
X-18226122Y-124818750D01*
X-18215016Y-124818028D01*
X-18203534Y-124817332D01*
X-18191666Y-124816662D01*
X-18179401Y-124816017D01*
X-18166728Y-124815397D01*
X-18153637Y-124814800D01*
X-18140118Y-124814227D01*
X-18126158Y-124813677D01*
X-18111749Y-124813149D01*
X-18096879Y-124812643D01*
X-18081538Y-124812158D01*
X-18065715Y-124811693D01*
X-18049400Y-124811249D01*
X-18032582Y-124810823D01*
X-18015250Y-124810417D01*
X-17997394Y-124810029D01*
X-17979003Y-124809658D01*
X-17960067Y-124809304D01*
X-17940575Y-124808967D01*
X-17920516Y-124808646D01*
X-17899881Y-124808340D01*
X-17878657Y-124808049D01*
X-17856835Y-124807772D01*
X-17834404Y-124807508D01*
X-17811354Y-124807258D01*
X-17787673Y-124807020D01*
X-17763352Y-124806794D01*
X-17738379Y-124806579D01*
X-17712745Y-124806375D01*
X-17686438Y-124806181D01*
X-17659447Y-124805996D01*
X-17631763Y-124805821D01*
X-17603375Y-124805653D01*
X-17574272Y-124805494D01*
X-17544444Y-124805342D01*
X-17513879Y-124805197D01*
X-17482568Y-124805057D01*
X-17450499Y-124804923D01*
X-17417663Y-124804794D01*
X-17384048Y-124804670D01*
X-17349644Y-124804549D01*
X-17314440Y-124804431D01*
X-17278426Y-124804317D01*
X-17241591Y-124804204D01*
X-17203925Y-124804092D01*
X-17165417Y-124803982D01*
X-17126056Y-124803871D01*
X-17085832Y-124803761D01*
X-17044734Y-124803649D01*
X-17002751Y-124803537D01*
X-16959874Y-124803422D01*
X-16916091Y-124803304D01*
X-16871392Y-124803184D01*
X-16825766Y-124803060D01*
X-16779202Y-124802931D01*
X-16731691Y-124802797D01*
X-15210706Y-124798484D01*
X-15210706Y-124918820D01*
X-15210706Y-125039155D01*
X-16704948Y-125043344D01*
X-16755392Y-125043484D01*
X-16804728Y-125043621D01*
X-16852968Y-125043754D01*
X-16900125Y-125043884D01*
X-16946213Y-125044012D01*
X-16991245Y-125044138D01*
X-17035235Y-125044263D01*
X-17078195Y-125044387D01*
X-17120139Y-125044511D01*
X-17161080Y-125044635D01*
X-17201032Y-125044760D01*
X-17240007Y-125044887D01*
X-17278019Y-125045015D01*
X-17315081Y-125045146D01*
X-17351207Y-125045280D01*
X-17386410Y-125045418D01*
X-17420702Y-125045560D01*
X-17454097Y-125045706D01*
X-17486610Y-125045858D01*
X-17518251Y-125046016D01*
X-17549036Y-125046180D01*
X-17578977Y-125046350D01*
X-17608088Y-125046529D01*
X-17636381Y-125046715D01*
X-17663871Y-125046910D01*
X-17690569Y-125047114D01*
X-17716491Y-125047327D01*
X-17741648Y-125047551D01*
X-17766054Y-125047785D01*
X-17789723Y-125048030D01*
X-17812667Y-125048288D01*
X-17834900Y-125048558D01*
X-17856435Y-125048840D01*
X-17877286Y-125049136D01*
X-17897465Y-125049446D01*
X-17916986Y-125049771D01*
X-17935863Y-125050110D01*
X-17954107Y-125050465D01*
X-17971734Y-125050837D01*
X-17988755Y-125051225D01*
X-18005185Y-125051630D01*
X-18021036Y-125052053D01*
X-18036322Y-125052495D01*
X-18051056Y-125052955D01*
X-18065252Y-125053435D01*
X-18078922Y-125053934D01*
X-18092079Y-125054455D01*
X-18104738Y-125054996D01*
X-18116911Y-125055559D01*
X-18128612Y-125056144D01*
X-18139853Y-125056752D01*
X-18150649Y-125057383D01*
X-18161012Y-125058038D01*
X-18170955Y-125058717D01*
X-18180493Y-125059421D01*
X-18189637Y-125060150D01*
X-18198402Y-125060906D01*
X-18206801Y-125061687D01*
X-18214847Y-125062496D01*
X-18222552Y-125063333D01*
X-18229932Y-125064198D01*
X-18236998Y-125065091D01*
X-18243764Y-125066014D01*
X-18250243Y-125066966D01*
X-18256449Y-125067949D01*
X-18262394Y-125068963D01*
X-18268093Y-125070008D01*
X-18273558Y-125071085D01*
X-18278802Y-125072195D01*
X-18283840Y-125073337D01*
X-18288683Y-125074514D01*
X-18293346Y-125075724D01*
X-18297841Y-125076969D01*
X-18302182Y-125078249D01*
X-18306382Y-125079565D01*
X-18310455Y-125080918D01*
X-18314413Y-125082307D01*
X-18318270Y-125083734D01*
X-18322040Y-125085199D01*
X-18325734Y-125086702D01*
X-18329368Y-125088244D01*
X-18332953Y-125089826D01*
X-18336504Y-125091448D01*
X-18340033Y-125093111D01*
X-18343554Y-125094815D01*
X-18347080Y-125096560D01*
X-18350624Y-125098348D01*
X-18354200Y-125100179D01*
X-18357820Y-125102054D01*
X-18361499Y-125103972D01*
X-18365248Y-125105935D01*
X-18369083Y-125107943D01*
X-18373015Y-125109996D01*
X-18377058Y-125112096D01*
X-18391775Y-125120425D01*
X-18406630Y-125130200D01*
X-18421488Y-125141266D01*
X-18436211Y-125153466D01*
X-18450660Y-125166645D01*
X-18464700Y-125180645D01*
X-18478191Y-125195313D01*
X-18490998Y-125210490D01*
X-18502982Y-125226023D01*
X-18514006Y-125241754D01*
X-18523932Y-125257527D01*
X-18532624Y-125273187D01*
X-18539943Y-125288578D01*
X-18545753Y-125303543D01*
X-18550991Y-125320385D01*
X-18555481Y-125337891D01*
X-18559225Y-125355956D01*
X-18562229Y-125374475D01*
X-18564495Y-125393340D01*
X-18566028Y-125412448D01*
X-18566829Y-125431691D01*
X-18566904Y-125450964D01*
X-18566256Y-125470161D01*
X-18564888Y-125489176D01*
X-18562804Y-125507904D01*
X-18560007Y-125526239D01*
X-18556502Y-125544074D01*
X-18552290Y-125561305D01*
X-18547377Y-125577825D01*
X-18541766Y-125593528D01*
X-18535460Y-125608309D01*
X-18527569Y-125623945D01*
X-18518504Y-125639554D01*
X-18508363Y-125655036D01*
X-18497245Y-125670286D01*
X-18485249Y-125685204D01*
X-18472473Y-125699688D01*
X-18459016Y-125713634D01*
X-18444977Y-125726941D01*
X-18430454Y-125739507D01*
X-18415545Y-125751229D01*
X-18400350Y-125762006D01*
X-18384966Y-125771735D01*
X-18369493Y-125780314D01*
X-18365145Y-125782550D01*
X-18360897Y-125784723D01*
X-18356728Y-125786834D01*
X-18352615Y-125788885D01*
X-18348536Y-125790876D01*
X-18344468Y-125792808D01*
X-18340389Y-125794683D01*
X-18336276Y-125796501D01*
X-18332106Y-125798264D01*
X-18327859Y-125799972D01*
X-18323510Y-125801627D01*
X-18319038Y-125803229D01*
X-18314420Y-125804780D01*
X-18309633Y-125806281D01*
X-18304656Y-125807732D01*
X-18299466Y-125809135D01*
X-18294040Y-125810490D01*
X-18288356Y-125811800D01*
X-18282392Y-125813064D01*
X-18276125Y-125814285D01*
X-18269532Y-125815462D01*
X-18262592Y-125816597D01*
X-18255281Y-125817691D01*
X-18247577Y-125818745D01*
X-18239459Y-125819760D01*
X-18230903Y-125820738D01*
X-18221887Y-125821678D01*
X-18212388Y-125822583D01*
X-18202385Y-125823453D01*
X-18191854Y-125824289D01*
X-18180774Y-125825092D01*
X-18169122Y-125825864D01*
X-18156874Y-125826605D01*
X-18144010Y-125827317D01*
X-18130507Y-125828000D01*
X-18116341Y-125828656D01*
X-18101491Y-125829285D01*
X-18085934Y-125829888D01*
X-18069648Y-125830468D01*
X-18052611Y-125831024D01*
X-18034799Y-125831557D01*
X-18016191Y-125832070D01*
X-17996764Y-125832562D01*
X-17976495Y-125833035D01*
X-17955362Y-125833489D01*
X-17933344Y-125833927D01*
X-17910416Y-125834348D01*
X-17886557Y-125834755D01*
X-17861745Y-125835147D01*
X-17835957Y-125835527D01*
X-17809170Y-125835894D01*
X-17781362Y-125836251D01*
X-17752511Y-125836598D01*
X-17722594Y-125836936D01*
X-17691589Y-125837266D01*
X-17659474Y-125837590D01*
X-17626225Y-125837908D01*
X-17591820Y-125838221D01*
X-17556238Y-125838530D01*
X-17519455Y-125838837D01*
X-17481450Y-125839142D01*
X-17442199Y-125839447D01*
X-17401681Y-125839753D01*
X-17359872Y-125840060D01*
X-17316750Y-125840369D01*
X-17272294Y-125840683D01*
X-17226480Y-125841000D01*
X-17179287Y-125841324D01*
X-17130691Y-125841654D01*
X-17080670Y-125841993D01*
X-17029202Y-125842340D01*
X-16982187Y-125842658D01*
X-16936388Y-125842972D01*
X-16891788Y-125843282D01*
X-16848371Y-125843587D01*
X-16806119Y-125843890D01*
X-16765015Y-125844189D01*
X-16725044Y-125844485D01*
X-16686187Y-125844780D01*
X-16648428Y-125845072D01*
X-16611750Y-125845363D01*
X-16576136Y-125845653D01*
X-16541570Y-125845943D01*
X-16508034Y-125846232D01*
X-16475511Y-125846521D01*
X-16443985Y-125846811D01*
X-16413438Y-125847102D01*
X-16383855Y-125847394D01*
X-16355217Y-125847688D01*
X-16327508Y-125847985D01*
X-16300711Y-125848283D01*
X-16274810Y-125848585D01*
X-16249787Y-125848891D01*
X-16225625Y-125849200D01*
X-16202308Y-125849513D01*
X-16179818Y-125849831D01*
X-16158139Y-125850154D01*
X-16137254Y-125850482D01*
X-16117147Y-125850816D01*
X-16097799Y-125851157D01*
X-16079194Y-125851504D01*
X-16061316Y-125851858D01*
X-16044147Y-125852219D01*
X-16027671Y-125852589D01*
X-16011870Y-125852966D01*
X-15996728Y-125853352D01*
X-15982228Y-125853748D01*
X-15968353Y-125854153D01*
X-15955086Y-125854567D01*
X-15942410Y-125854992D01*
X-15930308Y-125855428D01*
X-15918764Y-125855874D01*
X-15907760Y-125856332D01*
X-15897280Y-125856803D01*
X-15887307Y-125857285D01*
X-15877823Y-125857780D01*
X-15868813Y-125858288D01*
X-15860258Y-125858809D01*
X-15852143Y-125859345D01*
X-15844450Y-125859895D01*
X-15837162Y-125860459D01*
X-15830263Y-125861039D01*
X-15823735Y-125861634D01*
X-15817563Y-125862245D01*
X-15811728Y-125862872D01*
X-15806214Y-125863516D01*
X-15801003Y-125864178D01*
X-15796081Y-125864856D01*
X-15791428Y-125865553D01*
X-15787029Y-125866268D01*
X-15782866Y-125867002D01*
X-15778923Y-125867755D01*
X-15775182Y-125868527D01*
X-15771627Y-125869320D01*
X-15768242Y-125870133D01*
X-15765008Y-125870966D01*
X-15761909Y-125871821D01*
X-15758929Y-125872697D01*
X-15740245Y-125878559D01*
X-15721799Y-125884745D01*
X-15703594Y-125891251D01*
X-15685633Y-125898072D01*
X-15667920Y-125905205D01*
X-15650457Y-125912645D01*
X-15633249Y-125920388D01*
X-15616298Y-125928430D01*
X-15599608Y-125936767D01*
X-15583182Y-125945394D01*
X-15567024Y-125954308D01*
X-15551137Y-125963505D01*
X-15535524Y-125972979D01*
X-15520189Y-125982728D01*
X-15505135Y-125992747D01*
X-15490364Y-126003031D01*
X-15475882Y-126013578D01*
X-15461690Y-126024381D01*
X-15447793Y-126035439D01*
X-15434193Y-126046745D01*
X-15420895Y-126058297D01*
X-15407900Y-126070089D01*
X-15395213Y-126082118D01*
X-15382838Y-126094380D01*
X-15370776Y-126106871D01*
X-15359032Y-126119586D01*
X-15347609Y-126132521D01*
X-15336511Y-126145672D01*
X-15325740Y-126159035D01*
X-15315300Y-126172606D01*
X-15305195Y-126186381D01*
X-15295427Y-126200355D01*
X-15286000Y-126214525D01*
X-15276918Y-126228886D01*
X-15268183Y-126243434D01*
X-15259800Y-126258165D01*
X-15251771Y-126273075D01*
X-15244099Y-126288159D01*
X-15236789Y-126303414D01*
X-15229843Y-126318836D01*
X-15223265Y-126334419D01*
X-15217057Y-126350161D01*
X-15211225Y-126366057D01*
X-15205770Y-126382102D01*
X-15200696Y-126398293D01*
X-15196006Y-126414626D01*
X-15191705Y-126431096D01*
X-15187794Y-126447700D01*
X-15184278Y-126464432D01*
X-15181160Y-126481290D01*
X-15178443Y-126498268D01*
X-15176130Y-126515363D01*
X-15174225Y-126532570D01*
X-15172732Y-126549886D01*
X-15171652Y-126567306D01*
X-15170991Y-126584827D01*
X-15170751Y-126602443D01*
X-15170954Y-126621137D01*
X-15171625Y-126639757D01*
X-15172760Y-126658298D01*
X-15174359Y-126676755D01*
X-15176419Y-126695123D01*
X-15178939Y-126713396D01*
X-15181916Y-126731570D01*
X-15185349Y-126749640D01*
X-15189236Y-126767600D01*
X-15193576Y-126785446D01*
X-15198365Y-126803173D01*
X-15203603Y-126820775D01*
X-15209288Y-126838247D01*
X-15215417Y-126855585D01*
X-15221989Y-126872783D01*
X-15229002Y-126889836D01*
X-15236454Y-126906739D01*
X-15244343Y-126923488D01*
X-15252668Y-126940077D01*
X-15261426Y-126956501D01*
X-15270616Y-126972755D01*
X-15280236Y-126988834D01*
X-15290283Y-127004732D01*
X-15300757Y-127020446D01*
X-15311654Y-127035970D01*
X-15322974Y-127051298D01*
X-15334715Y-127066426D01*
X-15346874Y-127081349D01*
X-15359780Y-127096537D01*
X-15372570Y-127111023D01*
X-15385299Y-127124848D01*
X-15398020Y-127138053D01*
X-15410786Y-127150681D01*
X-15423651Y-127162771D01*
X-15436668Y-127174366D01*
X-15449890Y-127185506D01*
X-15463371Y-127196233D01*
X-15477164Y-127206588D01*
X-15491323Y-127216613D01*
X-15505901Y-127226348D01*
X-15520951Y-127235836D01*
X-15536527Y-127245117D01*
X-15552683Y-127254232D01*
X-15569471Y-127263224D01*
X-15586945Y-127272132D01*
X-15605159Y-127280999D01*
X-15610803Y-127283700D01*
X-15616288Y-127286347D01*
X-15621623Y-127288940D01*
X-15626821Y-127291481D01*
X-15631890Y-127293970D01*
X-15636841Y-127296408D01*
X-15641686Y-127298794D01*
X-15646434Y-127301130D01*
X-15651096Y-127303416D01*
X-15655682Y-127305653D01*
X-15660203Y-127307841D01*
X-15664670Y-127309981D01*
X-15669092Y-127312074D01*
X-15673481Y-127314119D01*
X-15677847Y-127316118D01*
X-15682200Y-127318070D01*
X-15686551Y-127319978D01*
X-15690911Y-127321841D01*
X-15695289Y-127323659D01*
X-15699697Y-127325434D01*
X-15704144Y-127327166D01*
X-15708642Y-127328855D01*
X-15713200Y-127330502D01*
X-15717830Y-127332108D01*
X-15722542Y-127333673D01*
X-15727346Y-127335198D01*
X-15732253Y-127336683D01*
X-15737273Y-127338129D01*
X-15742416Y-127339536D01*
X-15747694Y-127340905D01*
X-15753117Y-127342237D01*
X-15758695Y-127343532D01*
X-15764439Y-127344790D01*
X-15770359Y-127346013D01*
X-15776465Y-127347201D01*
X-15782769Y-127348354D01*
X-15789281Y-127349473D01*
X-15796010Y-127350558D01*
X-15802969Y-127351610D01*
X-15810166Y-127352630D01*
X-15817613Y-127353618D01*
X-15825320Y-127354575D01*
X-15833298Y-127355501D01*
X-15841557Y-127356397D01*
X-15850108Y-127357264D01*
X-15858961Y-127358101D01*
X-15868126Y-127358910D01*
X-15877615Y-127359691D01*
X-15887437Y-127360445D01*
X-15897603Y-127361172D01*
X-15908124Y-127361873D01*
X-15919009Y-127362548D01*
X-15930271Y-127363198D01*
X-15941918Y-127363824D01*
X-15953962Y-127364426D01*
X-15966413Y-127365004D01*
X-15979281Y-127365559D01*
X-15992578Y-127366093D01*
X-16006313Y-127366604D01*
X-16020496Y-127367095D01*
X-16035140Y-127367565D01*
X-16050253Y-127368014D01*
X-16065847Y-127368445D01*
X-16081932Y-127368856D01*
X-16098518Y-127369250D01*
X-16115616Y-127369625D01*
X-16133237Y-127369984D01*
X-16151390Y-127370325D01*
X-16170087Y-127370651D01*
X-16189338Y-127370961D01*
X-16209153Y-127371257D01*
X-16229543Y-127371537D01*
X-16250518Y-127371805D01*
X-16272089Y-127372058D01*
X-16294267Y-127372300D01*
X-16317061Y-127372529D01*
X-16340483Y-127372746D01*
X-16364543Y-127372953D01*
X-16389251Y-127373149D01*
X-16414617Y-127373335D01*
X-16440654Y-127373512D01*
X-16467369Y-127373681D01*
X-16494775Y-127373841D01*
X-16522882Y-127373993D01*
X-16551700Y-127374139D01*
X-16581240Y-127374278D01*
X-16611513Y-127374411D01*
X-16642527Y-127374539D01*
X-16674296Y-127374662D01*
X-16706827Y-127374781D01*
X-16740133Y-127374896D01*
X-16774224Y-127375008D01*
X-16809110Y-127375117D01*
X-16844802Y-127375225D01*
X-16881310Y-127375331D01*
X-16918644Y-127375436D01*
X-16956816Y-127375541D01*
X-16995835Y-127375646D01*
X-17035712Y-127375753D01*
X-17076458Y-127375860D01*
X-17118084Y-127375970D01*
X-17160598Y-127376082D01*
X-17204013Y-127376197D01*
X-17248339Y-127376316D01*
X-17293585Y-127376439D01*
X-17339764Y-127376567D01*
X-17386884Y-127376700D01*
X-18914554Y-127381066D01*
X-18914554Y-127253680D01*
X-18914554Y-127253655D01*
X-18914554Y-127253655D01*
G37*
G36*
X-14880460Y-126274938D02*
X-14882594Y-126270043D01*
X-14884556Y-126260220D01*
X-14886290Y-126246164D01*
X-14887737Y-126228570D01*
X-14888842Y-126208132D01*
X-14889547Y-126185545D01*
X-14889795Y-126161503D01*
X-14889795Y-126057402D01*
X-14164402Y-126053420D01*
X-14116699Y-126053160D01*
X-14070984Y-126052910D01*
X-14027209Y-126052666D01*
X-13985329Y-126052424D01*
X-13945298Y-126052179D01*
X-13907068Y-126051926D01*
X-13870594Y-126051660D01*
X-13835829Y-126051378D01*
X-13802727Y-126051073D01*
X-13771241Y-126050742D01*
X-13741325Y-126050380D01*
X-13712933Y-126049983D01*
X-13686019Y-126049545D01*
X-13660535Y-126049061D01*
X-13636437Y-126048528D01*
X-13613676Y-126047941D01*
X-13592207Y-126047294D01*
X-13571984Y-126046584D01*
X-13552960Y-126045805D01*
X-13535089Y-126044953D01*
X-13518324Y-126044024D01*
X-13502619Y-126043012D01*
X-13487929Y-126041913D01*
X-13474205Y-126040722D01*
X-13461402Y-126039435D01*
X-13449474Y-126038047D01*
X-13438375Y-126036553D01*
X-13428057Y-126034949D01*
X-13418474Y-126033230D01*
X-13409581Y-126031391D01*
X-13401331Y-126029428D01*
X-13393677Y-126027336D01*
X-13386573Y-126025110D01*
X-13379973Y-126022745D01*
X-13373830Y-126020238D01*
X-13368098Y-126017583D01*
X-13362731Y-126014776D01*
X-13357682Y-126011812D01*
X-13352904Y-126008686D01*
X-13348353Y-126005394D01*
X-13343980Y-126001931D01*
X-13339740Y-125998292D01*
X-13335587Y-125994473D01*
X-13331474Y-125990469D01*
X-13327354Y-125986276D01*
X-13323182Y-125981888D01*
X-13318911Y-125977301D01*
X-13314494Y-125972511D01*
X-13309885Y-125967512D01*
X-13303172Y-125959971D01*
X-13296929Y-125952312D01*
X-13291138Y-125944428D01*
X-13285785Y-125936210D01*
X-13280853Y-125927549D01*
X-13276326Y-125918337D01*
X-13272188Y-125908466D01*
X-13268422Y-125897827D01*
X-13265014Y-125886311D01*
X-13261946Y-125873811D01*
X-13259203Y-125860217D01*
X-13256769Y-125845421D01*
X-13254628Y-125829315D01*
X-13252763Y-125811790D01*
X-13251158Y-125792738D01*
X-13249798Y-125772050D01*
X-13248666Y-125749617D01*
X-13247746Y-125725333D01*
X-13247023Y-125699086D01*
X-13246480Y-125670771D01*
X-13246101Y-125640277D01*
X-13245870Y-125607496D01*
X-13245771Y-125572321D01*
X-13245787Y-125534641D01*
X-13245908Y-125498110D01*
X-13246150Y-125463750D01*
X-13246537Y-125431480D01*
X-13247095Y-125401221D01*
X-13247845Y-125372894D01*
X-13248813Y-125346418D01*
X-13250021Y-125321714D01*
X-13251493Y-125298702D01*
X-13253254Y-125277302D01*
X-13255326Y-125257435D01*
X-13257734Y-125239020D01*
X-13260502Y-125221979D01*
X-13263652Y-125206230D01*
X-13267210Y-125191696D01*
X-13271197Y-125178295D01*
X-13275639Y-125165947D01*
X-13280560Y-125154574D01*
X-13285981Y-125144096D01*
X-13291929Y-125134432D01*
X-13298425Y-125125503D01*
X-13305495Y-125117229D01*
X-13313161Y-125109530D01*
X-13321448Y-125102328D01*
X-13330378Y-125095541D01*
X-13339977Y-125089090D01*
X-13350267Y-125082895D01*
X-13361273Y-125076877D01*
X-13373017Y-125070956D01*
X-13385525Y-125065052D01*
X-13389181Y-125063417D01*
X-13392905Y-125061856D01*
X-13396748Y-125060367D01*
X-13400764Y-125058949D01*
X-13405005Y-125057599D01*
X-13409525Y-125056315D01*
X-13414378Y-125055097D01*
X-13419614Y-125053942D01*
X-13425289Y-125052849D01*
X-13431454Y-125051816D01*
X-13438163Y-125050841D01*
X-13445468Y-125049923D01*
X-13453423Y-125049059D01*
X-13462081Y-125048249D01*
X-13471494Y-125047490D01*
X-13481716Y-125046781D01*
X-13492800Y-125046120D01*
X-13504798Y-125045505D01*
X-13517763Y-125044934D01*
X-13531749Y-125044407D01*
X-13546809Y-125043920D01*
X-13562995Y-125043473D01*
X-13580361Y-125043064D01*
X-13598959Y-125042691D01*
X-13618843Y-125042352D01*
X-13640065Y-125042046D01*
X-13662678Y-125041770D01*
X-13686736Y-125041524D01*
X-13712292Y-125041305D01*
X-13739398Y-125041112D01*
X-13768107Y-125040943D01*
X-13798472Y-125040796D01*
X-13830547Y-125040670D01*
X-13864385Y-125040563D01*
X-13900037Y-125040473D01*
X-13937558Y-125040398D01*
X-13977001Y-125040337D01*
X-14018417Y-125040288D01*
X-14061861Y-125040250D01*
X-14107385Y-125040220D01*
X-14155043Y-125040197D01*
X-14195783Y-125040171D01*
X-14235132Y-125040130D01*
X-14273110Y-125040073D01*
X-14309734Y-125039999D01*
X-14345024Y-125039909D01*
X-14378999Y-125039802D01*
X-14411678Y-125039678D01*
X-14443080Y-125039535D01*
X-14473224Y-125039374D01*
X-14502129Y-125039194D01*
X-14529815Y-125038995D01*
X-14556300Y-125038776D01*
X-14581603Y-125038538D01*
X-14605744Y-125038278D01*
X-14628741Y-125037998D01*
X-14650613Y-125037696D01*
X-14671380Y-125037373D01*
X-14691061Y-125037027D01*
X-14709674Y-125036658D01*
X-14727239Y-125036267D01*
X-14743775Y-125035852D01*
X-14759300Y-125035412D01*
X-14773834Y-125034949D01*
X-14787396Y-125034460D01*
X-14800005Y-125033946D01*
X-14811680Y-125033407D01*
X-14822440Y-125032841D01*
X-14832303Y-125032249D01*
X-14841290Y-125031630D01*
X-14849420Y-125030983D01*
X-14856710Y-125030309D01*
X-14863180Y-125029606D01*
X-14868850Y-125028875D01*
X-14873738Y-125028114D01*
X-14877864Y-125027324D01*
X-14881246Y-125026503D01*
X-14883903Y-125025653D01*
X-14885855Y-125024771D01*
X-14887121Y-125023858D01*
X-14891964Y-125015718D01*
X-14895926Y-125002536D01*
X-14899008Y-124985322D01*
X-14901210Y-124965082D01*
X-14902531Y-124942826D01*
X-14902971Y-124919562D01*
X-14902531Y-124896298D01*
X-14901210Y-124874042D01*
X-14899008Y-124853802D01*
X-14895926Y-124836588D01*
X-14891964Y-124823406D01*
X-14887121Y-124815266D01*
X-14885649Y-124814448D01*
X-14882911Y-124813650D01*
X-14878939Y-124812872D01*
X-14873764Y-124812113D01*
X-14867419Y-124811375D01*
X-14859935Y-124810657D01*
X-14851345Y-124809959D01*
X-14841679Y-124809280D01*
X-14830970Y-124808622D01*
X-14819250Y-124807984D01*
X-14806551Y-124807366D01*
X-14792904Y-124806769D01*
X-14778341Y-124806191D01*
X-14762895Y-124805634D01*
X-14746596Y-124805097D01*
X-14729478Y-124804580D01*
X-14711571Y-124804084D01*
X-14692908Y-124803608D01*
X-14673520Y-124803152D01*
X-14653440Y-124802716D01*
X-14632699Y-124802301D01*
X-14611329Y-124801907D01*
X-14589362Y-124801532D01*
X-14566830Y-124801179D01*
X-14543765Y-124800845D01*
X-14520198Y-124800533D01*
X-14496162Y-124800241D01*
X-14471688Y-124799969D01*
X-14446808Y-124799718D01*
X-14421554Y-124799488D01*
X-14395958Y-124799278D01*
X-14370051Y-124799089D01*
X-14343867Y-124798921D01*
X-14317435Y-124798774D01*
X-14290789Y-124798647D01*
X-14263961Y-124798541D01*
X-14236981Y-124798456D01*
X-14209882Y-124798392D01*
X-14182696Y-124798348D01*
X-14155455Y-124798326D01*
X-14128190Y-124798324D01*
X-14100933Y-124798344D01*
X-14073717Y-124798384D01*
X-14046573Y-124798445D01*
X-14019533Y-124798528D01*
X-13992628Y-124798631D01*
X-13965891Y-124798756D01*
X-13939354Y-124798901D01*
X-13913049Y-124799068D01*
X-13887006Y-124799256D01*
X-13861259Y-124799465D01*
X-13835838Y-124799695D01*
X-13810777Y-124799947D01*
X-13786106Y-124800220D01*
X-13761858Y-124800514D01*
X-13738064Y-124800829D01*
X-13714757Y-124801166D01*
X-13691968Y-124801524D01*
X-13669729Y-124801904D01*
X-13648072Y-124802305D01*
X-13627028Y-124802727D01*
X-13606630Y-124803171D01*
X-13586910Y-124803636D01*
X-13567899Y-124804123D01*
X-13549629Y-124804632D01*
X-13532133Y-124805162D01*
X-13515441Y-124805713D01*
X-13499586Y-124806287D01*
X-13484600Y-124806882D01*
X-13470514Y-124807498D01*
X-13457361Y-124808137D01*
X-13445172Y-124808797D01*
X-13433979Y-124809479D01*
X-13423814Y-124810182D01*
X-13414710Y-124810908D01*
X-13406696Y-124811655D01*
X-13399807Y-124812424D01*
X-13394072Y-124813215D01*
X-13389526Y-124814028D01*
X-13371279Y-124818174D01*
X-13353230Y-124822939D01*
X-13335395Y-124828309D01*
X-13317793Y-124834271D01*
X-13300442Y-124840812D01*
X-13283358Y-124847920D01*
X-13266561Y-124855581D01*
X-13250067Y-124863782D01*
X-13233895Y-124872511D01*
X-13218062Y-124881755D01*
X-13202587Y-124891500D01*
X-13187486Y-124901733D01*
X-13172778Y-124912442D01*
X-13158481Y-124923614D01*
X-13144612Y-124935235D01*
X-13131189Y-124947294D01*
X-13118231Y-124959775D01*
X-13105754Y-124972668D01*
X-13093777Y-124985959D01*
X-13082317Y-124999634D01*
X-13071392Y-125013681D01*
X-13061021Y-125028087D01*
X-13051220Y-125042839D01*
X-13042008Y-125057925D01*
X-13033402Y-125073330D01*
X-12997757Y-125140186D01*
X-12997757Y-125541325D01*
X-12997757Y-125942464D01*
X-13037303Y-126013858D01*
X-13046005Y-126028745D01*
X-13055611Y-126043659D01*
X-13066059Y-126058545D01*
X-13077284Y-126073343D01*
X-13089221Y-126087997D01*
X-13101808Y-126102449D01*
X-13114979Y-126116640D01*
X-13128671Y-126130515D01*
X-13142819Y-126144014D01*
X-13157360Y-126157081D01*
X-13172229Y-126169658D01*
X-13187363Y-126181687D01*
X-13202696Y-126193111D01*
X-13218166Y-126203872D01*
X-13233708Y-126213912D01*
X-13249258Y-126223175D01*
X-13264751Y-126231601D01*
X-13280124Y-126239134D01*
X-13295313Y-126245717D01*
X-13300439Y-126247783D01*
X-13305388Y-126249755D01*
X-13310217Y-126251637D01*
X-13314985Y-126253430D01*
X-13319749Y-126255137D01*
X-13324568Y-126256760D01*
X-13329499Y-126258301D01*
X-13334601Y-126259764D01*
X-13339932Y-126261150D01*
X-13345550Y-126262462D01*
X-13351512Y-126263703D01*
X-13357878Y-126264875D01*
X-13364704Y-126265980D01*
X-13372049Y-126267021D01*
X-13379972Y-126268000D01*
X-13388529Y-126268919D01*
X-13397779Y-126269782D01*
X-13407781Y-126270591D01*
X-13418592Y-126271347D01*
X-13430270Y-126272054D01*
X-13442873Y-126272714D01*
X-13456460Y-126273329D01*
X-13471088Y-126273902D01*
X-13486815Y-126274435D01*
X-13503700Y-126274931D01*
X-13521801Y-126275392D01*
X-13541175Y-126275820D01*
X-13561881Y-126276219D01*
X-13583976Y-126276589D01*
X-13607519Y-126276935D01*
X-13632568Y-126277258D01*
X-13659181Y-126277561D01*
X-13687415Y-126277847D01*
X-13717330Y-126278116D01*
X-13748982Y-126278373D01*
X-13782431Y-126278620D01*
X-13817733Y-126278859D01*
X-13854947Y-126279092D01*
X-13894132Y-126279321D01*
X-13935345Y-126279551D01*
X-13978644Y-126279782D01*
X-14024087Y-126280017D01*
X-14071733Y-126280259D01*
X-14121639Y-126280510D01*
X-14152419Y-126280656D01*
X-14182908Y-126280786D01*
X-14213082Y-126280899D01*
X-14242916Y-126280995D01*
X-14272386Y-126281075D01*
X-14301465Y-126281138D01*
X-14330130Y-126281186D01*
X-14358355Y-126281218D01*
X-14386116Y-126281234D01*
X-14413387Y-126281234D01*
X-14440144Y-126281219D01*
X-14466362Y-126281190D01*
X-14492016Y-126281145D01*
X-14517080Y-126281085D01*
X-14541531Y-126281011D01*
X-14565343Y-126280922D01*
X-14588492Y-126280819D01*
X-14610952Y-126280702D01*
X-14632698Y-126280571D01*
X-14653706Y-126280427D01*
X-14673950Y-126280269D01*
X-14693407Y-126280097D01*
X-14712050Y-126279913D01*
X-14729856Y-126279715D01*
X-14746798Y-126279505D01*
X-14762853Y-126279282D01*
X-14777995Y-126279047D01*
X-14792200Y-126278799D01*
X-14805442Y-126278540D01*
X-14817696Y-126278268D01*
X-14828939Y-126277985D01*
X-14839144Y-126277690D01*
X-14848287Y-126277384D01*
X-14856343Y-126277067D01*
X-14863288Y-126276738D01*
X-14869095Y-126276399D01*
X-14873741Y-126276049D01*
X-14877201Y-126275689D01*
X-14879448Y-126275319D01*
X-14880460Y-126274938D01*
X-14880460Y-126274938D01*
G37*
D15*
X-300000Y-118700000D03*
X-300000Y-118100000D03*
X-300000Y-117500000D03*
X-1700000Y-117500000D03*
X-1700000Y-118100000D03*
X-1700000Y-118700000D03*
X-1700000Y-14400000D03*
X-1700000Y-15000000D03*
X-1700000Y-15600000D03*
X-300000Y-15600000D03*
X-300000Y-15000000D03*
X-300000Y-14400000D03*
X51400000Y-80700000D03*
X52000000Y-80700000D03*
X52600000Y-80700000D03*
X52600000Y-79300000D03*
X52000000Y-79300000D03*
X51400000Y-79300000D03*
X38400000Y-87500000D03*
X39000000Y-87500000D03*
X39600000Y-87500000D03*
X39600000Y-86100000D03*
X39000000Y-86100000D03*
X38400000Y-86100000D03*
X30300000Y-14400000D03*
X30300000Y-15000000D03*
X30300000Y-15600000D03*
X31700000Y-15600000D03*
X31700000Y-15000000D03*
X31700000Y-14400000D03*
X30300000Y-74400000D03*
X30300000Y-75000000D03*
X30300000Y-75600000D03*
X31700000Y-75600000D03*
X31700000Y-75000000D03*
X31700000Y-74400000D03*
X30300000Y-99400000D03*
X30300000Y-100000000D03*
X30300000Y-100600000D03*
X31700000Y-100600000D03*
X31700000Y-100000000D03*
X31700000Y-99400000D03*
X21400000Y-109700000D03*
X22000000Y-109700000D03*
X22600000Y-109700000D03*
X22600000Y-108300000D03*
X22000000Y-108300000D03*
X21400000Y-108300000D03*
X-400000Y-91600000D03*
X-400000Y-91000000D03*
X-400000Y-90400000D03*
X-1800000Y-90400000D03*
X-1800000Y-91000000D03*
X-1800000Y-91600000D03*
D16*
X-24600000Y-3000000D03*
X-24600000Y-125700000D03*
D15*
X9400000Y-109700000D03*
X10000000Y-109700000D03*
X10600000Y-109700000D03*
X10600000Y-108300000D03*
X10000000Y-108300000D03*
X9400000Y-108300000D03*
D17*
X12560000Y-84580000D03*
D18*
X15100000Y-84580000D03*
X12560000Y-87120000D03*
X15100000Y-87120000D03*
X12560000Y-89660000D03*
X15100000Y-89660000D03*
X12560000Y-92200000D03*
X15100000Y-92200000D03*
X12560000Y-94740000D03*
X15100000Y-94740000D03*
D19*
X6250000Y-96000000D03*
X1850000Y-96000000D03*
D20*
X9750000Y-97900000D03*
X9750000Y-94700000D03*
D21*
X26635000Y-8180000D03*
D22*
X25365000Y-8180000D03*
X26635000Y-6910000D03*
X25365000Y-6910000D03*
X25365000Y-5640000D03*
X25365000Y-4370000D03*
X26635000Y-5640000D03*
X26635000Y-4370000D03*
X25365000Y-3100000D03*
X26635000Y-3100000D03*
D21*
X2460000Y-84135000D03*
D22*
X2460000Y-82865000D03*
X3730000Y-84135000D03*
X3730000Y-82865000D03*
X5000000Y-82865000D03*
X6270000Y-82865000D03*
X5000000Y-84135000D03*
X6270000Y-84135000D03*
X7540000Y-82865000D03*
X7540000Y-84135000D03*
D23*
X25230000Y-22970000D03*
D24*
X27770000Y-22970000D03*
X25230000Y-25510000D03*
X27770000Y-25510000D03*
X25230000Y-28050000D03*
X27770000Y-28050000D03*
X25230000Y-30590000D03*
X27770000Y-30590000D03*
X25230000Y-33130000D03*
X27770000Y-33130000D03*
X25230000Y-35670000D03*
X27770000Y-35670000D03*
X25230000Y-38210000D03*
X27770000Y-38210000D03*
X25230000Y-40750000D03*
X27770000Y-40750000D03*
X25230000Y-43290000D03*
X27770000Y-43290000D03*
X25230000Y-45830000D03*
X27770000Y-45830000D03*
X25230000Y-48370000D03*
X27770000Y-48370000D03*
X25230000Y-50910000D03*
X27770000Y-50910000D03*
X25230000Y-53450000D03*
X27770000Y-53450000D03*
X25230000Y-55990000D03*
X27770000Y-55990000D03*
X25230000Y-58530000D03*
X27770000Y-58530000D03*
X25230000Y-61070000D03*
X27770000Y-61070000D03*
X25230000Y-63610000D03*
X27770000Y-63610000D03*
X25230000Y-66150000D03*
X27770000Y-66150000D03*
X25230000Y-68690000D03*
X27770000Y-68690000D03*
X25230000Y-71230000D03*
X27770000Y-71230000D03*
D25*
X26500000Y-76100000D03*
X26500000Y-18100000D03*
X3500000Y-18100000D03*
X3500000Y-76100000D03*
D26*
X12550000Y-97500000D03*
X14450000Y-97500000D03*
D27*
X16250000Y-106300000D03*
D28*
X18790000Y-106300000D03*
D27*
X13750000Y-106300000D03*
D28*
X11210000Y-106300000D03*
D29*
X28920000Y-103500000D03*
D30*
X20620000Y-103500000D03*
D31*
X18200000Y-103500000D03*
D29*
X1080000Y-4500000D03*
D30*
X9380000Y-4500000D03*
D31*
X11800000Y-2000000D03*
D29*
X1080000Y-103500000D03*
D30*
X9380000Y-103500000D03*
D31*
X11800000Y-103500000D03*
D32*
X40320000Y-19000000D03*
X41760000Y-19000000D03*
X43200000Y-19000000D03*
X44640000Y-19000000D03*
X46080000Y-19000000D03*
X46080000Y-9600000D03*
X44640000Y-9600000D03*
X43200000Y-9600000D03*
X41760000Y-9600000D03*
X40320000Y-9600000D03*
X32820000Y-19000000D03*
X34260000Y-19000000D03*
X35700000Y-19000000D03*
X37140000Y-19000000D03*
X38580000Y-19000000D03*
X38580000Y-9600000D03*
X37140000Y-9600000D03*
X35700000Y-9600000D03*
X34260000Y-9600000D03*
X32820000Y-9600000D03*
X47820000Y-19000000D03*
X49260000Y-19000000D03*
X50700000Y-19000000D03*
X52140000Y-19000000D03*
X53580000Y-19000000D03*
X53580000Y-9600000D03*
X52140000Y-9600000D03*
X50700000Y-9600000D03*
X49260000Y-9600000D03*
X47820000Y-9600000D03*
X55320000Y-19000000D03*
X56760000Y-19000000D03*
X58200000Y-19000000D03*
X59640000Y-19000000D03*
X61080000Y-19000000D03*
X61080000Y-9600000D03*
X59640000Y-9600000D03*
X58200000Y-9600000D03*
X56760000Y-9600000D03*
X55320000Y-9600000D03*
D33*
X44500000Y-51000000D03*
X47000000Y-51000000D03*
X49500000Y-51000000D03*
X49500000Y-36700000D03*
X44500000Y-36700000D03*
D34*
X52700000Y-43700000D03*
X41300000Y-43700000D03*
D35*
X47000000Y-43700000D03*
D36*
X47000000Y-48200000D03*
D37*
X42000000Y-35800000D03*
X42000000Y-51600000D03*
X52000000Y-51600000D03*
X52000000Y-35800000D03*
D38*
X43025000Y-62150000D03*
X50975000Y-62150000D03*
X50975000Y-66650000D03*
X43025000Y-66650000D03*
D21*
X58635000Y-7210000D03*
D22*
X57365000Y-7210000D03*
X58635000Y-5940000D03*
X57365000Y-5940000D03*
X57365000Y-4670000D03*
X57365000Y-3400000D03*
X58635000Y-4670000D03*
X58635000Y-3400000D03*
X57365000Y-2130000D03*
X58635000Y-2130000D03*
D26*
X58050000Y-34000000D03*
X59950000Y-34000000D03*
X58050000Y-44000000D03*
X59950000Y-44000000D03*
X58050000Y-54000000D03*
X59950000Y-54000000D03*
X58050000Y-64000000D03*
X59950000Y-64000000D03*
D39*
X56800000Y-22550000D03*
X56800000Y-24450000D03*
X54800000Y-22550000D03*
X54800000Y-24450000D03*
X43300000Y-22550000D03*
X43300000Y-24450000D03*
X45200000Y-22550000D03*
X45200000Y-24450000D03*
X47200000Y-22550000D03*
X47200000Y-24450000D03*
X58800000Y-22550000D03*
X58800000Y-24450000D03*
X60800000Y-22550000D03*
X60800000Y-24450000D03*
X41300000Y-22550000D03*
X41300000Y-24450000D03*
D40*
X60049020Y-48700000D03*
X57950980Y-48700000D03*
X60049020Y-58700000D03*
X57950980Y-58700000D03*
X60049020Y-28700000D03*
X57950980Y-28700000D03*
X60049020Y-38700000D03*
X57950980Y-38700000D03*
D21*
X34460000Y-83135000D03*
D22*
X34460000Y-81865000D03*
X35730000Y-83135000D03*
X35730000Y-81865000D03*
X37000000Y-81865000D03*
X38270000Y-81865000D03*
X37000000Y-83135000D03*
X38270000Y-83135000D03*
X39540000Y-81865000D03*
X39540000Y-83135000D03*
D41*
X33200000Y-80000000D03*
D42*
G36*
X-7127000Y-5000000D02*
X-7116994Y-5049410D01*
X-7088553Y-5091035D01*
X-7046159Y-5118315D01*
X-7000000Y-5127000D01*
X-2127000Y-5127000D01*
X-2127000Y-6873000D01*
X-8873000Y-6873000D01*
X-8873000Y-2000000D01*
X-8883006Y-1950590D01*
X-8911447Y-1908965D01*
X-8953841Y-1881685D01*
X-9000000Y-1873000D01*
X-14000000Y-1873000D01*
X-14049410Y-1883006D01*
X-14091035Y-1911447D01*
X-14118315Y-1953841D01*
X-14127000Y-2000000D01*
X-14127000Y-6873000D01*
X-31873000Y-6873000D01*
X-31873000Y-5127000D01*
X-16000000Y-5127000D01*
X-15950590Y-5116994D01*
X-15908965Y-5088553D01*
X-15881685Y-5046159D01*
X-15873000Y-5000000D01*
X-15873000Y-127000D01*
X-7127000Y-127000D01*
X-7127000Y-5000000D01*
X-7127000Y-5000000D01*
G37*
X-7127000Y-5000000D02*
X-7116994Y-5049410D01*
X-7088553Y-5091035D01*
X-7046159Y-5118315D01*
X-7000000Y-5127000D01*
X-2127000Y-5127000D01*
X-2127000Y-6873000D01*
X-8873000Y-6873000D01*
X-8873000Y-2000000D01*
X-8883006Y-1950590D01*
X-8911447Y-1908965D01*
X-8953841Y-1881685D01*
X-9000000Y-1873000D01*
X-14000000Y-1873000D01*
X-14049410Y-1883006D01*
X-14091035Y-1911447D01*
X-14118315Y-1953841D01*
X-14127000Y-2000000D01*
X-14127000Y-6873000D01*
X-31873000Y-6873000D01*
X-31873000Y-5127000D01*
X-16000000Y-5127000D01*
X-15950590Y-5116994D01*
X-15908965Y-5088553D01*
X-15881685Y-5046159D01*
X-15873000Y-5000000D01*
X-15873000Y-127000D01*
X-7127000Y-127000D01*
X-7127000Y-5000000D01*
M02*
