G04 #@! TF.FileFunction,Other,ECO2*
%FSLAX46Y46*%
G04 Gerber Fmt 4.6, Leading zero omitted, Abs format (unit mm)*
G04 Created by KiCad (PCBNEW 4.0.6) date 2018 February 20, Tuesday 14:46:14*
%MOMM*%
%LPD*%
G01*
G04 APERTURE LIST*
%ADD10C,0.100000*%
%ADD11C,0.200000*%
G04 APERTURE END LIST*
D10*
D11*
X-24500000Y-46800000D02*
X-32100000Y-39200000D01*
X-24500000Y-46800000D02*
X-24500000Y-62200000D01*
X-24500000Y-62200000D02*
X-32100000Y-69800000D01*
X-32100000Y-39200000D02*
X-32100000Y0D01*
X-2000000Y-128700000D02*
X-2000000Y0D01*
X-32100000Y-69800000D02*
X-32100000Y-128700000D01*
X-2000000Y-128700000D02*
X-32100000Y-128700000D01*
X-2000000Y0D02*
X-32100000Y0D01*
X30000000Y-108000000D02*
X30000000Y-97000000D01*
X0Y-21000000D02*
X8200000Y-21000000D01*
X8200000Y-35000000D02*
X8200000Y-21000000D01*
X7000000Y-35000000D02*
X8200000Y-35000000D01*
X7000000Y-35000000D02*
X7000000Y-73200000D01*
X7000000Y-73200000D02*
X0Y-73200000D01*
X25000000Y-96000000D02*
G75*
G03X26000000Y-97000000I1000000J0D01*
G01*
X26000000Y-82500000D02*
G75*
G03X25000000Y-83500000I0J-1000000D01*
G01*
X25000000Y-96000000D02*
X25000000Y-83500000D01*
X30000000Y-97000000D02*
X26000000Y-97000000D01*
X30000000Y-82500000D02*
X26000000Y-82500000D01*
X0Y-108000000D02*
X0Y0D01*
X30000000Y-108000000D02*
X0Y-108000000D01*
X30000000Y0D02*
X30000000Y-82500000D01*
X0Y0D02*
X30000000Y0D01*
X40200000Y-34000000D02*
X40200000Y-20000000D01*
X39000000Y-34000000D02*
X40200000Y-34000000D01*
X39000000Y-72200000D02*
X32000000Y-72200000D01*
X39000000Y-34000000D02*
X39000000Y-72200000D01*
X32000000Y-20000000D02*
X40200000Y-20000000D01*
X43000000Y-85800000D02*
X32000000Y-85800000D01*
X32000000Y-72200000D02*
X32000000Y-85800000D01*
X42200000Y-8500000D02*
G75*
G03X44200000Y-6500000I0J2000000D01*
G01*
X45000000Y-79000000D02*
G75*
G03X43000000Y-81000000I0J-2000000D01*
G01*
X62000000Y-79000000D02*
X62000000Y0D01*
X45000000Y-79000000D02*
X62000000Y-79000000D01*
X43000000Y-85800000D02*
X43000000Y-81000000D01*
X32000000Y-8500000D02*
X32000000Y-20000000D01*
X44200000Y0D02*
X62000000Y0D01*
X44200000Y-6500000D02*
X44200000Y0D01*
X42200000Y-8500000D02*
X32000000Y-8500000D01*
M02*
