G04 #@! TF.FileFunction,Legend,Top*
%FSLAX46Y46*%
G04 Gerber Fmt 4.6, Leading zero omitted, Abs format (unit mm)*
G04 Created by KiCad (PCBNEW 4.0.6) date 2018 February 20, Tuesday 14:46:14*
%MOMM*%
%LPD*%
G01*
G04 APERTURE LIST*
%ADD10C,0.100000*%
%ADD11C,1.500000*%
%ADD12C,1.000000*%
%ADD13C,0.500000*%
%ADD14C,0.250000*%
%ADD15C,2.000000*%
%ADD16C,0.300000*%
%ADD17C,0.120000*%
%ADD18C,0.150000*%
%ADD19C,0.200000*%
G04 APERTURE END LIST*
D10*
D11*
X-3222604Y-83949946D02*
X-3222604Y-128700000D01*
X-4102604Y-81829946D02*
G75*
G02X-3223924Y-83951266I-2121320J-2121320D01*
G01*
X-7202604Y-78719946D02*
X-4100000Y-81830000D01*
X-7203924Y-78721266D02*
G75*
G02X-8082604Y-76599946I2121320J2121320D01*
G01*
X-8090000Y-76600000D02*
X-8100000Y-40600000D01*
X-8970000Y-38480000D02*
G75*
G02X-8091320Y-40601320I-2121320J-2121320D01*
G01*
X-8970000Y-38480000D02*
X-32200000Y-15150000D01*
D12*
X-4992604Y-84879946D02*
X-4992604Y-128700000D01*
X-5872604Y-82759946D02*
G75*
G02X-4993924Y-84881266I-2121320J-2121320D01*
G01*
X-8972604Y-79649946D02*
X-5870000Y-82760000D01*
X-8973924Y-79651266D02*
G75*
G02X-9852604Y-77529946I2121320J2121320D01*
G01*
X-9860000Y-77550000D02*
X-9860000Y-41550000D01*
X-10740000Y-39410000D02*
G75*
G02X-9861320Y-41531320I-2121320J-2121320D01*
G01*
X-10740000Y-39410000D02*
X-32000000Y-18150000D01*
D13*
X-6462604Y-85649946D02*
X-6462604Y-128700000D01*
X-7342604Y-83529946D02*
G75*
G02X-6463924Y-85651266I-2121320J-2121320D01*
G01*
X-10442604Y-80419946D02*
X-7340000Y-83530000D01*
X-10443924Y-80421266D02*
G75*
G02X-11322604Y-78299946I2121320J2121320D01*
G01*
X-11330000Y-78300000D02*
X-11330000Y-42300000D01*
X-12210000Y-40180000D02*
G75*
G02X-11331320Y-42301320I-2121320J-2121320D01*
G01*
X-12210000Y-40180000D02*
X-31900000Y-20450000D01*
D14*
X-7622604Y-86349946D02*
X-7622604Y-128700000D01*
X-8502604Y-84229946D02*
G75*
G02X-7623924Y-86351266I-2121320J-2121320D01*
G01*
X-11602604Y-81119946D02*
X-8500000Y-84230000D01*
X-11603924Y-81121266D02*
G75*
G02X-12482604Y-78999946I2121320J2121320D01*
G01*
X-12490000Y-79000000D02*
X-12490000Y-43000000D01*
X-13370000Y-40880000D02*
G75*
G02X-12491320Y-43001320I-2121320J-2121320D01*
G01*
X-13370000Y-40880000D02*
X-31900000Y-22350000D01*
D10*
X-14370000Y-41530000D02*
X-32170000Y-23720000D01*
X-14370000Y-41530000D02*
G75*
G02X-13491320Y-43651320I-2121320J-2121320D01*
G01*
X-13490000Y-65400000D02*
X-13490000Y-43650000D01*
X-20550000Y-74970000D02*
X-20550000Y-128700000D01*
X-19670000Y-72850000D02*
G75*
G03X-20548680Y-74971320I2121320J-2121320D01*
G01*
X-14370000Y-67540000D02*
X-19670000Y-72850000D01*
X-14368680Y-67541320D02*
G75*
G03X-13490000Y-65420000I-2121320J2121320D01*
G01*
D14*
X-15470000Y-42030000D02*
X-32300000Y-25210000D01*
X-15470000Y-42030000D02*
G75*
G02X-14591320Y-44151320I-2121320J-2121320D01*
G01*
X-14590000Y-65000000D02*
X-14590000Y-44150000D01*
X-15468680Y-67141320D02*
G75*
G03X-14590000Y-65020000I-2121320J2121320D01*
G01*
X-15470000Y-67140000D02*
X-20770000Y-72450000D01*
X-20770000Y-72450000D02*
G75*
G03X-21648680Y-74571320I2121320J-2121320D01*
G01*
X-21650000Y-74570000D02*
X-21650000Y-128700000D01*
D13*
X-16600000Y-42550000D02*
X-32400000Y-26750000D01*
X-16600000Y-42550000D02*
G75*
G02X-15721320Y-44671320I-2121320J-2121320D01*
G01*
X-15720000Y-64500000D02*
X-15720000Y-44670000D01*
X-16598680Y-66661320D02*
G75*
G03X-15720000Y-64540000I-2121320J2121320D01*
G01*
X-16600000Y-66660000D02*
X-21900000Y-71970000D01*
X-21900000Y-71970000D02*
G75*
G03X-22778680Y-74091320I2121320J-2121320D01*
G01*
X-22780000Y-74090000D02*
X-22780000Y-128700000D01*
D12*
X-24700000Y-73500000D02*
X-24700000Y-128700000D01*
X-23821320Y-71378680D02*
G75*
G03X-24700000Y-73500000I2121320J-2121320D01*
G01*
X-18500000Y-66000000D02*
X-23800000Y-71300000D01*
X-18478680Y-65921320D02*
G75*
G03X-17600000Y-63800000I-2121320J2121320D01*
G01*
X-18500000Y-43250000D02*
G75*
G02X-17621320Y-45371320I-2121320J-2121320D01*
G01*
X-18500000Y-43250000D02*
X-32400000Y-29350000D01*
X-17600000Y-63800000D02*
X-17620000Y-45380000D01*
D11*
X-20900000Y-44050000D02*
X-32500000Y-32450000D01*
X-20800000Y-65100000D02*
X-26100000Y-70400000D01*
X-19900000Y-62900000D02*
X-19920000Y-46270000D01*
X-20778680Y-65021320D02*
G75*
G03X-19900000Y-62900000I-2121320J2121320D01*
G01*
X-20800000Y-44150000D02*
G75*
G02X-19921320Y-46271320I-2121320J-2121320D01*
G01*
X-27000000Y-72600000D02*
X-27000000Y-128700000D01*
X-26121320Y-70478680D02*
G75*
G03X-27000000Y-72600000I2121320J-2121320D01*
G01*
D15*
X-29900000Y-71400000D02*
X-29900000Y-129600000D01*
X-23800000Y-45050000D02*
X-32800000Y-36050000D01*
X-23700000Y-45150000D02*
G75*
G02X-22821320Y-47271320I-2121320J-2121320D01*
G01*
X-22800000Y-61700000D02*
X-22820000Y-47270000D01*
X-23700000Y-63900000D02*
X-29000000Y-69200000D01*
X-29021320Y-69278680D02*
G75*
G03X-29900000Y-71400000I2121320J-2121320D01*
G01*
X-23678680Y-63821320D02*
G75*
G03X-22800000Y-61700000I-2121320J2121320D01*
G01*
D16*
X39842858Y-78035714D02*
X39771429Y-78107143D01*
X39557143Y-78178571D01*
X39414286Y-78178571D01*
X39200001Y-78107143D01*
X39057143Y-77964286D01*
X38985715Y-77821429D01*
X38914286Y-77535714D01*
X38914286Y-77321429D01*
X38985715Y-77035714D01*
X39057143Y-76892857D01*
X39200001Y-76750000D01*
X39414286Y-76678571D01*
X39557143Y-76678571D01*
X39771429Y-76750000D01*
X39842858Y-76821429D01*
X41342858Y-78035714D02*
X41271429Y-78107143D01*
X41057143Y-78178571D01*
X40914286Y-78178571D01*
X40700001Y-78107143D01*
X40557143Y-77964286D01*
X40485715Y-77821429D01*
X40414286Y-77535714D01*
X40414286Y-77321429D01*
X40485715Y-77035714D01*
X40557143Y-76892857D01*
X40700001Y-76750000D01*
X40914286Y-76678571D01*
X41057143Y-76678571D01*
X41271429Y-76750000D01*
X41342858Y-76821429D01*
X41985715Y-77607143D02*
X43128572Y-77607143D01*
X44342858Y-77392857D02*
X44557144Y-77464286D01*
X44628572Y-77535714D01*
X44700001Y-77678571D01*
X44700001Y-77892857D01*
X44628572Y-78035714D01*
X44557144Y-78107143D01*
X44414286Y-78178571D01*
X43842858Y-78178571D01*
X43842858Y-76678571D01*
X44342858Y-76678571D01*
X44485715Y-76750000D01*
X44557144Y-76821429D01*
X44628572Y-76964286D01*
X44628572Y-77107143D01*
X44557144Y-77250000D01*
X44485715Y-77321429D01*
X44342858Y-77392857D01*
X43842858Y-77392857D01*
X45628572Y-77464286D02*
X45628572Y-78178571D01*
X45128572Y-76678571D02*
X45628572Y-77464286D01*
X46128572Y-76678571D01*
X46628572Y-77607143D02*
X47771429Y-77607143D01*
X48414286Y-78107143D02*
X48628572Y-78178571D01*
X48985715Y-78178571D01*
X49128572Y-78107143D01*
X49200001Y-78035714D01*
X49271429Y-77892857D01*
X49271429Y-77750000D01*
X49200001Y-77607143D01*
X49128572Y-77535714D01*
X48985715Y-77464286D01*
X48700001Y-77392857D01*
X48557143Y-77321429D01*
X48485715Y-77250000D01*
X48414286Y-77107143D01*
X48414286Y-76964286D01*
X48485715Y-76821429D01*
X48557143Y-76750000D01*
X48700001Y-76678571D01*
X49057143Y-76678571D01*
X49271429Y-76750000D01*
X49842857Y-77750000D02*
X50557143Y-77750000D01*
X49700000Y-78178571D02*
X50200000Y-76678571D01*
X50700000Y-78178571D01*
X51200000Y-77607143D02*
X52342857Y-77607143D01*
X53057143Y-78178571D02*
X53057143Y-76678571D01*
X53914286Y-78178571D01*
X53914286Y-76678571D01*
X55485715Y-78035714D02*
X55414286Y-78107143D01*
X55200000Y-78178571D01*
X55057143Y-78178571D01*
X54842858Y-78107143D01*
X54700000Y-77964286D01*
X54628572Y-77821429D01*
X54557143Y-77535714D01*
X54557143Y-77321429D01*
X54628572Y-77035714D01*
X54700000Y-76892857D01*
X54842858Y-76750000D01*
X55057143Y-76678571D01*
X55200000Y-76678571D01*
X55414286Y-76750000D01*
X55485715Y-76821429D01*
D17*
X16380000Y-83190000D02*
X16380000Y-85850000D01*
X16380000Y-85850000D02*
X19120000Y-85850000D01*
X19120000Y-85850000D02*
X19120000Y-83190000D01*
X19120000Y-83190000D02*
X16380000Y-83190000D01*
X19120000Y-84140000D02*
X19120000Y-85020000D01*
X19120000Y-85020000D02*
X25120000Y-85020000D01*
X25120000Y-85020000D02*
X25120000Y-84140000D01*
X25120000Y-84140000D02*
X19120000Y-84140000D01*
X16070000Y-84140000D02*
X16380000Y-84140000D01*
X16070000Y-85020000D02*
X16380000Y-85020000D01*
X13530000Y-84140000D02*
X14130000Y-84140000D01*
X13530000Y-85020000D02*
X14130000Y-85020000D01*
X19120000Y-84260000D02*
X25120000Y-84260000D01*
X19120000Y-84380000D02*
X25120000Y-84380000D01*
X19120000Y-84500000D02*
X25120000Y-84500000D01*
X19120000Y-84620000D02*
X25120000Y-84620000D01*
X19120000Y-84740000D02*
X25120000Y-84740000D01*
X19120000Y-84860000D02*
X25120000Y-84860000D01*
X19120000Y-84980000D02*
X25120000Y-84980000D01*
X16380000Y-85850000D02*
X16380000Y-88390000D01*
X16380000Y-88390000D02*
X19120000Y-88390000D01*
X19120000Y-88390000D02*
X19120000Y-85850000D01*
X19120000Y-85850000D02*
X16380000Y-85850000D01*
X19120000Y-86680000D02*
X19120000Y-87560000D01*
X19120000Y-87560000D02*
X25120000Y-87560000D01*
X25120000Y-87560000D02*
X25120000Y-86680000D01*
X25120000Y-86680000D02*
X19120000Y-86680000D01*
X16070000Y-86680000D02*
X16380000Y-86680000D01*
X16070000Y-87560000D02*
X16380000Y-87560000D01*
X13530000Y-86680000D02*
X14130000Y-86680000D01*
X13530000Y-87560000D02*
X14130000Y-87560000D01*
X16380000Y-88390000D02*
X16380000Y-90930000D01*
X16380000Y-90930000D02*
X19120000Y-90930000D01*
X19120000Y-90930000D02*
X19120000Y-88390000D01*
X19120000Y-88390000D02*
X16380000Y-88390000D01*
X19120000Y-89220000D02*
X19120000Y-90100000D01*
X19120000Y-90100000D02*
X25120000Y-90100000D01*
X25120000Y-90100000D02*
X25120000Y-89220000D01*
X25120000Y-89220000D02*
X19120000Y-89220000D01*
X16070000Y-89220000D02*
X16380000Y-89220000D01*
X16070000Y-90100000D02*
X16380000Y-90100000D01*
X13530000Y-89220000D02*
X14130000Y-89220000D01*
X13530000Y-90100000D02*
X14130000Y-90100000D01*
X16380000Y-90930000D02*
X16380000Y-93470000D01*
X16380000Y-93470000D02*
X19120000Y-93470000D01*
X19120000Y-93470000D02*
X19120000Y-90930000D01*
X19120000Y-90930000D02*
X16380000Y-90930000D01*
X19120000Y-91760000D02*
X19120000Y-92640000D01*
X19120000Y-92640000D02*
X25120000Y-92640000D01*
X25120000Y-92640000D02*
X25120000Y-91760000D01*
X25120000Y-91760000D02*
X19120000Y-91760000D01*
X16070000Y-91760000D02*
X16380000Y-91760000D01*
X16070000Y-92640000D02*
X16380000Y-92640000D01*
X13530000Y-91760000D02*
X14130000Y-91760000D01*
X13530000Y-92640000D02*
X14130000Y-92640000D01*
X16380000Y-93470000D02*
X16380000Y-96130000D01*
X16380000Y-96130000D02*
X19120000Y-96130000D01*
X19120000Y-96130000D02*
X19120000Y-93470000D01*
X19120000Y-93470000D02*
X16380000Y-93470000D01*
X19120000Y-94300000D02*
X19120000Y-95180000D01*
X19120000Y-95180000D02*
X25120000Y-95180000D01*
X25120000Y-95180000D02*
X25120000Y-94300000D01*
X25120000Y-94300000D02*
X19120000Y-94300000D01*
X16070000Y-94300000D02*
X16380000Y-94300000D01*
X16070000Y-95180000D02*
X16380000Y-95180000D01*
X13530000Y-94300000D02*
X14130000Y-94300000D01*
X13530000Y-95180000D02*
X14130000Y-95180000D01*
X11290000Y-84580000D02*
X11290000Y-83310000D01*
X11290000Y-83310000D02*
X12560000Y-83310000D01*
X1380000Y-98690000D02*
X1380000Y-97140000D01*
X1380000Y-93360000D02*
X1380000Y-94910000D01*
X6720000Y-94120000D02*
X6720000Y-94910000D01*
X6720000Y-97930000D02*
X6720000Y-97140000D01*
X1380000Y-98690000D02*
X5960000Y-98690000D01*
X5960000Y-98690000D02*
X6720000Y-97930000D01*
X6720000Y-94120000D02*
X5960000Y-93360000D01*
X5960000Y-93360000D02*
X1380000Y-93360000D01*
D18*
X8650000Y-97800000D02*
X8650000Y-94800000D01*
X10850000Y-97800000D02*
X10850000Y-94800000D01*
X27905000Y-8180000D02*
X27270000Y-8815000D01*
X27905000Y-2465000D02*
X24095000Y-2465000D01*
X27905000Y-8180000D02*
X27905000Y-2465000D01*
X24095000Y-8815000D02*
X27270000Y-8815000D01*
X24095000Y-2465000D02*
X24095000Y-8815000D01*
X2460000Y-85405000D02*
X1825000Y-84770000D01*
X8175000Y-85405000D02*
X8175000Y-81595000D01*
X2460000Y-85405000D02*
X8175000Y-85405000D01*
X1825000Y-81595000D02*
X1825000Y-84770000D01*
X8175000Y-81595000D02*
X1825000Y-81595000D01*
D13*
X3500000Y-14600000D02*
X26500000Y-14600000D01*
X0Y-76100000D02*
X0Y-18100000D01*
X26500000Y-79600000D02*
X3500000Y-79600000D01*
X29999995Y-18093891D02*
G75*
G03X26500000Y-14600000I-3499995J-6109D01*
G01*
X3500000Y-14600000D02*
G75*
G03X0Y-18100000I0J-3500000D01*
G01*
X0Y-76100000D02*
G75*
G03X3500000Y-79600000I3500000J0D01*
G01*
X26500000Y-79600000D02*
G75*
G03X30000000Y-76100000I0J3500000D01*
G01*
X30000000Y-18100000D02*
X30000000Y-76100000D01*
D17*
X14100000Y-98380000D02*
X12900000Y-98380000D01*
X12900000Y-96620000D02*
X14100000Y-96620000D01*
X19192335Y-105221392D02*
G75*
G03X15960000Y-105064484I-1672335J-1078608D01*
G01*
X19192335Y-107378608D02*
G75*
G02X15960000Y-107535516I-1672335J1078608D01*
G01*
X18561130Y-105220163D02*
G75*
G03X16479039Y-105220000I-1041130J-1079837D01*
G01*
X18561130Y-107379837D02*
G75*
G02X16479039Y-107380000I-1041130J1079837D01*
G01*
X15960000Y-105064000D02*
X15960000Y-105220000D01*
X15960000Y-107380000D02*
X15960000Y-107536000D01*
X10807665Y-107378608D02*
G75*
G03X14040000Y-107535516I1672335J1078608D01*
G01*
X10807665Y-105221392D02*
G75*
G02X14040000Y-105064484I1672335J-1078608D01*
G01*
X11438870Y-107379837D02*
G75*
G03X13520961Y-107380000I1041130J1079837D01*
G01*
X11438870Y-105220163D02*
G75*
G02X13520961Y-105220000I1041130J-1079837D01*
G01*
X14040000Y-107536000D02*
X14040000Y-107380000D01*
X14040000Y-105220000D02*
X14040000Y-105064000D01*
D18*
X23700000Y-102500000D02*
G75*
G03X23700000Y-104500000I300000J-1000000D01*
G01*
D19*
X24900000Y-104300000D02*
G75*
G03X24900000Y-104300000I-100000J0D01*
G01*
X24900000Y-102700000D02*
G75*
G03X24900000Y-102700000I-100000J0D01*
G01*
D18*
X25750000Y-103500000D02*
G75*
G03X25750000Y-103500000I-1750000J0D01*
G01*
X30000000Y-99000000D02*
X30000000Y-108000000D01*
X30000000Y-108000000D02*
X19500000Y-108000000D01*
X19500000Y-108000000D02*
X19500000Y-99000000D01*
X19500000Y-99000000D02*
X30000000Y-99000000D01*
X6300000Y-5500000D02*
G75*
G03X6300000Y-3500000I-300000J1000000D01*
G01*
D19*
X5300000Y-3700000D02*
G75*
G03X5300000Y-3700000I-100000J0D01*
G01*
X5300000Y-5300000D02*
G75*
G03X5300000Y-5300000I-100000J0D01*
G01*
D18*
X7750000Y-4500000D02*
G75*
G03X7750000Y-4500000I-1750000J0D01*
G01*
X0Y-9000000D02*
X0Y0D01*
X0Y0D02*
X10500000Y0D01*
X10500000Y0D02*
X10500000Y-9000000D01*
X10500000Y-9000000D02*
X0Y-9000000D01*
X6300000Y-104500000D02*
G75*
G03X6300000Y-102500000I-300000J1000000D01*
G01*
D19*
X5300000Y-102700000D02*
G75*
G03X5300000Y-102700000I-100000J0D01*
G01*
X5300000Y-104300000D02*
G75*
G03X5300000Y-104300000I-100000J0D01*
G01*
D18*
X7750000Y-103500000D02*
G75*
G03X7750000Y-103500000I-1750000J0D01*
G01*
X0Y-108000000D02*
X0Y-99000000D01*
X0Y-99000000D02*
X10500000Y-99000000D01*
X10500000Y-99000000D02*
X10500000Y-108000000D01*
X10500000Y-108000000D02*
X0Y-108000000D01*
X39850000Y-20100000D02*
X40800000Y-20100000D01*
X32350000Y-20100000D02*
X33300000Y-20100000D01*
X47350000Y-20100000D02*
X48300000Y-20100000D01*
X54850000Y-20100000D02*
X55800000Y-20100000D01*
X59905000Y-7210000D02*
X59270000Y-7845000D01*
X59905000Y-1495000D02*
X56095000Y-1495000D01*
X59905000Y-7210000D02*
X59905000Y-1495000D01*
X56095000Y-7845000D02*
X59270000Y-7845000D01*
X56095000Y-1495000D02*
X56095000Y-7845000D01*
D17*
X59600000Y-34880000D02*
X58400000Y-34880000D01*
X58400000Y-33120000D02*
X59600000Y-33120000D01*
X59600000Y-44880000D02*
X58400000Y-44880000D01*
X58400000Y-43120000D02*
X59600000Y-43120000D01*
X59600000Y-54880000D02*
X58400000Y-54880000D01*
X58400000Y-53120000D02*
X59600000Y-53120000D01*
X59600000Y-64880000D02*
X58400000Y-64880000D01*
X58400000Y-63120000D02*
X59600000Y-63120000D01*
X55920000Y-24100000D02*
X55920000Y-22900000D01*
X57680000Y-22900000D02*
X57680000Y-24100000D01*
X53920000Y-24100000D02*
X53920000Y-22900000D01*
X55680000Y-22900000D02*
X55680000Y-24100000D01*
X42420000Y-24100000D02*
X42420000Y-22900000D01*
X44180000Y-22900000D02*
X44180000Y-24100000D01*
X44320000Y-24100000D02*
X44320000Y-22900000D01*
X46080000Y-22900000D02*
X46080000Y-24100000D01*
X46320000Y-24100000D02*
X46320000Y-22900000D01*
X48080000Y-22900000D02*
X48080000Y-24100000D01*
X57920000Y-24100000D02*
X57920000Y-22900000D01*
X59680000Y-22900000D02*
X59680000Y-24100000D01*
X59920000Y-24100000D02*
X59920000Y-22900000D01*
X61680000Y-22900000D02*
X61680000Y-24100000D01*
X40420000Y-24100000D02*
X40420000Y-22900000D01*
X42180000Y-22900000D02*
X42180000Y-24100000D01*
D18*
X57400000Y-49450000D02*
X60100000Y-49450000D01*
X57400000Y-47950000D02*
X60100000Y-47950000D01*
X58900000Y-48850000D02*
X58900000Y-48600000D01*
X58900000Y-48600000D02*
X58750000Y-48750000D01*
X58650000Y-48350000D02*
X58650000Y-49050000D01*
X59000000Y-48700000D02*
X59350000Y-48700000D01*
X58650000Y-48700000D02*
X59000000Y-48350000D01*
X59000000Y-48350000D02*
X59000000Y-49050000D01*
X59000000Y-49050000D02*
X58650000Y-48700000D01*
X57400000Y-59450000D02*
X60100000Y-59450000D01*
X57400000Y-57950000D02*
X60100000Y-57950000D01*
X58900000Y-58850000D02*
X58900000Y-58600000D01*
X58900000Y-58600000D02*
X58750000Y-58750000D01*
X58650000Y-58350000D02*
X58650000Y-59050000D01*
X59000000Y-58700000D02*
X59350000Y-58700000D01*
X58650000Y-58700000D02*
X59000000Y-58350000D01*
X59000000Y-58350000D02*
X59000000Y-59050000D01*
X59000000Y-59050000D02*
X58650000Y-58700000D01*
X57400000Y-29450000D02*
X60100000Y-29450000D01*
X57400000Y-27950000D02*
X60100000Y-27950000D01*
X58900000Y-28850000D02*
X58900000Y-28600000D01*
X58900000Y-28600000D02*
X58750000Y-28750000D01*
X58650000Y-28350000D02*
X58650000Y-29050000D01*
X59000000Y-28700000D02*
X59350000Y-28700000D01*
X58650000Y-28700000D02*
X59000000Y-28350000D01*
X59000000Y-28350000D02*
X59000000Y-29050000D01*
X59000000Y-29050000D02*
X58650000Y-28700000D01*
X57400000Y-39450000D02*
X60100000Y-39450000D01*
X57400000Y-37950000D02*
X60100000Y-37950000D01*
X58900000Y-38850000D02*
X58900000Y-38600000D01*
X58900000Y-38600000D02*
X58750000Y-38750000D01*
X58650000Y-38350000D02*
X58650000Y-39050000D01*
X59000000Y-38700000D02*
X59350000Y-38700000D01*
X58650000Y-38700000D02*
X59000000Y-38350000D01*
X59000000Y-38350000D02*
X59000000Y-39050000D01*
X59000000Y-39050000D02*
X58650000Y-38700000D01*
X34460000Y-84405000D02*
X33825000Y-83770000D01*
X40175000Y-84405000D02*
X40175000Y-80595000D01*
X34460000Y-84405000D02*
X40175000Y-84405000D01*
X33825000Y-80595000D02*
X33825000Y-83770000D01*
X40175000Y-80595000D02*
X33825000Y-80595000D01*
X17061905Y-82852381D02*
X17061905Y-81852381D01*
X17442858Y-81852381D01*
X17538096Y-81900000D01*
X17585715Y-81947619D01*
X17633334Y-82042857D01*
X17633334Y-82185714D01*
X17585715Y-82280952D01*
X17538096Y-82328571D01*
X17442858Y-82376190D01*
X17061905Y-82376190D01*
X18585715Y-82852381D02*
X18014286Y-82852381D01*
X18300000Y-82852381D02*
X18300000Y-81852381D01*
X18204762Y-81995238D01*
X18109524Y-82090476D01*
X18014286Y-82138095D01*
X7957143Y-88566666D02*
X8004762Y-88614285D01*
X8052381Y-88757142D01*
X8052381Y-88852380D01*
X8004762Y-88995238D01*
X7909524Y-89090476D01*
X7814286Y-89138095D01*
X7623810Y-89185714D01*
X7480952Y-89185714D01*
X7290476Y-89138095D01*
X7195238Y-89090476D01*
X7100000Y-88995238D01*
X7052381Y-88852380D01*
X7052381Y-88757142D01*
X7100000Y-88614285D01*
X7147619Y-88566666D01*
X8052381Y-87614285D02*
X8052381Y-88185714D01*
X8052381Y-87900000D02*
X7052381Y-87900000D01*
X7195238Y-87995238D01*
X7290476Y-88090476D01*
X7338095Y-88185714D01*
X7049048Y-93731429D02*
X7810953Y-93731429D01*
X7430001Y-94112381D02*
X7430001Y-93350476D01*
X11733334Y-97552381D02*
X11257143Y-97552381D01*
X11257143Y-96552381D01*
X12590477Y-97552381D02*
X12019048Y-97552381D01*
X12304762Y-97552381D02*
X12304762Y-96552381D01*
X12209524Y-96695238D01*
X12114286Y-96790476D01*
X12019048Y-96838095D01*
X25296905Y-1952381D02*
X25296905Y-952381D01*
X25677858Y-952381D01*
X25773096Y-1000000D01*
X25820715Y-1047619D01*
X25868334Y-1142857D01*
X25868334Y-1285714D01*
X25820715Y-1380952D01*
X25773096Y-1428571D01*
X25677858Y-1476190D01*
X25296905Y-1476190D01*
X26249286Y-1047619D02*
X26296905Y-1000000D01*
X26392143Y-952381D01*
X26630239Y-952381D01*
X26725477Y-1000000D01*
X26773096Y-1047619D01*
X26820715Y-1142857D01*
X26820715Y-1238095D01*
X26773096Y-1380952D01*
X26201667Y-1952381D01*
X26820715Y-1952381D01*
X4261905Y-81352381D02*
X4261905Y-80352381D01*
X4642858Y-80352381D01*
X4738096Y-80400000D01*
X4785715Y-80447619D01*
X4833334Y-80542857D01*
X4833334Y-80685714D01*
X4785715Y-80780952D01*
X4738096Y-80828571D01*
X4642858Y-80876190D01*
X4261905Y-80876190D01*
X5690477Y-80685714D02*
X5690477Y-81352381D01*
X5452381Y-80304762D02*
X5214286Y-81019048D01*
X5833334Y-81019048D01*
X17452381Y-46433333D02*
X18166667Y-46433333D01*
X18309524Y-46480953D01*
X18404762Y-46576191D01*
X18452381Y-46719048D01*
X18452381Y-46814286D01*
X18452381Y-45433333D02*
X18452381Y-46004762D01*
X18452381Y-45719048D02*
X17452381Y-45719048D01*
X17595238Y-45814286D01*
X17690476Y-45909524D01*
X17738095Y-46004762D01*
X14452381Y-56100001D02*
X13785714Y-56100001D01*
X13880952Y-56100001D02*
X13833333Y-56052382D01*
X13785714Y-55957144D01*
X13785714Y-55814286D01*
X13833333Y-55719048D01*
X13928571Y-55671429D01*
X14452381Y-55671429D01*
X13928571Y-55671429D02*
X13833333Y-55623810D01*
X13785714Y-55528572D01*
X13785714Y-55385715D01*
X13833333Y-55290477D01*
X13928571Y-55242858D01*
X14452381Y-55242858D01*
X14452381Y-54623811D02*
X14404762Y-54719049D01*
X14357143Y-54766668D01*
X14261905Y-54814287D01*
X13976190Y-54814287D01*
X13880952Y-54766668D01*
X13833333Y-54719049D01*
X13785714Y-54623811D01*
X13785714Y-54480953D01*
X13833333Y-54385715D01*
X13880952Y-54338096D01*
X13976190Y-54290477D01*
X14261905Y-54290477D01*
X14357143Y-54338096D01*
X14404762Y-54385715D01*
X14452381Y-54480953D01*
X14452381Y-54623811D01*
X13785714Y-53433334D02*
X14452381Y-53433334D01*
X13785714Y-53861906D02*
X14309524Y-53861906D01*
X14404762Y-53814287D01*
X14452381Y-53719049D01*
X14452381Y-53576191D01*
X14404762Y-53480953D01*
X14357143Y-53433334D01*
X13785714Y-52957144D02*
X14452381Y-52957144D01*
X13880952Y-52957144D02*
X13833333Y-52909525D01*
X13785714Y-52814287D01*
X13785714Y-52671429D01*
X13833333Y-52576191D01*
X13928571Y-52528572D01*
X14452381Y-52528572D01*
X13785714Y-52195239D02*
X13785714Y-51814287D01*
X13452381Y-52052382D02*
X14309524Y-52052382D01*
X14404762Y-52004763D01*
X14452381Y-51909525D01*
X14452381Y-51814287D01*
X14452381Y-50719048D02*
X13452381Y-50719048D01*
X13452381Y-50338095D01*
X13500000Y-50242857D01*
X13547619Y-50195238D01*
X13642857Y-50147619D01*
X13785714Y-50147619D01*
X13880952Y-50195238D01*
X13928571Y-50242857D01*
X13976190Y-50338095D01*
X13976190Y-50719048D01*
X14452381Y-49719048D02*
X13452381Y-49719048D01*
X13452381Y-48576191D02*
X13452381Y-47909524D01*
X14452381Y-48576191D01*
X14452381Y-47909524D01*
X14452381Y-46623810D02*
X14404762Y-46719048D01*
X14357143Y-46766667D01*
X14261905Y-46814286D01*
X13976190Y-46814286D01*
X13880952Y-46766667D01*
X13833333Y-46719048D01*
X13785714Y-46623810D01*
X13785714Y-46480952D01*
X13833333Y-46385714D01*
X13880952Y-46338095D01*
X13976190Y-46290476D01*
X14261905Y-46290476D01*
X14357143Y-46338095D01*
X14404762Y-46385714D01*
X14452381Y-46480952D01*
X14452381Y-46623810D01*
X13785714Y-45861905D02*
X14452381Y-45861905D01*
X13880952Y-45861905D02*
X13833333Y-45814286D01*
X13785714Y-45719048D01*
X13785714Y-45576190D01*
X13833333Y-45480952D01*
X13928571Y-45433333D01*
X14452381Y-45433333D01*
X13785714Y-44338095D02*
X13785714Y-43957143D01*
X13452381Y-44195238D02*
X14309524Y-44195238D01*
X14404762Y-44147619D01*
X14452381Y-44052381D01*
X14452381Y-43957143D01*
X14452381Y-43623809D02*
X13452381Y-43623809D01*
X14452381Y-43195237D02*
X13928571Y-43195237D01*
X13833333Y-43242856D01*
X13785714Y-43338094D01*
X13785714Y-43480952D01*
X13833333Y-43576190D01*
X13880952Y-43623809D01*
X14452381Y-42719047D02*
X13785714Y-42719047D01*
X13452381Y-42719047D02*
X13500000Y-42766666D01*
X13547619Y-42719047D01*
X13500000Y-42671428D01*
X13452381Y-42719047D01*
X13547619Y-42719047D01*
X14404762Y-42290476D02*
X14452381Y-42195238D01*
X14452381Y-42004762D01*
X14404762Y-41909523D01*
X14309524Y-41861904D01*
X14261905Y-41861904D01*
X14166667Y-41909523D01*
X14119048Y-42004762D01*
X14119048Y-42147619D01*
X14071429Y-42242857D01*
X13976190Y-42290476D01*
X13928571Y-42290476D01*
X13833333Y-42242857D01*
X13785714Y-42147619D01*
X13785714Y-42004762D01*
X13833333Y-41909523D01*
X14404762Y-40719047D02*
X14452381Y-40623809D01*
X14452381Y-40433333D01*
X14404762Y-40338094D01*
X14309524Y-40290475D01*
X14261905Y-40290475D01*
X14166667Y-40338094D01*
X14119048Y-40433333D01*
X14119048Y-40576190D01*
X14071429Y-40671428D01*
X13976190Y-40719047D01*
X13928571Y-40719047D01*
X13833333Y-40671428D01*
X13785714Y-40576190D01*
X13785714Y-40433333D01*
X13833333Y-40338094D01*
X14452381Y-39861904D02*
X13785714Y-39861904D01*
X13452381Y-39861904D02*
X13500000Y-39909523D01*
X13547619Y-39861904D01*
X13500000Y-39814285D01*
X13452381Y-39861904D01*
X13547619Y-39861904D01*
X14452381Y-38957142D02*
X13452381Y-38957142D01*
X14404762Y-38957142D02*
X14452381Y-39052380D01*
X14452381Y-39242857D01*
X14404762Y-39338095D01*
X14357143Y-39385714D01*
X14261905Y-39433333D01*
X13976190Y-39433333D01*
X13880952Y-39385714D01*
X13833333Y-39338095D01*
X13785714Y-39242857D01*
X13785714Y-39052380D01*
X13833333Y-38957142D01*
X14404762Y-38099999D02*
X14452381Y-38195237D01*
X14452381Y-38385714D01*
X14404762Y-38480952D01*
X14309524Y-38528571D01*
X13928571Y-38528571D01*
X13833333Y-38480952D01*
X13785714Y-38385714D01*
X13785714Y-38195237D01*
X13833333Y-38099999D01*
X13928571Y-38052380D01*
X14023810Y-38052380D01*
X14119048Y-38528571D01*
X12607143Y-96352381D02*
X12273809Y-95876190D01*
X12035714Y-96352381D02*
X12035714Y-95352381D01*
X12416667Y-95352381D01*
X12511905Y-95400000D01*
X12559524Y-95447619D01*
X12607143Y-95542857D01*
X12607143Y-95685714D01*
X12559524Y-95780952D01*
X12511905Y-95828571D01*
X12416667Y-95876190D01*
X12035714Y-95876190D01*
X13559524Y-96352381D02*
X12988095Y-96352381D01*
X13273809Y-96352381D02*
X13273809Y-95352381D01*
X13178571Y-95495238D01*
X13083333Y-95590476D01*
X12988095Y-95638095D01*
X14416667Y-95352381D02*
X14226190Y-95352381D01*
X14130952Y-95400000D01*
X14083333Y-95447619D01*
X13988095Y-95590476D01*
X13940476Y-95780952D01*
X13940476Y-96161905D01*
X13988095Y-96257143D01*
X14035714Y-96304762D01*
X14130952Y-96352381D01*
X14321429Y-96352381D01*
X14416667Y-96304762D01*
X14464286Y-96257143D01*
X14511905Y-96161905D01*
X14511905Y-95923810D01*
X14464286Y-95828571D01*
X14416667Y-95780952D01*
X14321429Y-95733333D01*
X14130952Y-95733333D01*
X14035714Y-95780952D01*
X13988095Y-95828571D01*
X13940476Y-95923810D01*
X16781905Y-103792381D02*
X16781905Y-102792381D01*
X17020000Y-102792381D01*
X17162858Y-102840000D01*
X17258096Y-102935238D01*
X17305715Y-103030476D01*
X17353334Y-103220952D01*
X17353334Y-103363810D01*
X17305715Y-103554286D01*
X17258096Y-103649524D01*
X17162858Y-103744762D01*
X17020000Y-103792381D01*
X16781905Y-103792381D01*
X18305715Y-103792381D02*
X17734286Y-103792381D01*
X18020000Y-103792381D02*
X18020000Y-102792381D01*
X17924762Y-102935238D01*
X17829524Y-103030476D01*
X17734286Y-103078095D01*
X8161905Y-107352381D02*
X8161905Y-106352381D01*
X8400000Y-106352381D01*
X8542858Y-106400000D01*
X8638096Y-106495238D01*
X8685715Y-106590476D01*
X8733334Y-106780952D01*
X8733334Y-106923810D01*
X8685715Y-107114286D01*
X8638096Y-107209524D01*
X8542858Y-107304762D01*
X8400000Y-107352381D01*
X8161905Y-107352381D01*
X9114286Y-106447619D02*
X9161905Y-106400000D01*
X9257143Y-106352381D01*
X9495239Y-106352381D01*
X9590477Y-106400000D01*
X9638096Y-106447619D01*
X9685715Y-106542857D01*
X9685715Y-106638095D01*
X9638096Y-106780952D01*
X9066667Y-107352381D01*
X9685715Y-107352381D01*
X17952381Y-109833333D02*
X17476190Y-110166667D01*
X17952381Y-110404762D02*
X16952381Y-110404762D01*
X16952381Y-110023809D01*
X17000000Y-109928571D01*
X17047619Y-109880952D01*
X17142857Y-109833333D01*
X17285714Y-109833333D01*
X17380952Y-109880952D01*
X17428571Y-109928571D01*
X17476190Y-110023809D01*
X17476190Y-110404762D01*
X17904762Y-109452381D02*
X17952381Y-109309524D01*
X17952381Y-109071428D01*
X17904762Y-108976190D01*
X17857143Y-108928571D01*
X17761905Y-108880952D01*
X17666667Y-108880952D01*
X17571429Y-108928571D01*
X17523810Y-108976190D01*
X17476190Y-109071428D01*
X17428571Y-109261905D01*
X17380952Y-109357143D01*
X17333333Y-109404762D01*
X17238095Y-109452381D01*
X17142857Y-109452381D01*
X17047619Y-109404762D01*
X17000000Y-109357143D01*
X16952381Y-109261905D01*
X16952381Y-109023809D01*
X17000000Y-108880952D01*
X16952381Y-108595238D02*
X16952381Y-108023809D01*
X17952381Y-108309524D02*
X16952381Y-108309524D01*
X18047619Y-107928571D02*
X18047619Y-107166666D01*
X16952381Y-106738095D02*
X16952381Y-106547618D01*
X17000000Y-106452380D01*
X17095238Y-106357142D01*
X17285714Y-106309523D01*
X17619048Y-106309523D01*
X17809524Y-106357142D01*
X17904762Y-106452380D01*
X17952381Y-106547618D01*
X17952381Y-106738095D01*
X17904762Y-106833333D01*
X17809524Y-106928571D01*
X17619048Y-106976190D01*
X17285714Y-106976190D01*
X17095238Y-106928571D01*
X17000000Y-106833333D01*
X16952381Y-106738095D01*
X16952381Y-105880952D02*
X17761905Y-105880952D01*
X17857143Y-105833333D01*
X17904762Y-105785714D01*
X17952381Y-105690476D01*
X17952381Y-105499999D01*
X17904762Y-105404761D01*
X17857143Y-105357142D01*
X17761905Y-105309523D01*
X16952381Y-105309523D01*
X16952381Y-104976190D02*
X16952381Y-104404761D01*
X17952381Y-104690476D02*
X16952381Y-104690476D01*
X17952381Y-103547618D02*
X17952381Y-104119047D01*
X17952381Y-103833333D02*
X16952381Y-103833333D01*
X17095238Y-103928571D01*
X17190476Y-104023809D01*
X17238095Y-104119047D01*
X12952381Y-4595238D02*
X11952381Y-4595238D01*
X12666667Y-4261904D01*
X11952381Y-3928571D01*
X12952381Y-3928571D01*
X12952381Y-3452381D02*
X11952381Y-3452381D01*
X12952381Y-2976191D02*
X11952381Y-2976191D01*
X11952381Y-2738096D01*
X12000000Y-2595238D01*
X12095238Y-2500000D01*
X12190476Y-2452381D01*
X12380952Y-2404762D01*
X12523810Y-2404762D01*
X12714286Y-2452381D01*
X12809524Y-2500000D01*
X12904762Y-2595238D01*
X12952381Y-2738096D01*
X12952381Y-2976191D01*
X12952381Y-1976191D02*
X11952381Y-1976191D01*
X13047619Y-1738096D02*
X13047619Y-976191D01*
X11952381Y-547620D02*
X11952381Y-357143D01*
X12000000Y-261905D01*
X12095238Y-166667D01*
X12285714Y-119048D01*
X12619048Y-119048D01*
X12809524Y-166667D01*
X12904762Y-261905D01*
X12952381Y-357143D01*
X12952381Y-547620D01*
X12904762Y-642858D01*
X12809524Y-738096D01*
X12619048Y-785715D01*
X12285714Y-785715D01*
X12095238Y-738096D01*
X12000000Y-642858D01*
X11952381Y-547620D01*
X11952381Y309523D02*
X12761905Y309523D01*
X12857143Y357142D01*
X12904762Y404761D01*
X12952381Y499999D01*
X12952381Y690476D01*
X12904762Y785714D01*
X12857143Y833333D01*
X12761905Y880952D01*
X11952381Y880952D01*
X11952381Y1214285D02*
X11952381Y1785714D01*
X12952381Y1499999D02*
X11952381Y1499999D01*
X12952381Y2642857D02*
X12952381Y2071428D01*
X12952381Y2357142D02*
X11952381Y2357142D01*
X12095238Y2261904D01*
X12190476Y2166666D01*
X12238095Y2071428D01*
X12857143Y-102880952D02*
X12904762Y-102928571D01*
X12952381Y-103071428D01*
X12952381Y-103166666D01*
X12904762Y-103309524D01*
X12809524Y-103404762D01*
X12714286Y-103452381D01*
X12523810Y-103500000D01*
X12380952Y-103500000D01*
X12190476Y-103452381D01*
X12095238Y-103404762D01*
X12000000Y-103309524D01*
X11952381Y-103166666D01*
X11952381Y-103071428D01*
X12000000Y-102928571D01*
X12047619Y-102880952D01*
X12952381Y-101976190D02*
X12952381Y-102452381D01*
X11952381Y-102452381D01*
X12952381Y-101642857D02*
X11952381Y-101642857D01*
X12952381Y-101071428D02*
X12380952Y-101500000D01*
X11952381Y-101071428D02*
X12523810Y-101642857D01*
X13047619Y-100880952D02*
X13047619Y-100119047D01*
X11952381Y-99690476D02*
X11952381Y-99499999D01*
X12000000Y-99404761D01*
X12095238Y-99309523D01*
X12285714Y-99261904D01*
X12619048Y-99261904D01*
X12809524Y-99309523D01*
X12904762Y-99404761D01*
X12952381Y-99499999D01*
X12952381Y-99690476D01*
X12904762Y-99785714D01*
X12809524Y-99880952D01*
X12619048Y-99928571D01*
X12285714Y-99928571D01*
X12095238Y-99880952D01*
X12000000Y-99785714D01*
X11952381Y-99690476D01*
X11952381Y-98833333D02*
X12761905Y-98833333D01*
X12857143Y-98785714D01*
X12904762Y-98738095D01*
X12952381Y-98642857D01*
X12952381Y-98452380D01*
X12904762Y-98357142D01*
X12857143Y-98309523D01*
X12761905Y-98261904D01*
X11952381Y-98261904D01*
X11952381Y-97928571D02*
X11952381Y-97357142D01*
X12952381Y-97642857D02*
X11952381Y-97642857D01*
X12952381Y-96499999D02*
X12952381Y-97071428D01*
X12952381Y-96785714D02*
X11952381Y-96785714D01*
X12095238Y-96880952D01*
X12190476Y-96976190D01*
X12238095Y-97071428D01*
X41628571Y-14466667D02*
X42104762Y-14466667D01*
X41533333Y-14752381D02*
X41866666Y-13752381D01*
X42200000Y-14752381D01*
X42866667Y-14228571D02*
X42533333Y-14228571D01*
X42533333Y-14752381D02*
X42533333Y-13752381D01*
X43009524Y-13752381D01*
X43723810Y-14228571D02*
X43390476Y-14228571D01*
X43390476Y-14752381D02*
X43390476Y-13752381D01*
X43866667Y-13752381D01*
X44200000Y-13847619D02*
X44247619Y-13800000D01*
X44342857Y-13752381D01*
X44580953Y-13752381D01*
X44676191Y-13800000D01*
X44723810Y-13847619D01*
X44771429Y-13942857D01*
X44771429Y-14038095D01*
X44723810Y-14180952D01*
X44152381Y-14752381D01*
X44771429Y-14752381D01*
X34128571Y-14466667D02*
X34604762Y-14466667D01*
X34033333Y-14752381D02*
X34366666Y-13752381D01*
X34700000Y-14752381D01*
X35366667Y-14228571D02*
X35033333Y-14228571D01*
X35033333Y-14752381D02*
X35033333Y-13752381D01*
X35509524Y-13752381D01*
X36223810Y-14228571D02*
X35890476Y-14228571D01*
X35890476Y-14752381D02*
X35890476Y-13752381D01*
X36366667Y-13752381D01*
X37271429Y-14752381D02*
X36700000Y-14752381D01*
X36985714Y-14752381D02*
X36985714Y-13752381D01*
X36890476Y-13895238D01*
X36795238Y-13990476D01*
X36700000Y-14038095D01*
X49128571Y-14466667D02*
X49604762Y-14466667D01*
X49033333Y-14752381D02*
X49366666Y-13752381D01*
X49700000Y-14752381D01*
X50366667Y-14228571D02*
X50033333Y-14228571D01*
X50033333Y-14752381D02*
X50033333Y-13752381D01*
X50509524Y-13752381D01*
X51223810Y-14228571D02*
X50890476Y-14228571D01*
X50890476Y-14752381D02*
X50890476Y-13752381D01*
X51366667Y-13752381D01*
X51652381Y-13752381D02*
X52271429Y-13752381D01*
X51938095Y-14133333D01*
X52080953Y-14133333D01*
X52176191Y-14180952D01*
X52223810Y-14228571D01*
X52271429Y-14323810D01*
X52271429Y-14561905D01*
X52223810Y-14657143D01*
X52176191Y-14704762D01*
X52080953Y-14752381D01*
X51795238Y-14752381D01*
X51700000Y-14704762D01*
X51652381Y-14657143D01*
X56628571Y-14466667D02*
X57104762Y-14466667D01*
X56533333Y-14752381D02*
X56866666Y-13752381D01*
X57200000Y-14752381D01*
X57866667Y-14228571D02*
X57533333Y-14228571D01*
X57533333Y-14752381D02*
X57533333Y-13752381D01*
X58009524Y-13752381D01*
X58723810Y-14228571D02*
X58390476Y-14228571D01*
X58390476Y-14752381D02*
X58390476Y-13752381D01*
X58866667Y-13752381D01*
X59676191Y-14085714D02*
X59676191Y-14752381D01*
X59438095Y-13704762D02*
X59200000Y-14419048D01*
X59819048Y-14419048D01*
X45666667Y-55104762D02*
X45809524Y-55152381D01*
X46047620Y-55152381D01*
X46142858Y-55104762D01*
X46190477Y-55057143D01*
X46238096Y-54961905D01*
X46238096Y-54866667D01*
X46190477Y-54771429D01*
X46142858Y-54723810D01*
X46047620Y-54676190D01*
X45857143Y-54628571D01*
X45761905Y-54580952D01*
X45714286Y-54533333D01*
X45666667Y-54438095D01*
X45666667Y-54342857D01*
X45714286Y-54247619D01*
X45761905Y-54200000D01*
X45857143Y-54152381D01*
X46095239Y-54152381D01*
X46238096Y-54200000D01*
X46571429Y-54152381D02*
X46809524Y-55152381D01*
X47000001Y-54438095D01*
X47190477Y-55152381D01*
X47428572Y-54152381D01*
X47761905Y-54247619D02*
X47809524Y-54200000D01*
X47904762Y-54152381D01*
X48142858Y-54152381D01*
X48238096Y-54200000D01*
X48285715Y-54247619D01*
X48333334Y-54342857D01*
X48333334Y-54438095D01*
X48285715Y-54580952D01*
X47714286Y-55152381D01*
X48333334Y-55152381D01*
X45166667Y-69054762D02*
X45309524Y-69102381D01*
X45547620Y-69102381D01*
X45642858Y-69054762D01*
X45690477Y-69007143D01*
X45738096Y-68911905D01*
X45738096Y-68816667D01*
X45690477Y-68721429D01*
X45642858Y-68673810D01*
X45547620Y-68626190D01*
X45357143Y-68578571D01*
X45261905Y-68530952D01*
X45214286Y-68483333D01*
X45166667Y-68388095D01*
X45166667Y-68292857D01*
X45214286Y-68197619D01*
X45261905Y-68150000D01*
X45357143Y-68102381D01*
X45595239Y-68102381D01*
X45738096Y-68150000D01*
X46071429Y-68102381D02*
X46309524Y-69102381D01*
X46500001Y-68388095D01*
X46690477Y-69102381D01*
X46928572Y-68102381D01*
X47833334Y-69102381D02*
X47261905Y-69102381D01*
X47547619Y-69102381D02*
X47547619Y-68102381D01*
X47452381Y-68245238D01*
X47357143Y-68340476D01*
X47261905Y-68388095D01*
X61452381Y-5408095D02*
X60452381Y-5408095D01*
X60452381Y-5027142D01*
X60500000Y-4931904D01*
X60547619Y-4884285D01*
X60642857Y-4836666D01*
X60785714Y-4836666D01*
X60880952Y-4884285D01*
X60928571Y-4931904D01*
X60976190Y-5027142D01*
X60976190Y-5408095D01*
X60452381Y-4503333D02*
X60452381Y-3884285D01*
X60833333Y-4217619D01*
X60833333Y-4074761D01*
X60880952Y-3979523D01*
X60928571Y-3931904D01*
X61023810Y-3884285D01*
X61261905Y-3884285D01*
X61357143Y-3931904D01*
X61404762Y-3979523D01*
X61452381Y-4074761D01*
X61452381Y-4360476D01*
X61404762Y-4455714D01*
X61357143Y-4503333D01*
X58583334Y-32852381D02*
X58250000Y-32376190D01*
X58011905Y-32852381D02*
X58011905Y-31852381D01*
X58392858Y-31852381D01*
X58488096Y-31900000D01*
X58535715Y-31947619D01*
X58583334Y-32042857D01*
X58583334Y-32185714D01*
X58535715Y-32280952D01*
X58488096Y-32328571D01*
X58392858Y-32376190D01*
X58011905Y-32376190D01*
X59535715Y-32852381D02*
X58964286Y-32852381D01*
X59250000Y-32852381D02*
X59250000Y-31852381D01*
X59154762Y-31995238D01*
X59059524Y-32090476D01*
X58964286Y-32138095D01*
X58583334Y-42852381D02*
X58250000Y-42376190D01*
X58011905Y-42852381D02*
X58011905Y-41852381D01*
X58392858Y-41852381D01*
X58488096Y-41900000D01*
X58535715Y-41947619D01*
X58583334Y-42042857D01*
X58583334Y-42185714D01*
X58535715Y-42280952D01*
X58488096Y-42328571D01*
X58392858Y-42376190D01*
X58011905Y-42376190D01*
X58964286Y-41947619D02*
X59011905Y-41900000D01*
X59107143Y-41852381D01*
X59345239Y-41852381D01*
X59440477Y-41900000D01*
X59488096Y-41947619D01*
X59535715Y-42042857D01*
X59535715Y-42138095D01*
X59488096Y-42280952D01*
X58916667Y-42852381D01*
X59535715Y-42852381D01*
X58583334Y-52852381D02*
X58250000Y-52376190D01*
X58011905Y-52852381D02*
X58011905Y-51852381D01*
X58392858Y-51852381D01*
X58488096Y-51900000D01*
X58535715Y-51947619D01*
X58583334Y-52042857D01*
X58583334Y-52185714D01*
X58535715Y-52280952D01*
X58488096Y-52328571D01*
X58392858Y-52376190D01*
X58011905Y-52376190D01*
X58916667Y-51852381D02*
X59535715Y-51852381D01*
X59202381Y-52233333D01*
X59345239Y-52233333D01*
X59440477Y-52280952D01*
X59488096Y-52328571D01*
X59535715Y-52423810D01*
X59535715Y-52661905D01*
X59488096Y-52757143D01*
X59440477Y-52804762D01*
X59345239Y-52852381D01*
X59059524Y-52852381D01*
X58964286Y-52804762D01*
X58916667Y-52757143D01*
X58583334Y-62852381D02*
X58250000Y-62376190D01*
X58011905Y-62852381D02*
X58011905Y-61852381D01*
X58392858Y-61852381D01*
X58488096Y-61900000D01*
X58535715Y-61947619D01*
X58583334Y-62042857D01*
X58583334Y-62185714D01*
X58535715Y-62280952D01*
X58488096Y-62328571D01*
X58392858Y-62376190D01*
X58011905Y-62376190D01*
X59440477Y-62185714D02*
X59440477Y-62852381D01*
X59202381Y-61804762D02*
X58964286Y-62519048D01*
X59583334Y-62519048D01*
X58852381Y-23892857D02*
X58376190Y-24226191D01*
X58852381Y-24464286D02*
X57852381Y-24464286D01*
X57852381Y-24083333D01*
X57900000Y-23988095D01*
X57947619Y-23940476D01*
X58042857Y-23892857D01*
X58185714Y-23892857D01*
X58280952Y-23940476D01*
X58328571Y-23988095D01*
X58376190Y-24083333D01*
X58376190Y-24464286D01*
X58852381Y-22940476D02*
X58852381Y-23511905D01*
X58852381Y-23226191D02*
X57852381Y-23226191D01*
X57995238Y-23321429D01*
X58090476Y-23416667D01*
X58138095Y-23511905D01*
X57852381Y-22607143D02*
X57852381Y-21988095D01*
X58233333Y-22321429D01*
X58233333Y-22178571D01*
X58280952Y-22083333D01*
X58328571Y-22035714D01*
X58423810Y-21988095D01*
X58661905Y-21988095D01*
X58757143Y-22035714D01*
X58804762Y-22083333D01*
X58852381Y-22178571D01*
X58852381Y-22464286D01*
X58804762Y-22559524D01*
X58757143Y-22607143D01*
X56852381Y-23892857D02*
X56376190Y-24226191D01*
X56852381Y-24464286D02*
X55852381Y-24464286D01*
X55852381Y-24083333D01*
X55900000Y-23988095D01*
X55947619Y-23940476D01*
X56042857Y-23892857D01*
X56185714Y-23892857D01*
X56280952Y-23940476D01*
X56328571Y-23988095D01*
X56376190Y-24083333D01*
X56376190Y-24464286D01*
X56852381Y-22940476D02*
X56852381Y-23511905D01*
X56852381Y-23226191D02*
X55852381Y-23226191D01*
X55995238Y-23321429D01*
X56090476Y-23416667D01*
X56138095Y-23511905D01*
X56185714Y-22083333D02*
X56852381Y-22083333D01*
X55804762Y-22321429D02*
X56519048Y-22559524D01*
X56519048Y-21940476D01*
X45352381Y-23892857D02*
X44876190Y-24226191D01*
X45352381Y-24464286D02*
X44352381Y-24464286D01*
X44352381Y-24083333D01*
X44400000Y-23988095D01*
X44447619Y-23940476D01*
X44542857Y-23892857D01*
X44685714Y-23892857D01*
X44780952Y-23940476D01*
X44828571Y-23988095D01*
X44876190Y-24083333D01*
X44876190Y-24464286D01*
X45352381Y-22940476D02*
X45352381Y-23511905D01*
X45352381Y-23226191D02*
X44352381Y-23226191D01*
X44495238Y-23321429D01*
X44590476Y-23416667D01*
X44638095Y-23511905D01*
X44352381Y-22035714D02*
X44352381Y-22511905D01*
X44828571Y-22559524D01*
X44780952Y-22511905D01*
X44733333Y-22416667D01*
X44733333Y-22178571D01*
X44780952Y-22083333D01*
X44828571Y-22035714D01*
X44923810Y-21988095D01*
X45161905Y-21988095D01*
X45257143Y-22035714D01*
X45304762Y-22083333D01*
X45352381Y-22178571D01*
X45352381Y-22416667D01*
X45304762Y-22511905D01*
X45257143Y-22559524D01*
X47252381Y-23892857D02*
X46776190Y-24226191D01*
X47252381Y-24464286D02*
X46252381Y-24464286D01*
X46252381Y-24083333D01*
X46300000Y-23988095D01*
X46347619Y-23940476D01*
X46442857Y-23892857D01*
X46585714Y-23892857D01*
X46680952Y-23940476D01*
X46728571Y-23988095D01*
X46776190Y-24083333D01*
X46776190Y-24464286D01*
X47252381Y-22940476D02*
X47252381Y-23511905D01*
X47252381Y-23226191D02*
X46252381Y-23226191D01*
X46395238Y-23321429D01*
X46490476Y-23416667D01*
X46538095Y-23511905D01*
X46252381Y-22083333D02*
X46252381Y-22273810D01*
X46300000Y-22369048D01*
X46347619Y-22416667D01*
X46490476Y-22511905D01*
X46680952Y-22559524D01*
X47061905Y-22559524D01*
X47157143Y-22511905D01*
X47204762Y-22464286D01*
X47252381Y-22369048D01*
X47252381Y-22178571D01*
X47204762Y-22083333D01*
X47157143Y-22035714D01*
X47061905Y-21988095D01*
X46823810Y-21988095D01*
X46728571Y-22035714D01*
X46680952Y-22083333D01*
X46633333Y-22178571D01*
X46633333Y-22369048D01*
X46680952Y-22464286D01*
X46728571Y-22511905D01*
X46823810Y-22559524D01*
X49252381Y-23892857D02*
X48776190Y-24226191D01*
X49252381Y-24464286D02*
X48252381Y-24464286D01*
X48252381Y-24083333D01*
X48300000Y-23988095D01*
X48347619Y-23940476D01*
X48442857Y-23892857D01*
X48585714Y-23892857D01*
X48680952Y-23940476D01*
X48728571Y-23988095D01*
X48776190Y-24083333D01*
X48776190Y-24464286D01*
X49252381Y-22940476D02*
X49252381Y-23511905D01*
X49252381Y-23226191D02*
X48252381Y-23226191D01*
X48395238Y-23321429D01*
X48490476Y-23416667D01*
X48538095Y-23511905D01*
X48252381Y-22607143D02*
X48252381Y-21940476D01*
X49252381Y-22369048D01*
X60852381Y-23892857D02*
X60376190Y-24226191D01*
X60852381Y-24464286D02*
X59852381Y-24464286D01*
X59852381Y-24083333D01*
X59900000Y-23988095D01*
X59947619Y-23940476D01*
X60042857Y-23892857D01*
X60185714Y-23892857D01*
X60280952Y-23940476D01*
X60328571Y-23988095D01*
X60376190Y-24083333D01*
X60376190Y-24464286D01*
X60852381Y-22940476D02*
X60852381Y-23511905D01*
X60852381Y-23226191D02*
X59852381Y-23226191D01*
X59995238Y-23321429D01*
X60090476Y-23416667D01*
X60138095Y-23511905D01*
X60280952Y-22369048D02*
X60233333Y-22464286D01*
X60185714Y-22511905D01*
X60090476Y-22559524D01*
X60042857Y-22559524D01*
X59947619Y-22511905D01*
X59900000Y-22464286D01*
X59852381Y-22369048D01*
X59852381Y-22178571D01*
X59900000Y-22083333D01*
X59947619Y-22035714D01*
X60042857Y-21988095D01*
X60090476Y-21988095D01*
X60185714Y-22035714D01*
X60233333Y-22083333D01*
X60280952Y-22178571D01*
X60280952Y-22369048D01*
X60328571Y-22464286D01*
X60376190Y-22511905D01*
X60471429Y-22559524D01*
X60661905Y-22559524D01*
X60757143Y-22511905D01*
X60804762Y-22464286D01*
X60852381Y-22369048D01*
X60852381Y-22178571D01*
X60804762Y-22083333D01*
X60757143Y-22035714D01*
X60661905Y-21988095D01*
X60471429Y-21988095D01*
X60376190Y-22035714D01*
X60328571Y-22083333D01*
X60280952Y-22178571D01*
X62852381Y-23892857D02*
X62376190Y-24226191D01*
X62852381Y-24464286D02*
X61852381Y-24464286D01*
X61852381Y-24083333D01*
X61900000Y-23988095D01*
X61947619Y-23940476D01*
X62042857Y-23892857D01*
X62185714Y-23892857D01*
X62280952Y-23940476D01*
X62328571Y-23988095D01*
X62376190Y-24083333D01*
X62376190Y-24464286D01*
X62852381Y-22940476D02*
X62852381Y-23511905D01*
X62852381Y-23226191D02*
X61852381Y-23226191D01*
X61995238Y-23321429D01*
X62090476Y-23416667D01*
X62138095Y-23511905D01*
X62852381Y-22464286D02*
X62852381Y-22273810D01*
X62804762Y-22178571D01*
X62757143Y-22130952D01*
X62614286Y-22035714D01*
X62423810Y-21988095D01*
X62042857Y-21988095D01*
X61947619Y-22035714D01*
X61900000Y-22083333D01*
X61852381Y-22178571D01*
X61852381Y-22369048D01*
X61900000Y-22464286D01*
X61947619Y-22511905D01*
X62042857Y-22559524D01*
X62280952Y-22559524D01*
X62376190Y-22511905D01*
X62423810Y-22464286D01*
X62471429Y-22369048D01*
X62471429Y-22178571D01*
X62423810Y-22083333D01*
X62376190Y-22035714D01*
X62280952Y-21988095D01*
X43352381Y-23892857D02*
X42876190Y-24226191D01*
X43352381Y-24464286D02*
X42352381Y-24464286D01*
X42352381Y-24083333D01*
X42400000Y-23988095D01*
X42447619Y-23940476D01*
X42542857Y-23892857D01*
X42685714Y-23892857D01*
X42780952Y-23940476D01*
X42828571Y-23988095D01*
X42876190Y-24083333D01*
X42876190Y-24464286D01*
X42447619Y-23511905D02*
X42400000Y-23464286D01*
X42352381Y-23369048D01*
X42352381Y-23130952D01*
X42400000Y-23035714D01*
X42447619Y-22988095D01*
X42542857Y-22940476D01*
X42638095Y-22940476D01*
X42780952Y-22988095D01*
X43352381Y-23559524D01*
X43352381Y-22940476D01*
X42352381Y-22321429D02*
X42352381Y-22226190D01*
X42400000Y-22130952D01*
X42447619Y-22083333D01*
X42542857Y-22035714D01*
X42733333Y-21988095D01*
X42971429Y-21988095D01*
X43161905Y-22035714D01*
X43257143Y-22083333D01*
X43304762Y-22130952D01*
X43352381Y-22226190D01*
X43352381Y-22321429D01*
X43304762Y-22416667D01*
X43257143Y-22464286D01*
X43161905Y-22511905D01*
X42971429Y-22559524D01*
X42733333Y-22559524D01*
X42542857Y-22511905D01*
X42447619Y-22464286D01*
X42400000Y-22416667D01*
X42352381Y-22321429D01*
X56452381Y-47402381D02*
X55976190Y-47402381D01*
X55976190Y-46402381D01*
X56785714Y-46878571D02*
X57119048Y-46878571D01*
X57261905Y-47402381D02*
X56785714Y-47402381D01*
X56785714Y-46402381D01*
X57261905Y-46402381D01*
X57690476Y-47402381D02*
X57690476Y-46402381D01*
X58261905Y-47402381D01*
X58261905Y-46402381D01*
X59261905Y-46450000D02*
X59166667Y-46402381D01*
X59023810Y-46402381D01*
X58880952Y-46450000D01*
X58785714Y-46545238D01*
X58738095Y-46640476D01*
X58690476Y-46830952D01*
X58690476Y-46973810D01*
X58738095Y-47164286D01*
X58785714Y-47259524D01*
X58880952Y-47354762D01*
X59023810Y-47402381D01*
X59119048Y-47402381D01*
X59261905Y-47354762D01*
X59309524Y-47307143D01*
X59309524Y-46973810D01*
X59119048Y-46973810D01*
X59595238Y-46402381D02*
X60166667Y-46402381D01*
X59880952Y-47402381D02*
X59880952Y-46402381D01*
X60500000Y-47402381D02*
X60500000Y-46402381D01*
X60500000Y-46878571D02*
X61071429Y-46878571D01*
X61071429Y-47402381D02*
X61071429Y-46402381D01*
X62071429Y-47402381D02*
X61500000Y-47402381D01*
X61785714Y-47402381D02*
X61785714Y-46402381D01*
X61690476Y-46545238D01*
X61595238Y-46640476D01*
X61500000Y-46688095D01*
X56714286Y-57402381D02*
X56714286Y-56402381D01*
X57095239Y-56402381D01*
X57190477Y-56450000D01*
X57238096Y-56497619D01*
X57285715Y-56592857D01*
X57285715Y-56735714D01*
X57238096Y-56830952D01*
X57190477Y-56878571D01*
X57095239Y-56926190D01*
X56714286Y-56926190D01*
X57714286Y-57402381D02*
X57714286Y-56402381D01*
X58095239Y-56402381D01*
X58190477Y-56450000D01*
X58238096Y-56497619D01*
X58285715Y-56592857D01*
X58285715Y-56735714D01*
X58238096Y-56830952D01*
X58190477Y-56878571D01*
X58095239Y-56926190D01*
X57714286Y-56926190D01*
X59380953Y-57497619D02*
X59285715Y-57450000D01*
X59190477Y-57354762D01*
X59047620Y-57211905D01*
X58952381Y-57164286D01*
X58857143Y-57164286D01*
X58904762Y-57402381D02*
X58809524Y-57354762D01*
X58714286Y-57259524D01*
X58666667Y-57069048D01*
X58666667Y-56735714D01*
X58714286Y-56545238D01*
X58809524Y-56450000D01*
X58904762Y-56402381D01*
X59095239Y-56402381D01*
X59190477Y-56450000D01*
X59285715Y-56545238D01*
X59333334Y-56735714D01*
X59333334Y-57069048D01*
X59285715Y-57259524D01*
X59190477Y-57354762D01*
X59095239Y-57402381D01*
X58904762Y-57402381D01*
X59761905Y-57402381D02*
X59761905Y-56402381D01*
X60333334Y-57402381D01*
X60333334Y-56402381D01*
X61333334Y-57402381D02*
X60761905Y-57402381D01*
X61047619Y-57402381D02*
X61047619Y-56402381D01*
X60952381Y-56545238D01*
X60857143Y-56640476D01*
X60761905Y-56688095D01*
X57785715Y-27402381D02*
X57452381Y-26926190D01*
X57214286Y-27402381D02*
X57214286Y-26402381D01*
X57595239Y-26402381D01*
X57690477Y-26450000D01*
X57738096Y-26497619D01*
X57785715Y-26592857D01*
X57785715Y-26735714D01*
X57738096Y-26830952D01*
X57690477Y-26878571D01*
X57595239Y-26926190D01*
X57214286Y-26926190D01*
X58214286Y-26402381D02*
X58214286Y-27211905D01*
X58261905Y-27307143D01*
X58309524Y-27354762D01*
X58404762Y-27402381D01*
X58595239Y-27402381D01*
X58690477Y-27354762D01*
X58738096Y-27307143D01*
X58785715Y-27211905D01*
X58785715Y-26402381D01*
X59261905Y-27402381D02*
X59261905Y-26402381D01*
X59833334Y-27402381D01*
X59833334Y-26402381D01*
X60833334Y-27402381D02*
X60261905Y-27402381D01*
X60547619Y-27402381D02*
X60547619Y-26402381D01*
X60452381Y-26545238D01*
X60357143Y-26640476D01*
X60261905Y-26688095D01*
X56190476Y-36402381D02*
X56761905Y-36402381D01*
X56476190Y-37402381D02*
X56476190Y-36402381D01*
X57095238Y-36878571D02*
X57428572Y-36878571D01*
X57571429Y-37402381D02*
X57095238Y-37402381D01*
X57095238Y-36402381D01*
X57571429Y-36402381D01*
X58000000Y-37402381D02*
X58000000Y-36402381D01*
X58333334Y-37116667D01*
X58666667Y-36402381D01*
X58666667Y-37402381D01*
X59142857Y-37402381D02*
X59142857Y-36402381D01*
X59523810Y-36402381D01*
X59619048Y-36450000D01*
X59666667Y-36497619D01*
X59714286Y-36592857D01*
X59714286Y-36735714D01*
X59666667Y-36830952D01*
X59619048Y-36878571D01*
X59523810Y-36926190D01*
X59142857Y-36926190D01*
X60333333Y-36402381D02*
X60523810Y-36402381D01*
X60619048Y-36450000D01*
X60714286Y-36545238D01*
X60761905Y-36735714D01*
X60761905Y-37069048D01*
X60714286Y-37259524D01*
X60619048Y-37354762D01*
X60523810Y-37402381D01*
X60333333Y-37402381D01*
X60238095Y-37354762D01*
X60142857Y-37259524D01*
X60095238Y-37069048D01*
X60095238Y-36735714D01*
X60142857Y-36545238D01*
X60238095Y-36450000D01*
X60333333Y-36402381D01*
X61714286Y-37402381D02*
X61142857Y-37402381D01*
X61428571Y-37402381D02*
X61428571Y-36402381D01*
X61333333Y-36545238D01*
X61238095Y-36640476D01*
X61142857Y-36688095D01*
X36261905Y-85952381D02*
X36261905Y-84952381D01*
X36642858Y-84952381D01*
X36738096Y-85000000D01*
X36785715Y-85047619D01*
X36833334Y-85142857D01*
X36833334Y-85285714D01*
X36785715Y-85380952D01*
X36738096Y-85428571D01*
X36642858Y-85476190D01*
X36261905Y-85476190D01*
X37738096Y-84952381D02*
X37261905Y-84952381D01*
X37214286Y-85428571D01*
X37261905Y-85380952D01*
X37357143Y-85333333D01*
X37595239Y-85333333D01*
X37690477Y-85380952D01*
X37738096Y-85428571D01*
X37785715Y-85523810D01*
X37785715Y-85761905D01*
X37738096Y-85857143D01*
X37690477Y-85904762D01*
X37595239Y-85952381D01*
X37357143Y-85952381D01*
X37261905Y-85904762D01*
X37214286Y-85857143D01*
M02*
