G04 #@! TF.FileFunction,Other,Comment*
%FSLAX46Y46*%
G04 Gerber Fmt 4.6, Leading zero omitted, Abs format (unit mm)*
G04 Created by KiCad (PCBNEW 4.0.6) date 2018 February 20, Tuesday 14:46:14*
%MOMM*%
%LPD*%
G01*
G04 APERTURE LIST*
%ADD10C,0.100000*%
%ADD11C,0.300000*%
%ADD12C,1.000000*%
G04 APERTURE END LIST*
D10*
D11*
X4735715Y-115103571D02*
X4735715Y-113603571D01*
X5235715Y-114675000D01*
X5735715Y-113603571D01*
X5735715Y-115103571D01*
X6378572Y-114675000D02*
X7092858Y-114675000D01*
X6235715Y-115103571D02*
X6735715Y-113603571D01*
X7235715Y-115103571D01*
X8592858Y-115103571D02*
X8092858Y-114389286D01*
X7735715Y-115103571D02*
X7735715Y-113603571D01*
X8307143Y-113603571D01*
X8450001Y-113675000D01*
X8521429Y-113746429D01*
X8592858Y-113889286D01*
X8592858Y-114103571D01*
X8521429Y-114246429D01*
X8450001Y-114317857D01*
X8307143Y-114389286D01*
X7735715Y-114389286D01*
X9235715Y-115103571D02*
X9235715Y-113603571D01*
X10092858Y-115103571D02*
X9450001Y-114246429D01*
X10092858Y-113603571D02*
X9235715Y-114460714D01*
X12378572Y-114317857D02*
X11878572Y-114317857D01*
X11878572Y-115103571D02*
X11878572Y-113603571D01*
X12592858Y-113603571D01*
X13450000Y-113603571D02*
X13735714Y-113603571D01*
X13878572Y-113675000D01*
X14021429Y-113817857D01*
X14092857Y-114103571D01*
X14092857Y-114603571D01*
X14021429Y-114889286D01*
X13878572Y-115032143D01*
X13735714Y-115103571D01*
X13450000Y-115103571D01*
X13307143Y-115032143D01*
X13164286Y-114889286D01*
X13092857Y-114603571D01*
X13092857Y-114103571D01*
X13164286Y-113817857D01*
X13307143Y-113675000D01*
X13450000Y-113603571D01*
X15592858Y-115103571D02*
X15092858Y-114389286D01*
X14735715Y-115103571D02*
X14735715Y-113603571D01*
X15307143Y-113603571D01*
X15450001Y-113675000D01*
X15521429Y-113746429D01*
X15592858Y-113889286D01*
X15592858Y-114103571D01*
X15521429Y-114246429D01*
X15450001Y-114317857D01*
X15307143Y-114389286D01*
X14735715Y-114389286D01*
X4128571Y-116867857D02*
X4342857Y-116939286D01*
X4414285Y-117010714D01*
X4485714Y-117153571D01*
X4485714Y-117367857D01*
X4414285Y-117510714D01*
X4342857Y-117582143D01*
X4199999Y-117653571D01*
X3628571Y-117653571D01*
X3628571Y-116153571D01*
X4128571Y-116153571D01*
X4271428Y-116225000D01*
X4342857Y-116296429D01*
X4414285Y-116439286D01*
X4414285Y-116582143D01*
X4342857Y-116725000D01*
X4271428Y-116796429D01*
X4128571Y-116867857D01*
X3628571Y-116867857D01*
X5414285Y-116153571D02*
X5699999Y-116153571D01*
X5842857Y-116225000D01*
X5985714Y-116367857D01*
X6057142Y-116653571D01*
X6057142Y-117153571D01*
X5985714Y-117439286D01*
X5842857Y-117582143D01*
X5699999Y-117653571D01*
X5414285Y-117653571D01*
X5271428Y-117582143D01*
X5128571Y-117439286D01*
X5057142Y-117153571D01*
X5057142Y-116653571D01*
X5128571Y-116367857D01*
X5271428Y-116225000D01*
X5414285Y-116153571D01*
X6628571Y-117225000D02*
X7342857Y-117225000D01*
X6485714Y-117653571D02*
X6985714Y-116153571D01*
X7485714Y-117653571D01*
X8842857Y-117653571D02*
X8342857Y-116939286D01*
X7985714Y-117653571D02*
X7985714Y-116153571D01*
X8557142Y-116153571D01*
X8700000Y-116225000D01*
X8771428Y-116296429D01*
X8842857Y-116439286D01*
X8842857Y-116653571D01*
X8771428Y-116796429D01*
X8700000Y-116867857D01*
X8557142Y-116939286D01*
X7985714Y-116939286D01*
X9485714Y-117653571D02*
X9485714Y-116153571D01*
X9842857Y-116153571D01*
X10057142Y-116225000D01*
X10200000Y-116367857D01*
X10271428Y-116510714D01*
X10342857Y-116796429D01*
X10342857Y-117010714D01*
X10271428Y-117296429D01*
X10200000Y-117439286D01*
X10057142Y-117582143D01*
X9842857Y-117653571D01*
X9485714Y-117653571D01*
X10985714Y-117653571D02*
X10985714Y-116153571D01*
X10985714Y-116867857D02*
X11842857Y-116867857D01*
X11842857Y-117653571D02*
X11842857Y-116153571D01*
X12842857Y-116153571D02*
X13128571Y-116153571D01*
X13271429Y-116225000D01*
X13414286Y-116367857D01*
X13485714Y-116653571D01*
X13485714Y-117153571D01*
X13414286Y-117439286D01*
X13271429Y-117582143D01*
X13128571Y-117653571D01*
X12842857Y-117653571D01*
X12700000Y-117582143D01*
X12557143Y-117439286D01*
X12485714Y-117153571D01*
X12485714Y-116653571D01*
X12557143Y-116367857D01*
X12700000Y-116225000D01*
X12842857Y-116153571D01*
X14128572Y-116153571D02*
X14128572Y-117367857D01*
X14200000Y-117510714D01*
X14271429Y-117582143D01*
X14414286Y-117653571D01*
X14700000Y-117653571D01*
X14842858Y-117582143D01*
X14914286Y-117510714D01*
X14985715Y-117367857D01*
X14985715Y-116153571D01*
X15628572Y-117582143D02*
X15842858Y-117653571D01*
X16200001Y-117653571D01*
X16342858Y-117582143D01*
X16414287Y-117510714D01*
X16485715Y-117367857D01*
X16485715Y-117225000D01*
X16414287Y-117082143D01*
X16342858Y-117010714D01*
X16200001Y-116939286D01*
X15914287Y-116867857D01*
X15771429Y-116796429D01*
X15700001Y-116725000D01*
X15628572Y-116582143D01*
X15628572Y-116439286D01*
X15700001Y-116296429D01*
X15771429Y-116225000D01*
X15914287Y-116153571D01*
X16271429Y-116153571D01*
X16485715Y-116225000D01*
X17128572Y-116867857D02*
X17628572Y-116867857D01*
X17842858Y-117653571D02*
X17128572Y-117653571D01*
X17128572Y-116153571D01*
X17842858Y-116153571D01*
D12*
X700000Y-120700000D02*
X700000Y-110700000D01*
X20700000Y-120700000D02*
X700000Y-120700000D01*
X20700000Y-110700000D02*
X20700000Y-120700000D01*
X700000Y-110700000D02*
X20700000Y-110700000D01*
M02*
