G04 #@! TF.FileFunction,Other,ECO1*
%FSLAX46Y46*%
G04 Gerber Fmt 4.6, Leading zero omitted, Abs format (unit mm)*
G04 Created by KiCad (PCBNEW 4.0.6) date 2018 February 20, Tuesday 14:46:14*
%MOMM*%
%LPD*%
G01*
G04 APERTURE LIST*
%ADD10C,0.100000*%
%ADD11C,2.000000*%
G04 APERTURE END LIST*
D10*
D11*
X-1000000Y-120100000D02*
X-1000000Y-128700000D01*
X26000000Y-83500000D02*
X26000000Y-96000000D01*
X26000000Y-83500000D02*
X31000000Y-83500000D01*
X31000000Y-96000000D02*
X26000000Y-96000000D01*
X43200000Y-6600000D02*
X42200000Y-7500000D01*
X43200000Y0D02*
X43200000Y-6600000D01*
X31000000Y-7500000D02*
X42200000Y-7500000D01*
X31000000Y0D02*
X31000000Y-13000000D01*
X31000000Y-22200000D02*
X31000000Y-17000000D01*
X31000000Y-21000000D02*
X39000000Y-21000000D01*
X39200000Y-33000000D02*
X39200000Y-21000000D01*
X38000000Y-32300000D02*
X38000000Y-71200000D01*
X31700000Y-71200000D02*
X38000000Y-71200000D01*
X62000000Y-80000000D02*
X54000000Y-80000000D01*
X44900000Y-80000000D02*
X50000000Y-80000000D01*
X44900000Y-80000000D02*
X44000000Y-80800000D01*
X44000000Y-80800000D02*
X44000000Y-86800000D01*
X41000000Y-86800000D02*
X44000000Y-86800000D01*
X37000000Y-86800000D02*
X31500000Y-86800000D01*
X31000000Y-95500000D02*
X31000000Y-77000000D01*
X31000000Y-22200000D02*
X31000000Y-73000000D01*
X31000000Y-95000000D02*
X31000000Y-98000000D01*
X31000000Y-109000000D02*
X31000000Y-102000000D01*
X31000000Y-109000000D02*
X24000000Y-109000000D01*
X12000000Y-109000000D02*
X20000000Y-109000000D01*
X8000000Y-109000000D02*
X-600000Y-109000000D01*
X-1000000Y-93000000D02*
X-1000000Y-116100000D01*
X-1000000Y-89000000D02*
X-1000000Y-17000000D01*
X-300000Y-72200000D02*
X6000000Y-72200000D01*
X6000000Y-33300000D02*
X6000000Y-72200000D01*
X-1000000Y0D02*
X-1000000Y-13000000D01*
X-1000000Y-22000000D02*
X7000000Y-22000000D01*
X7200000Y-34000000D02*
X7200000Y-22000000D01*
X-4200000Y-27700000D02*
X-4200000Y-22800000D01*
X-29800000Y-27700000D02*
X-29800000Y-22800000D01*
X-29800000Y-27700000D02*
X-4200000Y-27700000D01*
X-29800000Y-22800000D02*
X-4200000Y-22800000D01*
X-32800000Y-69100000D02*
X-25500000Y-61800000D01*
X-25500000Y-47200000D02*
X-25500000Y-61800000D01*
X-25500000Y-47200000D02*
X-32800000Y-39900000D01*
M02*
